<svg width="19" height="19" viewBox="0 0 19 19" fill="none" xmlns="http://www.w3.org/2000/svg">
<rect x="0.585693" y="0.571411" width="18.0571" height="18.0571" rx="9.02857" fill="#FFE4E8"/>
<path d="M5.38208 8.33945C5.38208 6.06607 7.286 4.23938 9.61422 4.23938C11.9424 4.23938 13.8464 6.06607 13.8464 8.33945C13.8464 9.66776 13.2972 10.8662 12.2692 11.622C12.1983 11.6742 12.1553 11.7389 12.1404 11.8024C12.1101 11.931 12.0768 12.0783 12.0426 12.2363C12.0257 12.3145 11.9567 12.3705 11.8767 12.3705H7.35174C7.27176 12.3705 7.20274 12.3145 7.18582 12.2363C7.15161 12.0783 7.11836 11.931 7.08806 11.8024C7.0731 11.7389 7.03016 11.6742 6.9592 11.622C5.9312 10.8662 5.38208 9.66776 5.38208 8.33945Z" fill="#F63D68"/>
<path d="M7.5831 13.2169C7.47765 13.2169 7.39794 13.3123 7.41549 13.4163C7.4685 13.7304 7.5072 14.0108 7.51893 14.2046C7.55447 14.7922 7.98723 15.2761 8.56591 15.4011L8.6765 15.425C9.29406 15.5584 9.93439 15.5584 10.5519 15.425L10.6625 15.4011C11.2412 15.2761 11.674 14.7922 11.7095 14.2046C11.7212 14.0108 11.7599 13.7304 11.813 13.4163C11.8305 13.3123 11.7508 13.2169 11.6453 13.2169H7.5831Z" fill="#F63D68"/>
</svg>
