<svg width="25" height="24" viewBox="0 0 25 24" fill="currentColor"
    xmlns="http://www.w3.org/2000/svg">
    <path fill-rule="evenodd" clip-rule="evenodd" d="M8.75 5C8.75 3.48122 9.98122 2.25 11.5 2.25H13.5C15.0188 2.25 16.25 3.48122 16.25 5V7C16.25 7.41421 15.9142 7.75 15.5 7.75H9.5C9.08579 7.75 8.75 7.41421 8.75 7V5ZM11.5 3.75C10.8096 3.75 10.25 4.30964 10.25 5V6.25H14.75V5C14.75 4.30964 14.1904 3.75 13.5 3.75H11.5Z" fill="currentColor"/>
    <path fill-rule="evenodd" clip-rule="evenodd" d="M6.98693 4.92877C7.11335 4.86816 7.25371 4.96463 7.25346 5.10483L7.25 7.00001C7.25 8.24265 8.25736 9.25001 9.5 9.25001H15.5C16.7426 9.25001 17.75 8.24265 17.75 7.00001V5.10426C17.75 4.96422 17.8903 4.868 18.0165 4.92855C19.2016 5.49669 20 6.70679 20 8.08546V18.5749C20 20.2857 18.7257 21.7285 17.028 21.9399C14.021 22.3144 10.979 22.3144 7.97197 21.9399C6.27431 21.7285 5 20.2857 5 18.5749V8.08545C5 6.70697 5.80161 5.49701 6.98693 4.92877ZM15.5 12C15.9142 12 16.25 12.3358 16.25 12.75C16.25 13.1642 15.9142 13.5 15.5 13.5H9.5C9.08579 13.5 8.75 13.1642 8.75 12.75C8.75 12.3358 9.08579 12 9.5 12H15.5ZM14.5 15C14.9142 15 15.25 15.3358 15.25 15.75C15.25 16.1642 14.9142 16.5 14.5 16.5H9.5C9.08579 16.5 8.75 16.1642 8.75 15.75C8.75 15.3358 9.08579 15 9.5 15H14.5Z" fill="currentColor"/>
</svg>
