<svg width="14" height="14" viewBox="0 0 14 14" fill="none" xmlns="http://www.w3.org/2000/svg">
<path fill-rule="evenodd" clip-rule="evenodd" d="M2.28955 7.02848C2.28955 4.37949 4.43698 2.23206 7.08598 2.23206C9.73497 2.23206 11.8824 4.37949 11.8824 7.02848C11.8824 9.67748 9.73497 11.8249 7.08598 11.8249C4.43698 11.8249 2.28955 9.67748 2.28955 7.02848ZM7.50919 4.20706C7.50919 3.97332 7.31971 3.78384 7.08598 3.78384C6.85224 3.78384 6.66276 3.97332 6.66276 4.20706V7.02848C6.66276 7.1744 6.73794 7.31003 6.86168 7.38737L8.55453 8.4454C8.75274 8.56928 9.01384 8.50903 9.13772 8.31082C9.2616 8.11262 9.20135 7.85151 9.00314 7.72763L7.50919 6.79392V4.20706Z" fill="#293056"/>
</svg>
