<svg width="32" height="32" viewBox="0 0 32 32" fill="none" xmlns="http://www.w3.org/2000/svg">
<rect width="32" height="32" rx="16" fill="#EDFCF2"/>
<path d="M11.3165 7.76876C14.404 7.42368 17.5954 7.42368 20.683 7.76876C21.8422 7.89832 22.8598 8.52519 23.5035 9.43559L15.4998 17.4393L13.0301 14.9697C12.7372 14.6768 12.2623 14.6768 11.9694 14.9697C11.6765 15.2626 11.6765 15.7374 11.9694 16.0303L14.9694 19.0303C15.2623 19.3232 15.7372 19.3232 16.0301 19.0303L24.1455 10.9149C24.168 11.0245 24.1859 11.1357 24.1991 11.2485C24.5683 14.4054 24.5683 17.5946 24.1991 20.7515C23.9843 22.5885 22.5094 24.0271 20.683 24.2313C17.5954 24.5763 14.404 24.5763 11.3165 24.2313C9.49011 24.0271 8.01521 22.5885 7.80036 20.7515C7.43113 17.5946 7.43113 14.4054 7.80036 11.2485C8.01521 9.41153 9.49011 7.97288 11.3165 7.76876Z" fill="#16B364"/>
</svg>
