<svg width="32" height="32" viewBox="0 0 32 32" fill="none" xmlns="http://www.w3.org/2000/svg">
<rect width="32" height="32" rx="16" fill="#F8F9FC"/>
<path d="M18.1661 7.18862C16.7369 6.89579 15.2632 6.89579 13.8341 7.18862C13.3903 7.27956 13.0485 7.63482 12.9749 8.08184L12.9206 8.41083C12.4744 11.1187 12.4744 13.8813 12.9206 16.5892L12.9749 16.9182C13.0485 17.3652 13.3903 17.7204 13.8341 17.8114C15.2632 18.1042 16.7369 18.1042 18.1661 17.8114C18.6099 17.7204 18.9517 17.3652 19.0253 16.9182L19.0795 16.5892C19.5258 13.8813 19.5258 11.1187 19.0795 8.41083L19.0253 8.08183C18.9517 7.63482 18.6099 7.27956 18.1661 7.18862Z" fill="#4E5BA6"/>
<path d="M8.89487 14.2574C9.30499 14.1993 9.68456 14.4847 9.74268 14.8948L10.1932 18.0741C10.3149 18.9331 10.9958 19.6047 11.8564 19.7146C14.6077 20.0661 17.3925 20.0661 20.1438 19.7146C21.0044 19.6047 21.6853 18.9331 21.807 18.0741L22.2575 14.8948C22.3156 14.4847 22.6952 14.1993 23.1053 14.2574C23.5154 14.3155 23.8008 14.6951 23.7427 15.1052L23.2922 18.2845C23.0757 19.8124 21.8645 21.007 20.3338 21.2025C19.1436 21.3546 17.9474 21.4437 16.7501 21.47V25.5C16.7501 25.9142 16.4143 26.25 16.0001 26.25C15.5859 26.25 15.2501 25.9142 15.2501 25.5V21.47C14.0528 21.4437 12.8566 21.3546 11.6664 21.2025C10.1357 21.007 8.92452 19.8124 8.70802 18.2845L8.25751 15.1052C8.1994 14.6951 8.48475 14.3155 8.89487 14.2574Z" fill="#4E5BA6"/>
</svg>
