<svg width="15" height="16" viewBox="0 0 15 16" fill="none" xmlns="http://www.w3.org/2000/svg">
<path fill-rule="evenodd" clip-rule="evenodd" d="M14.2641 6.48374C15.256 7.25122 15.256 8.74868 14.2641 9.51616C11.2666 11.8356 7.91937 13.6637 4.34784 14.9322L3.69536 15.1639C2.44709 15.6073 1.12858 14.7627 0.959588 13.4742C0.487429 9.87394 0.487429 6.12595 0.959589 2.52574C1.12858 1.23719 2.44709 0.392631 3.69536 0.835971L4.34784 1.06771C7.91938 2.33619 11.2666 4.16434 14.2641 6.48374ZM13.3462 8.32982C13.562 8.16285 13.562 7.83705 13.3462 7.67007C10.4744 5.44796 7.26755 3.69648 3.84582 2.4812L3.19334 2.24947C2.86839 2.13406 2.49495 2.35401 2.44685 2.72079C1.99167 6.19152 1.99167 9.80837 2.44685 13.2791C2.49495 13.6459 2.86839 13.8658 3.19334 13.7504L3.84581 13.5187C7.26755 12.3034 10.4744 10.5519 13.3462 8.32982Z" fill="#F63D68"/>
</svg>
