<svg width="40" height="40" viewBox="0 0 40 40" fill="none" xmlns="http://www.w3.org/2000/svg">
<rect width="40" height="40" rx="20" fill="#FFF1F3"/>
<path d="M23.4782 10.461C23.3474 9.41488 22.1115 8.92718 21.3016 9.60213L14.6094 15.1789C14.4896 15.2788 14.3386 15.3334 14.1826 15.3334H8.9987C8.07822 15.3334 7.33203 16.0796 7.33203 17.0001V23.0001C7.33203 23.9206 8.07822 24.6668 8.9987 24.6668H14.1826C14.3386 24.6668 14.4896 24.7214 14.6094 24.8213L21.3016 30.3981C22.1115 31.073 23.3474 30.5853 23.4782 29.5391L23.6059 28.5172C24.3129 22.8611 24.3129 17.1391 23.6059 11.483L23.4782 10.461Z" fill="#F63D68"/>
<path d="M30.5429 11.9278C31.0673 11.7544 31.6329 12.0389 31.8063 12.5632C32.5803 14.9032 32.9987 17.4038 32.9987 20.0001C32.9987 22.5965 32.5803 25.0971 31.8063 27.437C31.6329 27.9614 31.0673 28.2458 30.5429 28.0724C30.0186 27.899 29.7341 27.3333 29.9075 26.809C30.6152 24.6691 30.9987 22.3804 30.9987 20.0001C30.9987 17.6198 30.6152 15.3311 29.9075 13.1912C29.7341 12.6669 30.0186 12.1012 30.5429 11.9278Z" fill="#F63D68"/>
<path d="M28.0417 14.597C27.8513 14.0786 27.2766 13.8128 26.7582 14.0033C26.2398 14.1937 25.974 14.7684 26.1644 15.2868C26.7038 16.7547 26.9987 18.3418 26.9987 20.0001C26.9987 21.3756 26.7958 22.7019 26.419 23.9516C26.398 24.0213 26.3765 24.0907 26.3544 24.1598C26.2949 24.3461 26.2316 24.5307 26.1644 24.7134C25.974 25.2318 26.2398 25.8065 26.7582 25.997C27.2766 26.1874 27.8513 25.9216 28.0417 25.4032C28.1188 25.1935 28.1915 24.9817 28.2597 24.7679C28.285 24.6885 28.3098 24.6089 28.3338 24.529C28.7665 23.094 28.9987 21.5733 28.9987 20.0001C28.9987 18.103 28.6611 16.2826 28.0417 14.597Z" fill="#F63D68"/>
</svg>
