<svg width="50" height="50" viewBox="0 0 50 50" fill="none" xmlns="http://www.w3.org/2000/svg">
<rect x="0.5" y="0.5" width="49" height="49" rx="6.5" fill="#F63D68"/>
<rect x="0.5" y="0.5" width="49" height="49" rx="6.5" stroke="#F63D68"/>
<path d="M27.1661 16.1886C25.7369 15.8958 24.2632 15.8958 22.8341 16.1886C22.3903 16.2796 22.0485 16.6348 21.9749 17.0818L21.9206 17.4108C21.4744 20.1187 21.4744 22.8813 21.9206 25.5892L21.9749 25.9182C22.0485 26.3652 22.3903 26.7204 22.8341 26.8114C24.2632 27.1042 25.7369 27.1042 27.1661 26.8114C27.6099 26.7204 27.9517 26.3652 28.0253 25.9182L28.0795 25.5892C28.5258 22.8813 28.5258 20.1187 28.0795 17.4108L28.0253 17.0818C27.9517 16.6348 27.6099 16.2796 27.1661 16.1886Z" fill="white"/>
<path d="M17.8949 23.2574C18.305 23.1993 18.6846 23.4847 18.7427 23.8948L19.1932 27.0741C19.3149 27.9331 19.9958 28.6047 20.8564 28.7146C23.6077 29.0661 26.3925 29.0661 29.1438 28.7146C30.0044 28.6047 30.6853 27.9331 30.807 27.0741L31.2575 23.8948C31.3156 23.4847 31.6952 23.1993 32.1053 23.2574C32.5154 23.3155 32.8008 23.6951 32.7427 24.1052L32.2922 27.2845C32.0757 28.8124 30.8645 30.007 29.3338 30.2025C28.1436 30.3546 26.9474 30.4437 25.7501 30.47V34.5C25.7501 34.9142 25.4143 35.25 25.0001 35.25C24.5859 35.25 24.2501 34.9142 24.2501 34.5V30.47C23.0528 30.4437 21.8566 30.3546 20.6664 30.2025C19.1357 30.007 17.9245 28.8124 17.708 27.2845L17.2575 24.1052C17.1994 23.6951 17.4848 23.3155 17.8949 23.2574Z" fill="white"/>
<rect x="15" y="16.4142" width="2" height="25" transform="rotate(-45 15 16.4142)" fill="white"/>
</svg>
