<svg width="50" height="50" viewBox="0 0 50 50" fill="none" xmlns="http://www.w3.org/2000/svg">
<rect x="0.5" y="0.5" width="49" height="49" rx="6.5" fill="#F63D68"/>
<rect x="0.5" y="0.5" width="49" height="49" rx="6.5" stroke="#F63D68"/>
<path d="M25 17L22.91 19.09L25 21.18M17.27 16L16 17.27L20.73 22H16V28H20L25 33V26.27L29.25 30.53C28.58 31.04 27.83 31.46 27 31.7V33.77C28.38 33.45 29.63 32.82 30.68 31.96L32.73 34L34 32.73L25 23.73M32 25C32 25.94 31.8 26.82 31.46 27.64L32.97 29.15C33.6455 27.8709 33.999 26.4465 34 25C34 20.72 31 17.14 27 16.23V18.29C29.89 19.15 32 21.83 32 25ZM29.5 25C29.5 23.23 28.5 21.71 27 20.97V23.18L29.45 25.63C29.5 25.43 29.5 25.21 29.5 25Z" fill="white"/>
</svg>
