<svg width="50" height="50" viewBox="0 0 50 50" fill="none" xmlns="http://www.w3.org/2000/svg">
<rect x="0.5" y="0.5" width="49" height="49" rx="6.5" fill="#F63D68"/>
<rect x="0.5" y="0.5" width="49" height="49" rx="6.5" stroke="#F63D68"/>
<path d="M27.9997 17.2519C27.9997 16.1739 26.7257 15.6019 25.9198 16.3179L21.4269 20.3118C21.2897 20.434 21.1125 20.5016 20.9289 20.5018H17.2499C16.6532 20.5018 16.0809 20.7388 15.659 21.1608C15.237 21.5827 15 22.155 15 22.7517V27.2486C15 27.8454 15.237 28.4176 15.659 28.8396C16.0809 29.2615 16.6532 29.4986 17.2499 29.4986H20.9299C21.1135 29.4988 21.2907 29.5664 21.4279 29.6886L25.9188 33.6815C26.7247 34.3985 27.9997 33.8265 27.9997 32.7475V17.2519ZM29.2197 22.2217C29.3603 22.0813 29.5509 22.0024 29.7497 22.0024C29.9484 22.0024 30.139 22.0813 30.2797 22.2217L31.9996 23.9417L33.7196 22.2217C33.7882 22.1481 33.871 22.089 33.963 22.048C34.055 22.007 34.1543 21.9849 34.255 21.9832C34.3557 21.9814 34.4558 21.9999 34.5492 22.0376C34.6425 22.0753 34.7274 22.1315 34.7986 22.2027C34.8698 22.2739 34.926 22.3588 34.9637 22.4521C35.0014 22.5455 35.0199 22.6456 35.0181 22.7463C35.0164 22.847 34.9943 22.9463 34.9533 23.0383C34.9123 23.1303 34.8532 23.2131 34.7796 23.2817L33.0596 25.0017L34.7796 26.7216C34.8532 26.7903 34.9123 26.8731 34.9533 26.9651C34.9943 27.0571 35.0164 27.1564 35.0181 27.2571C35.0199 27.3578 35.0014 27.4578 34.9637 27.5512C34.926 27.6446 34.8698 27.7294 34.7986 27.8007C34.7274 27.8719 34.6425 27.928 34.5492 27.9657C34.4558 28.0035 34.3557 28.022 34.255 28.0202C34.1543 28.0184 34.055 27.9964 33.963 27.9554C33.871 27.9144 33.7882 27.8553 33.7196 27.7816L31.9996 26.0637L30.2797 27.7836C30.211 27.8573 30.1282 27.9164 30.0362 27.9574C29.9442 27.9984 29.8449 28.0204 29.7442 28.0222C29.6435 28.024 29.5435 28.0055 29.4501 27.9677C29.3567 27.93 29.2719 27.8739 29.2006 27.8027C29.1294 27.7314 29.0733 27.6466 29.0356 27.5532C28.9978 27.4598 28.9793 27.3598 28.9811 27.2591C28.9829 27.1584 29.0049 27.0591 29.0459 26.9671C29.0869 26.8751 29.146 26.7923 29.2197 26.7236L30.9396 25.0017L29.2197 23.2817C29.0792 23.1411 29.0003 22.9505 29.0003 22.7517C29.0003 22.553 29.0792 22.3624 29.2197 22.2217Z" fill="white"/>
</svg>
