<svg width="50" height="50" viewBox="0 0 50 50" fill="none" xmlns="http://www.w3.org/2000/svg">
<rect x="0.5" y="0.5" width="49" height="49" rx="6.5" fill="#F63D68"/>
<rect x="0.5" y="0.5" width="49" height="49" rx="6.5" stroke="#F63D68"/>
<path d="M27.6096 17.8457C27.5115 17.061 26.5846 16.6953 25.9771 17.2015L20.958 21.3841C20.8682 21.4589 20.7549 21.5 20.6379 21.5H16.75C16.0596 21.5 15.5 22.0596 15.5 22.75V27.25C15.5 27.9403 16.0596 28.5 16.75 28.5H20.6379C20.7549 28.5 20.8682 28.541 20.958 28.6158L25.9771 32.7984C26.5846 33.3046 27.5115 32.9389 27.6096 32.1542L27.7054 31.3877C28.2357 27.1457 28.2357 22.8542 27.7054 18.6122L27.6096 17.8457Z" fill="white"/>
<path d="M32.9082 18.9457C33.3014 18.8157 33.7257 19.029 33.8557 19.4223C34.4362 21.1772 34.75 23.0527 34.75 25C34.75 26.9472 34.4362 28.8227 33.8557 30.5776C33.7257 30.9709 33.3014 31.1843 32.9082 31.0542C32.5149 30.9241 32.3015 30.4999 32.4316 30.1066C32.9624 28.5017 33.25 26.7852 33.25 25C33.25 23.2148 32.9624 21.4982 32.4316 19.8933C32.3015 19.5 32.5149 19.0758 32.9082 18.9457Z" fill="white"/>
<path d="M31.0323 20.9477C30.8894 20.5589 30.4584 20.3595 30.0696 20.5023C29.6808 20.6452 29.4815 21.0762 29.6243 21.465C30.0288 22.5659 30.25 23.7563 30.25 25C30.25 26.0316 30.0978 27.0263 29.8152 27.9636C29.7995 28.0158 29.7833 28.0679 29.7668 28.1198C29.7222 28.2595 29.6747 28.3979 29.6243 28.535C29.4815 28.9238 29.6808 29.3547 30.0696 29.4976C30.4584 29.6404 30.8894 29.4411 31.0323 29.0523C31.0901 28.895 31.1446 28.7362 31.1958 28.5758C31.2148 28.5163 31.2333 28.4565 31.2514 28.3966C31.5758 27.3204 31.75 26.1798 31.75 25C31.75 23.5772 31.4968 22.2118 31.0323 20.9477Z" fill="white"/>
</svg>
