<svg width="32" height="32" viewBox="0 0 32 32" fill="none" xmlns="http://www.w3.org/2000/svg">
<path d="M15.9987 9.33334C21.8898 9.33334 26.6654 14.1089 26.6654 20C26.6654 25.8911 21.8898 30.6666 15.9987 30.6666C10.1077 30.6666 5.33203 25.8911 5.33203 20C5.33203 14.1089 10.1077 9.33334 15.9987 9.33334ZM15.9987 14L14.2354 17.5729L10.2924 18.1459L13.1455 20.927L12.472 24.8541L15.9987 23L19.5254 24.8541L18.8519 20.927L21.7051 18.1459L17.762 17.5729L15.9987 14ZM17.332 2.66534L23.9987 2.66668V6.66668L22.1808 8.18342C20.706 7.41029 19.0687 6.90514 17.3335 6.73266L17.332 2.66534ZM14.6654 2.66534L14.665 6.73256C12.9299 6.90486 11.2926 7.40982 9.81791 8.18273L7.9987 6.66668V2.66668L14.6654 2.66534Z" fill="#F63D68"/>
</svg>
