<svg width="42" height="42" viewBox="0 0 42 42" fill="none" xmlns="http://www.w3.org/2000/svg">
<rect x="0.5" y="0.5" width="41" height="41" rx="2.5" fill="white"/>
<rect x="0.5" y="0.5" width="41" height="41" rx="2.5" stroke="#F63D68"/>
<path d="M22.4697 17.5303C22.1768 17.2374 22.1768 16.7626 22.4697 16.4697C22.7626 16.1768 23.2374 16.1768 23.5303 16.4697L27.5303 20.4697C27.8232 20.7626 27.8232 21.2374 27.5303 21.5303L23.5303 25.5303C23.2374 25.8232 22.7626 25.8232 22.4697 25.5303C22.1768 25.2374 22.1768 24.7626 22.4697 24.4697L25.1893 21.75H15.5C15.0858 21.75 14.75 21.4142 14.75 21C14.75 20.5858 15.0858 20.25 15.5 20.25H25.1893L22.4697 17.5303Z" fill="#F63D68"/>
</svg>
