<svg width="14" height="14" viewBox="0 0 14 14" fill="none" xmlns="http://www.w3.org/2000/svg">
<path d="M6.32046 5.43336C6.47712 5.2767 6.47712 5.0227 6.32046 4.86603C6.16379 4.70937 5.90979 4.70937 5.75313 4.86603L3.61359 7.00557C3.53526 7.0839 3.49609 7.18657 3.49609 7.28923C3.49609 7.34363 3.50692 7.39549 3.52653 7.44279C3.54611 7.49011 3.57513 7.53444 3.61359 7.5729L5.75313 9.71243C5.90979 9.8691 6.16379 9.8691 6.32046 9.71243C6.47712 9.55577 6.47712 9.30177 6.32046 9.1451L4.86575 7.6904H10.0484C10.27 7.6904 10.4496 7.51079 10.4496 7.28923C10.4496 7.06768 10.27 6.88807 10.0484 6.88807H4.86575L6.32046 5.43336Z" fill="#293056"/>
</svg>
