<svg width="50" height="50" viewBox="0 0 50 50" fill="none" xmlns="http://www.w3.org/2000/svg">
<rect x="0.5" y="0.5" width="49" height="49" rx="6.5" fill="#F63D68"/>
<rect x="0.5" y="0.5" width="49" height="49" rx="6.5" stroke="#F63D68"/>
<path d="M27.1661 16.1884C25.7369 15.8955 24.2632 15.8955 22.8341 16.1884C22.3903 16.2793 22.0485 16.6346 21.9749 17.0816L21.9206 17.4106C21.4744 20.1184 21.4744 22.8811 21.9206 25.5889L21.9749 25.9179C22.0485 26.3649 22.3903 26.7202 22.8341 26.8111C24.2632 27.104 25.7369 27.104 27.1661 26.8111C27.6099 26.7202 27.9517 26.3649 28.0253 25.9179L28.0795 25.5889C28.5258 22.8811 28.5258 20.1184 28.0795 17.4106L28.0253 17.0816C27.9517 16.6346 27.6099 16.2793 27.1661 16.1884Z" fill="white"/>
<path d="M17.8949 23.2572C18.305 23.1991 18.6846 23.4844 18.7427 23.8945L19.1932 27.0738C19.3149 27.9328 19.9958 28.6045 20.8564 28.7144C23.6077 29.0658 26.3925 29.0658 29.1438 28.7144C30.0044 28.6045 30.6853 27.9328 30.807 27.0738L31.2575 23.8945C31.3156 23.4844 31.6952 23.1991 32.1053 23.2572C32.5154 23.3153 32.8008 23.6949 32.7427 24.105L32.2922 27.2843C32.0757 28.8122 30.8645 30.0068 29.3338 30.2023C28.1436 30.3543 26.9474 30.4435 25.7501 30.4697V34.4998C25.7501 34.914 25.4143 35.2498 25.0001 35.2498C24.5859 35.2498 24.2501 34.914 24.2501 34.4998V30.4697C23.0528 30.4435 21.8566 30.3543 20.6664 30.2023C19.1357 30.0068 17.9245 28.8122 17.708 27.2843L17.2575 24.105C17.1994 23.6949 17.4848 23.3153 17.8949 23.2572Z" fill="white"/>
</svg>
