<svg width="25" height="24" viewBox="0 0 25 24" fill="none" xmlns="http://www.w3.org/2000/svg">
<path fill-rule="evenodd" clip-rule="evenodd" d="M12.1023 18.6362C12.2302 18.7129 12.3671 18.7469 12.5 18.7453C12.6329 18.7469 12.7698 18.7129 12.8977 18.6362L14.033 17.955C16.2595 16.6191 18.9825 16.4009 21.3933 17.3652C22.2826 17.721 23.25 17.066 23.25 16.1082V4.4493C23.25 3.87135 22.8981 3.35163 22.3615 3.13699C19.2564 1.89495 15.7492 2.17597 12.8815 3.89659L12.5 4.12551L12.1185 3.89659C9.25077 2.17597 5.74357 1.89495 2.63848 3.13699C2.10187 3.35163 1.75 3.87135 1.75 4.4493V16.1082C1.75 17.066 2.71739 17.721 3.60672 17.3652C6.01752 16.4009 8.74052 16.6191 10.967 17.955L12.1023 18.6362ZM3.25 4.50813V15.8949C6.04579 14.8469 9.17179 15.1286 11.7388 16.6688L11.75 16.6755V5.4248L11.3467 5.18283C8.89774 3.71344 5.90634 3.4651 3.25 4.50813ZM13.2612 16.6688L13.25 16.6755V5.4248L13.6533 5.18283C16.1023 3.71344 19.0937 3.4651 21.75 4.50813V15.8949C18.9542 14.8469 15.8282 15.1286 13.2612 16.6688Z" fill="#F63D68"/>
<path d="M9.77516 19.0424C7.7513 17.8618 5.2487 17.8618 3.22484 19.0424L3.1221 19.1023C2.76431 19.311 2.64346 19.7703 2.85217 20.1281C3.06088 20.4858 3.52011 20.6067 3.8779 20.398L3.98065 20.3381C5.53746 19.4299 7.46254 19.4299 9.01935 20.3381L10.1066 20.9723C11.5856 21.835 13.4144 21.835 14.8934 20.9723L15.9806 20.3381C17.5375 19.4299 19.4625 19.4299 21.0194 20.3381L21.1221 20.398C21.4799 20.6067 21.9391 20.4858 22.1478 20.1281C22.3565 19.7703 22.2357 19.311 21.8779 19.1023L21.7752 19.0424C19.7513 17.8618 17.2487 17.8618 15.2248 19.0424L14.1376 19.6766C13.1257 20.2669 11.8743 20.2669 10.8624 19.6766L9.77516 19.0424Z" fill="#F63D68"/>
</svg>
