<svg width="20" height="21" viewBox="0 0 20 21" fill="none" xmlns="http://www.w3.org/2000/svg">
<g clip-path="url(#clip0_3415_138684)">
<path d="M0.00390625 10.7827C0.00390625 12.0061 0.223986 13.1781 0.626014 14.2616L10.0058 15.1313L19.3855 14.2616C19.7875 13.1781 20.0076 12.0061 20.0076 10.7827C20.0076 9.55927 19.7875 8.38733 19.3855 7.30381L10.0058 6.43408L0.626014 7.30381C0.223986 8.38733 0.00390625 9.55927 0.00390625 10.7827Z" fill="#FFDA44"/>
<path d="M19.3884 7.30422C17.9752 3.49554 14.3091 0.78125 10.0087 0.78125C5.70821 0.78125 2.0421 3.49554 0.628906 7.30422H19.3884Z" fill="#D80027"/>
<path d="M0.628906 14.2622C2.0421 18.0709 5.70821 20.7852 10.0087 20.7852C14.3091 20.7852 17.9752 18.0709 19.3884 14.2622H0.628906Z" fill="#D80027"/>
</g>
<defs>
<clipPath id="clip0_3415_138684">
<rect width="20.0037" height="20.0037" fill="white" transform="translate(0.00390625 0.78125)"/>
</clipPath>
</defs>
</svg>
