<svg width="38" height="38" viewBox="0 0 38 38" fill="none" xmlns="http://www.w3.org/2000/svg">
<rect x="0.5" y="0.5" width="37" height="37" rx="4.5" stroke="#F63D68"/>
<path fill-rule="evenodd" clip-rule="evenodd" d="M13.1456 8.71072C17.0051 8.27937 20.9943 8.27937 24.8537 8.71072C27.1367 8.96588 28.9803 10.7642 29.2489 13.0604C29.7104 17.0065 29.7104 20.993 29.2489 24.9392C28.9803 27.2354 27.1367 29.0337 24.8537 29.2888C20.9943 29.7202 17.0051 29.7202 13.1456 29.2888C10.8626 29.0337 9.01901 27.2354 8.75045 24.9392C8.28891 20.993 8.28891 17.0065 8.75045 13.0604C9.01901 10.7642 10.8626 8.96588 13.1456 8.71072ZM20.2497 13.9998C20.2497 14.6901 19.6901 15.2498 18.9997 15.2498C18.3093 15.2498 17.7497 14.6901 17.7497 13.9998C17.7497 13.3094 18.3093 12.7498 18.9997 12.7498C19.6901 12.7498 20.2497 13.3094 20.2497 13.9998ZM18.9997 17.4373C19.5175 17.4373 19.9372 17.857 19.9372 18.3748V24.6248C19.9372 25.1425 19.5175 25.5623 18.9997 25.5623C18.4819 25.5623 18.0622 25.1425 18.0622 24.6248V18.3748C18.0622 17.857 18.4819 17.4373 18.9997 17.4373Z" fill="white"/>
</svg>
