<svg width="50" height="50" viewBox="0 0 50 50" fill="none" xmlns="http://www.w3.org/2000/svg">
<rect x="0.5" y="0.5" width="49" height="49" rx="6.5" fill="white"/>
<rect x="0.5" y="0.5" width="49" height="49" rx="6.5" stroke="#F63D68"/>
<path fill-rule="evenodd" clip-rule="evenodd" d="M27.25 15.5C27.25 15.3619 27.1381 15.25 27 15.25H20C18.4812 15.25 17.25 16.4812 17.25 18V32C17.25 33.5188 18.4812 34.75 20 34.75H30C31.5188 34.75 32.75 33.5188 32.75 32V22.1471C32.75 22.009 32.6381 21.8971 32.5 21.8971H28C27.5858 21.8971 27.25 21.5613 27.25 21.1471V15.5ZM28 25.25C28.4142 25.25 28.75 25.5858 28.75 26C28.75 26.4142 28.4142 26.75 28 26.75H22C21.5858 26.75 21.25 26.4142 21.25 26C21.25 25.5858 21.5858 25.25 22 25.25H28ZM28 29.25C28.4142 29.25 28.75 29.5858 28.75 30C28.75 30.4142 28.4142 30.75 28 30.75H22C21.5858 30.75 21.25 30.4142 21.25 30C21.25 29.5858 21.5858 29.25 22 29.25H28Z" fill="#F63D68"/>
<path d="M28.75 15.8241C28.75 15.6396 28.9426 15.5225 29.0862 15.6384C29.2071 15.736 29.3158 15.8504 29.4085 15.9795L32.4217 20.1774C32.4903 20.273 32.416 20.3971 32.2983 20.3971H29C28.8619 20.3971 28.75 20.2851 28.75 20.1471V15.8241Z" fill="#F63D68"/>
</svg>
