<svg width="20" height="21" viewBox="0 0 20 21" fill="none" xmlns="http://www.w3.org/2000/svg">
<g clip-path="url(#clip0_3415_138668)">
<path d="M10.0058 20.2718C15.5296 20.2718 20.0076 15.7938 20.0076 10.2699C20.0076 4.74605 15.5296 0.268066 10.0058 0.268066C4.48189 0.268066 0.00390625 4.74605 0.00390625 10.2699C0.00390625 15.7938 4.48189 20.2718 10.0058 20.2718Z" fill="#F0F0F0"/>
<path d="M20.0073 10.2699C20.0073 5.96944 17.2931 2.30333 13.4844 0.890137V19.6497C17.2931 18.2364 20.0073 14.5703 20.0073 10.2699Z" fill="#D80027"/>
<path d="M0.00390625 10.2704C0.00390625 14.5708 2.7182 18.2369 6.52688 19.6501V0.890625C2.7182 2.30382 0.00390625 5.96993 0.00390625 10.2704Z" fill="#0052B4"/>
</g>
<defs>
<clipPath id="clip0_3415_138668">
<rect width="20.0037" height="20.0037" fill="white" transform="translate(0.00390625 0.268066)"/>
</clipPath>
</defs>
</svg>
