<svg width="64" height="64" viewBox="0 0 64 64" fill="none" xmlns="http://www.w3.org/2000/svg">
<rect x="1" y="1" width="62" height="62" rx="31" stroke="#F63D68" stroke-width="2"/>
<path d="M32.0013 21C29.2399 21 27.0013 23.2386 27.0013 26C27.0013 28.7614 29.2399 31 32.0013 31C34.7627 31 37.0013 28.7614 37.0013 26C37.0013 23.2386 34.7627 21 32.0013 21Z" fill="#F63D68"/>
<path d="M26.668 33.6667C23.9065 33.6667 21.668 35.9052 21.668 38.6667V40.251C21.668 41.2554 22.3958 42.1117 23.387 42.2735C29.0921 43.2049 34.9105 43.2049 40.6156 42.2735C41.6068 42.1117 42.3346 41.2554 42.3346 40.251V38.6667C42.3346 35.9052 40.0961 33.6667 37.3346 33.6667H36.8801C36.6342 33.6667 36.3897 33.7056 36.1559 33.7819L35.0019 34.1587C33.0521 34.7954 30.9505 34.7954 29.0008 34.1587L27.8467 33.7819C27.6129 33.7056 27.3685 33.6667 27.1225 33.6667H26.668Z" fill="#F63D68"/>
</svg>
