<svg width="24" height="24" viewBox="0 0 24 24" fill="none" xmlns="http://www.w3.org/2000/svg">
<path d="M14.6031 2.76065C13.0625 2.5853 11.507 2.5853 9.96642 2.76065L8.3711 2.94223C8.13512 2.96909 7.95059 3.15825 7.9296 3.39483L7.80697 4.7766C7.6008 7.09983 7.6008 9.43675 7.80697 11.76L7.9296 13.1418C7.9525 13.3998 8.16863 13.5976 8.42764 13.5976H10.4991V21C10.4991 21.2124 10.6333 21.4016 10.8338 21.4719C11.0342 21.5421 11.2572 21.478 11.3898 21.312L11.7804 20.8229C14.1099 17.9064 15.9647 14.6408 17.2767 11.1464L17.4672 10.6392C17.5248 10.4856 17.5035 10.3135 17.4101 10.1787C17.3167 10.0439 17.1631 9.96341 16.9991 9.96341H14.286L16.6115 3.6109C16.6642 3.46693 16.6479 3.30673 16.5673 3.17629C16.4868 3.04584 16.3508 2.95957 16.1985 2.94223L14.6031 2.76065Z" fill="white"/>
</svg>
