<svg width="104" height="48" viewBox="0 0 104 48" fill="none" xmlns="http://www.w3.org/2000/svg">
<path d="M14.9131 41.8125H15.3571L17.3017 46.4334H16.8202L16.3169 45.2047H13.8689L13.3467 46.4334H12.8965L14.9131 41.8125ZM15.1163 42.2815L14.0408 44.8139H16.1637L15.1194 42.2815H15.1163Z" fill="white"/>
<path d="M17.967 41.8125H18.3985V46.4334H17.967V41.8125Z" fill="white"/>
<path d="M21.3633 41.8125H22.6952C22.8546 41.8125 23.0234 41.8313 23.2017 41.8688C23.3767 41.9063 23.5393 41.9688 23.6831 42.0626C23.83 42.1533 23.9489 42.2783 24.0427 42.4378C24.1364 42.5972 24.1834 42.7942 24.1834 43.035C24.1834 43.2444 24.1459 43.4258 24.0677 43.5758C23.9927 43.729 23.8894 43.8541 23.7613 43.951C23.6331 44.0479 23.4862 44.123 23.3173 44.1699C23.1485 44.2168 22.9734 44.2418 22.7921 44.2418H21.7947V46.4366H21.3633V41.8156V41.8125ZM21.7947 43.8478H22.7733C22.8953 43.8478 23.0141 43.8353 23.1329 43.8072C23.2517 43.7791 23.3549 43.7322 23.4455 43.6696C23.5362 43.6071 23.6112 43.5227 23.6675 43.4195C23.7238 43.3163 23.7519 43.1882 23.7519 43.035C23.7519 42.8818 23.7238 42.7598 23.6644 42.6566C23.605 42.5535 23.5299 42.4659 23.4361 42.4003C23.3423 42.3315 23.236 42.2846 23.1141 42.2533C22.9922 42.2221 22.8702 42.2064 22.7483 42.2064H21.7947V43.851V43.8478Z" fill="white"/>
<path d="M24.8303 44.9266C24.8303 44.6953 24.8678 44.4827 24.9491 44.2888C25.0273 44.095 25.1367 43.9262 25.2743 43.7855C25.415 43.6448 25.5807 43.5353 25.7777 43.4572C25.9746 43.379 26.1872 43.3384 26.4186 43.3384C26.6499 43.3384 26.8625 43.3759 27.0564 43.4572C27.2502 43.5353 27.419 43.6448 27.5597 43.7855C27.7004 43.9262 27.8099 44.095 27.888 44.2888C27.9662 44.4827 28.0068 44.6953 28.0068 44.9266C28.0068 45.158 27.9662 45.3706 27.888 45.5644C27.8099 45.7583 27.7004 45.924 27.5597 46.0678C27.419 46.2085 27.2502 46.3179 27.0564 46.3961C26.8625 46.4742 26.6499 46.5149 26.4186 46.5149C26.1872 46.5149 25.9746 46.4774 25.7777 46.3961C25.5807 46.3179 25.415 46.2085 25.2743 46.0678C25.1336 45.9271 25.0273 45.7583 24.9491 45.5644C24.871 45.3706 24.8303 45.158 24.8303 44.9266ZM25.2211 44.9266C25.2211 45.0955 25.2493 45.2549 25.3024 45.4081C25.3556 45.5582 25.4369 45.6895 25.54 45.7989C25.6432 45.9115 25.7714 45.999 25.9183 46.0647C26.0653 46.1303 26.231 46.1616 26.4155 46.1616C26.5999 46.1616 26.7625 46.1272 26.9126 46.0647C27.0595 45.999 27.1877 45.9115 27.2909 45.7989C27.394 45.6895 27.4753 45.5582 27.5285 45.4081C27.5816 45.258 27.6098 45.0986 27.6098 44.9266C27.6098 44.7547 27.5816 44.5983 27.5285 44.4483C27.4753 44.2982 27.394 44.1669 27.2909 44.0575C27.1877 43.948 27.0595 43.8574 26.9126 43.7917C26.7656 43.7261 26.5999 43.6948 26.4155 43.6948C26.231 43.6948 26.0684 43.7261 25.9183 43.7917C25.7683 43.8574 25.6432 43.9449 25.54 44.0575C25.4369 44.17 25.3556 44.2982 25.3024 44.4483C25.2493 44.5983 25.2211 44.7578 25.2211 44.9266Z" fill="white"/>
<path d="M28.4504 43.4189H28.8819L29.6135 45.9451H29.626L30.467 43.4189H30.8391L31.7332 45.9451H31.7458L32.4586 43.4189H32.8494L31.9615 46.436H31.5582L30.6578 43.9692H30.6452L29.8042 46.436H29.4009L28.4536 43.4189H28.4504Z" fill="white"/>
<path d="M36.1354 45.8675C35.9822 46.0989 35.7946 46.2646 35.5695 46.3646C35.3444 46.4647 35.0974 46.5147 34.8285 46.5147C34.5971 46.5147 34.3877 46.4772 34.2032 46.3959C34.0156 46.3177 33.8562 46.2083 33.7218 46.0676C33.5873 45.9269 33.4841 45.7581 33.4122 45.5642C33.3403 45.3704 33.3059 45.1547 33.3059 44.9202C33.3059 44.6857 33.3434 44.4856 33.4153 44.2918C33.4904 44.101 33.5935 43.9353 33.728 43.7915C33.8624 43.6508 34.0219 43.5383 34.2032 43.4601C34.3845 43.382 34.5878 43.3413 34.8098 43.3413C35.0317 43.3413 35.2443 43.382 35.4194 43.4601C35.5945 43.5414 35.7446 43.6477 35.8634 43.779C35.9822 43.9135 36.0729 44.0635 36.1354 44.2324C36.1948 44.4012 36.2261 44.5731 36.2261 44.7482V45.0234H33.6936C33.6936 45.1046 33.7092 45.2109 33.7436 45.3391C33.778 45.4673 33.8343 45.5924 33.9218 45.7143C34.0094 45.8362 34.1251 45.9394 34.272 46.027C34.419 46.1145 34.6065 46.1583 34.8379 46.1583C35.038 46.1583 35.2318 46.1114 35.4194 46.0144C35.607 45.9175 35.7508 45.7893 35.8509 45.6236L36.1385 45.8644L36.1354 45.8675ZM35.8353 44.6732C35.8353 44.5387 35.8071 44.4137 35.754 44.2949C35.7008 44.1761 35.6258 44.0729 35.532 43.9854C35.4382 43.8947 35.3288 43.8259 35.2006 43.7728C35.0724 43.7196 34.9348 43.6946 34.791 43.6946C34.5784 43.6946 34.4002 43.7384 34.2595 43.8259C34.1188 43.9135 34.0062 44.0135 33.9218 44.1261C33.8405 44.2386 33.7811 44.348 33.7468 44.4543C33.7124 44.5606 33.6936 44.6325 33.6936 44.6732H35.8353Z" fill="white"/>
<path d="M37.1016 44.2707C37.1016 44.2144 37.1016 44.1456 37.0953 44.0643C37.0891 43.983 37.0891 43.9017 37.086 43.8204C37.0828 43.7392 37.0797 43.661 37.0766 43.5891C37.0734 43.5172 37.0703 43.4609 37.0703 43.4234H37.4611C37.4642 43.5359 37.4674 43.6454 37.4705 43.7485C37.4736 43.8517 37.4767 43.9205 37.4861 43.9518C37.5862 43.7735 37.7143 43.6266 37.8707 43.514C38.027 43.4015 38.2177 43.3452 38.446 43.3452C38.4835 43.3452 38.5241 43.3452 38.5616 43.3546C38.5992 43.3608 38.6367 43.3671 38.6773 43.3765L38.6304 43.761C38.5773 43.7423 38.5273 43.736 38.4804 43.736C38.3115 43.736 38.1646 43.7642 38.0395 43.8173C37.9145 43.8705 37.8144 43.9455 37.7331 44.0424C37.6518 44.1393 37.5924 44.2519 37.5549 44.3801C37.5143 44.5083 37.4955 44.6458 37.4955 44.7959V46.4404H37.1047V44.2738L37.1016 44.2707Z" fill="white"/>
<path d="M41.8199 45.8675C41.6667 46.0989 41.4792 46.2646 41.254 46.3646C41.0289 46.4647 40.7819 46.5147 40.5131 46.5147C40.2817 46.5147 40.0722 46.4772 39.8878 46.3959C39.7002 46.3177 39.5407 46.2083 39.4063 46.0676C39.2718 45.9269 39.1687 45.7581 39.0968 45.5642C39.0249 45.3704 38.9905 45.1547 38.9905 44.9202C38.9905 44.6857 39.028 44.4856 39.0999 44.2918C39.1749 44.101 39.2781 43.9353 39.4125 43.7915C39.547 43.6508 39.7064 43.5383 39.8878 43.4601C40.0691 43.382 40.2723 43.3413 40.4943 43.3413C40.7163 43.3413 40.9289 43.382 41.104 43.4601C41.2791 43.5414 41.4291 43.6477 41.5479 43.779C41.6667 43.9135 41.7574 44.0635 41.8199 44.2324C41.8793 44.4012 41.9106 44.5731 41.9106 44.7482V45.0234H39.3782C39.3782 45.1046 39.3938 45.2109 39.4282 45.3391C39.4626 45.4673 39.5188 45.5924 39.6064 45.7143C39.6939 45.8362 39.8096 45.9394 39.9565 46.027C40.1035 46.1145 40.2911 46.1583 40.5225 46.1583C40.7226 46.1583 40.9164 46.1114 41.104 46.0144C41.2916 45.9175 41.4354 45.7893 41.5354 45.6236L41.823 45.8644L41.8199 45.8675ZM41.5198 44.6732C41.5198 44.5387 41.4916 44.4137 41.4385 44.2949C41.3853 44.1761 41.3103 44.0729 41.2165 43.9854C41.1227 43.8947 41.0133 43.8259 40.8851 43.7728C40.7569 43.7196 40.6194 43.6946 40.4756 43.6946C40.263 43.6946 40.0847 43.7384 39.944 43.8259C39.8033 43.9135 39.6908 44.0135 39.6064 44.1261C39.5251 44.2386 39.4657 44.348 39.4313 44.4543C39.3969 44.5606 39.3782 44.6325 39.3782 44.6732H41.5198Z" fill="white"/>
<path d="M45.4242 45.9081H45.4117C45.3492 46.0113 45.2741 46.102 45.1835 46.1801C45.0928 46.2552 44.9928 46.3208 44.8865 46.3709C44.7802 46.4209 44.6676 46.4584 44.5488 46.4803C44.43 46.5022 44.3174 46.5178 44.2018 46.5178C43.9704 46.5178 43.7578 46.4803 43.5609 46.399C43.3639 46.3208 43.1982 46.2114 43.0575 46.0707C42.9168 45.93 42.8105 45.7612 42.7323 45.5673C42.6542 45.3735 42.6135 45.1609 42.6135 44.9296C42.6135 44.6982 42.651 44.4856 42.7323 44.2917C42.8105 44.0979 42.9199 43.9291 43.0575 43.7884C43.1982 43.6477 43.3639 43.5383 43.5609 43.4601C43.7578 43.3819 43.9704 43.3413 44.2018 43.3413C44.3143 43.3413 44.43 43.3538 44.5488 43.3757C44.6676 43.4007 44.7771 43.4382 44.8865 43.4882C44.9959 43.5383 45.0928 43.6008 45.1835 43.679C45.2741 43.754 45.3523 43.8447 45.4117 43.951H45.4242V41.5029H45.815V46.4396H45.4242V45.9113V45.9081ZM45.4649 44.9296C45.4649 44.7607 45.4336 44.6013 45.368 44.4512C45.3023 44.3011 45.2147 44.1698 45.0991 44.0604C44.9834 43.951 44.8521 43.8603 44.702 43.7946C44.552 43.729 44.3831 43.6977 44.2049 43.6977C44.0267 43.6977 43.8579 43.729 43.7078 43.7946C43.5577 43.8603 43.4327 43.9478 43.3295 44.0604C43.2263 44.1729 43.145 44.3011 43.0919 44.4512C43.0387 44.6013 43.0106 44.7607 43.0106 44.9296C43.0106 45.0984 43.0387 45.2578 43.0919 45.411C43.145 45.5611 43.2263 45.6924 43.3295 45.8018C43.4327 45.9144 43.5608 46.0019 43.7078 46.0676C43.8547 46.1332 44.0204 46.1645 44.2049 46.1645C44.3894 46.1645 44.5488 46.1301 44.702 46.0676C44.8552 46.0051 44.9865 45.9144 45.0991 45.8018C45.2116 45.6924 45.3023 45.5611 45.368 45.411C45.4336 45.261 45.4649 45.1015 45.4649 44.9296Z" fill="white"/>
<path d="M48.5386 41.5H48.9294V46.4367H48.5386V41.5Z" fill="white"/>
<path d="M52.384 45.1711C52.384 45.318 52.384 45.4525 52.384 45.5681C52.384 45.6838 52.3902 45.7932 52.3934 45.8933C52.3965 45.9933 52.4027 46.0871 52.409 46.1747C52.4152 46.2622 52.4246 46.3498 52.4371 46.4373H52.0713C52.0463 46.2904 52.0338 46.1247 52.0338 45.9464H52.0213C51.9087 46.1434 51.7681 46.2872 51.5992 46.3779C51.4304 46.4686 51.2209 46.5155 50.9614 46.5155C50.8301 46.5155 50.7019 46.4998 50.5769 46.4654C50.4518 46.4311 50.3361 46.381 50.2361 46.3091C50.136 46.2372 50.0547 46.1434 49.9922 46.0309C49.9297 45.9183 49.8984 45.7807 49.8984 45.6182C49.8984 45.3868 49.9578 45.2055 50.0735 45.071C50.1923 44.9366 50.3361 44.8365 50.5081 44.7678C50.68 44.7021 50.8614 44.6583 51.0552 44.6365C51.2491 44.6177 51.421 44.6052 51.568 44.6052H52.0244V44.4238C52.0244 44.1644 51.9431 43.9768 51.7837 43.8642C51.6242 43.7517 51.421 43.6954 51.1772 43.6954C50.8301 43.6954 50.5237 43.8079 50.258 44.0362L50.0297 43.7673C50.1735 43.6266 50.3518 43.5234 50.5644 43.4515C50.777 43.3796 50.9833 43.3452 51.1772 43.3452C51.543 43.3452 51.8337 43.4296 52.0526 43.6016C52.2714 43.7735 52.3777 44.0518 52.3777 44.4332V45.1711H52.384ZM51.5992 44.9241C51.4335 44.9241 51.2741 44.9335 51.1209 44.9554C50.9677 44.9772 50.827 45.0148 50.7019 45.0679C50.5769 45.1211 50.48 45.1898 50.4049 45.2774C50.3299 45.3649 50.2924 45.4743 50.2924 45.6025C50.2924 45.6932 50.3142 45.7745 50.3549 45.8464C50.3955 45.9183 50.4487 45.9777 50.5143 46.0215C50.58 46.0652 50.6519 46.1028 50.7332 46.1247C50.8145 46.1497 50.8958 46.1622 50.9771 46.1622C51.1865 46.1622 51.3585 46.1309 51.4929 46.0715C51.6274 46.0121 51.7368 45.9308 51.815 45.8339C51.8963 45.737 51.9494 45.6244 51.9806 45.5025C52.0119 45.3774 52.0275 45.2524 52.0275 45.1273V44.9241H51.5961H51.5992Z" fill="white"/>
<path d="M53.4282 44.2707C53.4282 44.2144 53.4283 44.1456 53.422 44.0643C53.4158 43.983 53.4126 43.9017 53.4126 43.8204C53.4126 43.7392 53.4064 43.661 53.4032 43.5891C53.4001 43.5172 53.397 43.4609 53.397 43.4234H53.7878C53.7909 43.5359 53.7972 43.6454 53.7972 43.7485C53.7972 43.8517 53.8066 43.9205 53.8128 43.9518H53.8316C53.9097 43.786 54.041 43.6454 54.2224 43.5234C54.4037 43.4046 54.6194 43.3452 54.8602 43.3452C55.1009 43.3452 55.2885 43.3827 55.4354 43.4546C55.5824 43.5297 55.7012 43.6266 55.7856 43.7454C55.87 43.8642 55.9294 44.0018 55.9607 44.1612C55.992 44.3175 56.0107 44.4801 56.0107 44.6427V46.4373H55.6199V44.6615C55.6199 44.5395 55.6105 44.4207 55.5886 44.305C55.5668 44.1894 55.5292 44.0862 55.473 43.9955C55.4198 43.9049 55.3417 43.8298 55.2447 43.7767C55.1478 43.7235 55.0196 43.6954 54.8633 43.6954C54.7195 43.6954 54.585 43.7204 54.4569 43.7704C54.3287 43.8204 54.2161 43.8955 54.1255 43.9986C54.0348 44.1018 53.9566 44.23 53.9035 44.3832C53.8472 44.5364 53.8222 44.7177 53.8222 44.9272V46.4342H53.4314V44.2675L53.4282 44.2707Z" fill="white"/>
<path d="M60.0879 46.2399C60.0879 46.6151 60.0348 46.9153 59.9253 47.1466C59.8159 47.378 59.6815 47.5562 59.5158 47.6813C59.3532 47.8063 59.1781 47.8907 58.9905 47.9345C58.8029 47.9783 58.6341 48.0002 58.4809 48.0002C58.3277 48.0002 58.1808 47.9876 58.0338 47.9595C57.8869 47.9314 57.7493 47.8907 57.618 47.8344C57.4867 47.7782 57.3679 47.7125 57.2616 47.6344C57.1553 47.5562 57.0615 47.4655 56.9833 47.3655L57.2897 47.0778C57.4304 47.2748 57.6024 47.4186 57.8118 47.5093C58.0213 47.6 58.2433 47.6469 58.4778 47.6469C58.6779 47.6469 58.8467 47.6219 58.9843 47.5687C59.1218 47.5156 59.2344 47.4468 59.325 47.3624C59.4157 47.2779 59.4845 47.1841 59.5345 47.081C59.5845 46.9778 59.6221 46.8777 59.6471 46.7746C59.6721 46.6714 59.6846 46.5745 59.6908 46.4838C59.694 46.3931 59.6971 46.3181 59.6971 46.2618V45.8429H59.6846C59.572 46.0242 59.4188 46.168 59.225 46.2743C59.0312 46.3806 58.8029 46.4307 58.5434 46.4307C58.3214 46.4307 58.112 46.39 57.9181 46.3087C57.7243 46.2274 57.5524 46.118 57.4054 45.9773C57.2585 45.8366 57.1427 45.6709 57.0583 45.4833C56.9739 45.2957 56.9302 45.0957 56.9302 44.8831C56.9302 44.6705 56.9708 44.4704 57.0583 44.2828C57.1427 44.0952 57.2585 43.9326 57.4054 43.7919C57.5492 43.6512 57.7211 43.5418 57.9181 43.4605C58.1151 43.3761 58.3214 43.3354 58.5434 43.3354C58.806 43.3354 59.0312 43.3886 59.225 43.4918C59.4188 43.5949 59.572 43.7388 59.6846 43.9232H59.6971V43.4136H60.0879V46.2337V46.2399ZM59.7096 44.8893C59.7096 44.7236 59.6783 44.5673 59.6158 44.4235C59.5533 44.2765 59.4689 44.1515 59.3626 44.0452C59.2563 43.9389 59.1281 43.8544 58.9843 43.7919C58.8373 43.7294 58.6841 43.6981 58.5184 43.6981C58.3527 43.6981 58.1964 43.7294 58.0526 43.7919C57.9088 43.8544 57.7806 43.9389 57.6743 44.0452C57.568 44.1515 57.4835 44.2765 57.421 44.4235C57.3585 44.5704 57.3272 44.7236 57.3272 44.8893C57.3272 45.055 57.3585 45.2113 57.421 45.3552C57.4835 45.5021 57.568 45.6272 57.6743 45.7335C57.7806 45.8398 57.9056 45.9242 58.0526 45.9867C58.1995 46.0492 58.3527 46.0805 58.5184 46.0805C58.6841 46.0805 58.8404 46.0492 58.9843 45.9867C59.1281 45.9242 59.2563 45.8398 59.3626 45.7335C59.4689 45.6272 59.5533 45.499 59.6158 45.3552C59.6783 45.2113 59.7096 45.055 59.7096 44.8893Z" fill="white"/>
<path d="M63.5986 45.5858C63.5986 45.6421 63.5986 45.7108 63.6048 45.7921C63.608 45.8734 63.6111 45.9547 63.6142 46.036C63.6142 46.1173 63.6205 46.1955 63.6236 46.2674C63.6267 46.3393 63.6298 46.3955 63.6298 46.4331H63.239C63.2359 46.3205 63.2297 46.2111 63.2297 46.1079C63.2297 46.0047 63.2203 45.936 63.214 45.9047H63.1953C63.1171 46.0704 62.9858 46.2111 62.8044 46.333C62.62 46.4518 62.4074 46.5112 62.1635 46.5112C61.9197 46.5112 61.7352 46.4737 61.5852 46.3987C61.4351 46.3236 61.3163 46.2298 61.2319 46.1079C61.1474 45.986 61.088 45.8484 61.0599 45.6921C61.0286 45.5358 61.0161 45.3732 61.0161 45.2106V43.416H61.4069V45.1919C61.4069 45.3138 61.4194 45.4326 61.4382 45.5483C61.4601 45.6639 61.4976 45.7671 61.5539 45.8578C61.6101 45.9485 61.6852 46.0235 61.7821 46.0766C61.879 46.1298 62.0072 46.1579 62.1635 46.1579C62.3074 46.1579 62.4418 46.1329 62.57 46.0829C62.6981 46.0329 62.8107 45.9578 62.9014 45.8547C62.9952 45.7515 63.0702 45.6233 63.1234 45.4701C63.1765 45.3169 63.2046 45.1324 63.2046 44.9261V43.4191H63.5955V45.5858H63.5986Z" fill="white"/>
<path d="M67.0195 45.1711C67.0195 45.318 67.0195 45.4525 67.0195 45.5681C67.0195 45.6838 67.0257 45.7932 67.0289 45.8933C67.032 45.9933 67.0383 46.0871 67.0445 46.1747C67.0508 46.2622 67.0601 46.3498 67.0726 46.4373H66.7069C66.6818 46.2904 66.6693 46.1247 66.6693 45.9464H66.6568C66.5443 46.1434 66.4036 46.2872 66.2348 46.3779C66.0659 46.4686 65.8564 46.5155 65.5969 46.5155C65.4656 46.5155 65.3375 46.4998 65.2124 46.4654C65.0873 46.4311 64.9717 46.381 64.8716 46.3091C64.7716 46.2372 64.6903 46.1434 64.6277 46.0309C64.5652 45.9183 64.5339 45.7807 64.5339 45.6182C64.5339 45.3868 64.5934 45.2055 64.709 45.071C64.8278 44.9366 64.9717 44.8365 65.1436 44.7678C65.3156 44.7021 65.4969 44.6583 65.6908 44.6365C65.8846 44.6177 66.0565 44.6052 66.2035 44.6052H66.66V44.4238C66.66 44.1644 66.5787 43.9768 66.4192 43.8642C66.2598 43.7517 66.0565 43.6954 65.8127 43.6954C65.4656 43.6954 65.1561 43.8079 64.8904 44.0362L64.6621 43.7673C64.8059 43.6266 64.9841 43.5234 65.1967 43.4515C65.4093 43.3796 65.6157 43.3452 65.8096 43.3452C66.1754 43.3452 66.4661 43.4296 66.685 43.6016C66.9038 43.7735 67.0101 44.0518 67.0101 44.4332V45.1711H67.0195ZM66.2348 44.9241C66.0691 44.9241 65.9096 44.9335 65.7533 44.9554C65.5969 44.9772 65.4594 45.0148 65.3343 45.0679C65.2093 45.1211 65.1123 45.1898 65.0373 45.2774C64.9623 45.3649 64.9247 45.4743 64.9247 45.6025C64.9247 45.6932 64.9467 45.7745 64.9873 45.8464C65.0279 45.9183 65.0811 45.9777 65.1468 46.0215C65.2124 46.0652 65.2843 46.1028 65.3656 46.1247C65.4469 46.1497 65.5282 46.1622 65.6095 46.1622C65.8189 46.1622 65.9909 46.1309 66.1253 46.0715C66.2597 46.0121 66.3692 45.9308 66.4473 45.8339C66.5255 45.737 66.5849 45.6244 66.6131 45.5025C66.6443 45.3774 66.66 45.2524 66.66 45.1273V44.9241H66.2285H66.2348Z" fill="white"/>
<path d="M71.0927 46.2399C71.0927 46.6151 71.0396 46.9153 70.9302 47.1466C70.8208 47.378 70.6863 47.5562 70.5237 47.6813C70.3612 47.8063 70.1861 47.8907 69.9985 47.9345C69.8109 47.9783 69.6421 48.0002 69.4889 48.0002C69.3357 48.0002 69.1887 47.9876 69.0418 47.9595C68.8949 47.9314 68.7573 47.8907 68.626 47.8344C68.4946 47.7813 68.3759 47.7125 68.2696 47.6344C68.1633 47.5562 68.0695 47.4655 67.9913 47.3655L68.2977 47.0778C68.4384 47.2748 68.6104 47.4186 68.8198 47.5093C69.0293 47.6 69.2512 47.6469 69.4857 47.6469C69.6858 47.6469 69.8547 47.6219 69.9923 47.5687C70.1298 47.5156 70.2424 47.4468 70.333 47.3624C70.4237 47.2779 70.4925 47.1841 70.5425 47.081C70.5925 46.9778 70.6301 46.8777 70.6551 46.7746C70.6801 46.6714 70.6926 46.5745 70.6957 46.4838C70.6988 46.3931 70.7019 46.3181 70.7019 46.2618V45.8429H70.6895C70.5769 46.0242 70.4237 46.168 70.2298 46.2743C70.036 46.3806 69.8078 46.4307 69.5483 46.4307C69.3263 46.4307 69.1168 46.39 68.9199 46.3087C68.726 46.2274 68.5541 46.118 68.4071 45.9773C68.2602 45.8366 68.1476 45.6709 68.0601 45.4833C67.9757 45.2957 67.9319 45.0957 67.9319 44.8831C67.9319 44.6705 67.9757 44.4704 68.0601 44.2828C68.1445 44.0952 68.2602 43.9326 68.4071 43.7919C68.5541 43.6512 68.7229 43.5418 68.9199 43.4605C69.1168 43.3761 69.3232 43.3354 69.5483 43.3354C69.8078 43.3354 70.036 43.3886 70.2298 43.4918C70.4237 43.5949 70.5769 43.7388 70.6895 43.9232H70.7019V43.4136H71.0927V46.2337V46.2399ZM70.7145 44.8893C70.7145 44.7236 70.6832 44.5673 70.6206 44.4235C70.5581 44.2796 70.4737 44.1515 70.3674 44.0452C70.2611 43.9389 70.1361 43.8544 69.9891 43.7919C69.8422 43.7294 69.689 43.6981 69.5233 43.6981C69.3576 43.6981 69.2012 43.7294 69.0574 43.7919C68.9105 43.8544 68.7854 43.9389 68.6791 44.0452C68.5728 44.1515 68.4884 44.2765 68.4259 44.4235C68.3634 44.5704 68.3321 44.7236 68.3321 44.8893C68.3321 45.055 68.3634 45.2113 68.4259 45.3552C68.4884 45.5021 68.5728 45.6272 68.6791 45.7335C68.7854 45.8398 68.9105 45.9242 69.0574 45.9867C69.2012 46.0492 69.3576 46.0805 69.5233 46.0805C69.689 46.0805 69.8453 46.0492 69.9891 45.9867C70.1361 45.9242 70.2611 45.8398 70.3674 45.7335C70.4737 45.6272 70.5581 45.499 70.6206 45.3552C70.6832 45.2113 70.7145 45.055 70.7145 44.8893Z" fill="white"/>
<path d="M74.7169 45.8675C74.5637 46.0989 74.3761 46.2646 74.151 46.3646C73.9259 46.4647 73.6789 46.5147 73.41 46.5147C73.1786 46.5147 72.9692 46.4772 72.7816 46.3959C72.594 46.3177 72.4345 46.2083 72.3001 46.0676C72.1656 45.9269 72.0625 45.7581 71.9906 45.5642C71.9187 45.3704 71.8843 45.1547 71.8843 44.9202C71.8843 44.6857 71.9218 44.4856 71.9968 44.2918C72.0719 44.101 72.175 43.9353 72.3095 43.7915C72.4439 43.6508 72.6034 43.5383 72.7847 43.4601C72.9692 43.3788 73.1693 43.3413 73.3913 43.3413C73.6132 43.3413 73.8258 43.382 74.0009 43.4601C74.176 43.5383 74.3261 43.6477 74.4449 43.779C74.5637 43.9135 74.6544 44.0635 74.7169 44.2324C74.7763 44.4012 74.8075 44.5731 74.8075 44.7482V45.0234H72.2751C72.2751 45.1046 72.2907 45.2109 72.3251 45.3391C72.3564 45.4673 72.4158 45.5924 72.5033 45.7143C72.5909 45.8362 72.7065 45.9394 72.8535 46.027C72.9973 46.1145 73.188 46.1583 73.4163 46.1583C73.6164 46.1583 73.8102 46.1114 73.9978 46.0144C74.1854 45.9175 74.3292 45.7893 74.4292 45.6236L74.7169 45.8644V45.8675ZM74.4167 44.6732C74.4167 44.5387 74.3886 44.4137 74.3354 44.2949C74.2823 44.1761 74.2073 44.0729 74.1135 43.9854C74.0197 43.8947 73.9103 43.8259 73.7821 43.7728C73.6539 43.7196 73.5163 43.6946 73.3725 43.6946C73.1599 43.6946 72.9817 43.7384 72.841 43.8259C72.7003 43.9135 72.5877 44.0135 72.5064 44.1261C72.422 44.2386 72.3658 44.348 72.3314 44.4543C72.297 44.5606 72.2782 44.6325 72.2782 44.6732H74.4198H74.4167Z" fill="white"/>
<path d="M78.8534 43.7735H77.9905V45.7401C77.9905 45.8745 78.028 45.9808 78.1031 46.0527C78.1781 46.1278 78.2781 46.1653 78.4095 46.1653C78.4845 46.1653 78.5595 46.1559 78.6346 46.1371C78.7096 46.1184 78.7846 46.0934 78.8534 46.0621L78.8847 46.4154C78.8097 46.4404 78.7252 46.4654 78.6314 46.4873C78.5345 46.5092 78.4501 46.5186 78.3782 46.5186C78.2375 46.5186 78.1187 46.4967 78.0186 46.456C77.9186 46.4154 77.8373 46.3591 77.7779 46.2903C77.7185 46.2216 77.6716 46.1403 77.6435 46.0465C77.6153 45.9527 77.5997 45.8526 77.5997 45.7432V43.7767H76.9463V43.4234H77.5997V42.5542H77.9905V43.4234H78.8534V43.7767V43.7735Z" fill="white"/>
<path d="M82.1044 45.5858C82.1044 45.6421 82.1044 45.7108 82.1107 45.7921C82.1138 45.8734 82.1169 45.9547 82.1201 46.036C82.1201 46.1173 82.1263 46.1955 82.1294 46.2674C82.1326 46.3393 82.1357 46.3955 82.1357 46.4331H81.7449C81.7418 46.3205 81.7355 46.2111 81.7355 46.1079C81.7355 46.0047 81.7261 45.936 81.7199 45.9047H81.7011C81.623 46.0704 81.4916 46.2111 81.3103 46.333C81.1258 46.4518 80.9132 46.5112 80.6694 46.5112C80.4255 46.5112 80.241 46.4737 80.091 46.3987C79.9409 46.3236 79.8221 46.2298 79.7377 46.1079C79.6533 45.986 79.5939 45.8484 79.5657 45.6921C79.5345 45.5358 79.522 45.3732 79.522 45.2106V43.416H79.9128V45.1919C79.9128 45.3138 79.9253 45.4326 79.944 45.5483C79.9659 45.6639 80.0034 45.7671 80.0597 45.8578C80.116 45.9485 80.191 46.0235 80.2879 46.0766C80.3849 46.1298 80.513 46.1579 80.6694 46.1579C80.8132 46.1579 80.9476 46.1329 81.0758 46.0829C81.204 46.0329 81.3165 45.9578 81.4072 45.8547C81.501 45.7515 81.5761 45.6233 81.6292 45.4701C81.6824 45.3169 81.7105 45.1324 81.7105 44.9261V43.4191H82.1013V45.5858H82.1044Z" fill="white"/>
<path d="M84.6586 43.7735H83.7957V45.7401C83.7957 45.8745 83.8332 45.9808 83.9082 46.0527C83.9833 46.1278 84.0834 46.1653 84.2147 46.1653C84.2897 46.1653 84.3647 46.1559 84.4398 46.1371C84.5148 46.1184 84.5898 46.0934 84.6586 46.0621L84.6899 46.4154C84.6148 46.4404 84.5304 46.4654 84.4366 46.4873C84.3397 46.5092 84.2553 46.5186 84.1834 46.5186C84.0427 46.5186 83.9239 46.4967 83.8239 46.456C83.7238 46.4154 83.6425 46.3591 83.5831 46.2903C83.5237 46.2216 83.4768 46.1403 83.4487 46.0465C83.4205 45.9527 83.4049 45.8526 83.4049 45.7432V43.7767H82.7515V43.4234H83.4049V42.5542H83.7957V43.4234H84.6586V43.7767V43.7735Z" fill="white"/>
<path d="M85.187 44.9266C85.187 44.6953 85.2245 44.4827 85.3058 44.2888C85.3871 44.095 85.4934 43.9262 85.6309 43.7855C85.7716 43.6448 85.9373 43.5353 86.1343 43.4572C86.3281 43.379 86.5439 43.3384 86.7721 43.3384C87.0004 43.3384 87.2161 43.3759 87.4099 43.4572C87.6038 43.5353 87.7695 43.6448 87.9133 43.7855C88.0571 43.9262 88.1634 44.095 88.2416 44.2888C88.3197 44.4827 88.3604 44.6953 88.3604 44.9266C88.3604 45.158 88.3229 45.3706 88.2416 45.5644C88.1634 45.7583 88.054 45.924 87.9133 46.0678C87.7726 46.2085 87.6038 46.3179 87.4099 46.3961C87.2161 46.4742 87.0035 46.5149 86.7721 46.5149C86.5408 46.5149 86.3281 46.4774 86.1343 46.3961C85.9373 46.3179 85.7716 46.2085 85.6309 46.0678C85.4903 45.9271 85.384 45.7583 85.3058 45.5644C85.2277 45.3706 85.187 45.158 85.187 44.9266ZM85.5778 44.9266C85.5778 45.0955 85.606 45.2549 85.6591 45.4081C85.7123 45.5582 85.7936 45.6895 85.8967 45.7989C85.9999 45.9115 86.1281 45.999 86.275 46.0647C86.422 46.1303 86.5877 46.1616 86.7721 46.1616C86.9566 46.1616 87.1191 46.1272 87.2692 46.0647C87.4162 45.999 87.5444 45.9115 87.6475 45.7989C87.7507 45.6895 87.832 45.5582 87.8852 45.4081C87.9383 45.258 87.9665 45.0986 87.9665 44.9266C87.9665 44.7547 87.9383 44.5983 87.8852 44.4483C87.832 44.2982 87.7507 44.1669 87.6475 44.0575C87.5444 43.948 87.4162 43.8574 87.2692 43.7917C87.1223 43.7261 86.9566 43.6948 86.7721 43.6948C86.5877 43.6948 86.4251 43.7261 86.275 43.7917C86.1281 43.8574 85.9999 43.9449 85.8967 44.0575C85.7936 44.17 85.7123 44.2982 85.6591 44.4483C85.6028 44.5983 85.5778 44.7578 85.5778 44.9266Z" fill="white"/>
<path d="M89.2329 44.2707C89.2329 44.2144 89.2329 44.1456 89.2267 44.0643C89.2204 43.983 89.2173 43.9017 89.2173 43.8204C89.2173 43.7392 89.211 43.661 89.2079 43.5891C89.2048 43.5172 89.2017 43.4609 89.2017 43.4234H89.5925C89.5956 43.5359 89.6019 43.6454 89.6019 43.7485C89.6019 43.8517 89.6112 43.9205 89.6175 43.9518C89.7175 43.7735 89.8457 43.6266 90.0021 43.514C90.1584 43.4015 90.3491 43.3452 90.5773 43.3452C90.6148 43.3452 90.6555 43.3452 90.693 43.3546C90.7305 43.3608 90.768 43.3671 90.8087 43.3765L90.7618 43.761C90.7086 43.7423 90.6586 43.736 90.6117 43.736C90.4429 43.736 90.2959 43.7642 90.1709 43.8173C90.0458 43.8705 89.9458 43.9455 89.8645 44.0424C89.7832 44.1393 89.7238 44.2519 89.6863 44.3801C89.6488 44.5083 89.6269 44.6458 89.6269 44.7959V46.4404H89.236V44.2738L89.2329 44.2707Z" fill="white"/>
<path d="M65.2686 25.9812C65.2686 25.2871 65.228 24.5931 65.228 23.8583L65.1467 0.819336H71.7248L71.8467 23.6958C71.8467 25.0026 72.05 26.025 72.3376 26.8004C72.8285 28.9232 75.239 29.1702 76.2176 29.2109C76.9523 30.0675 75.6048 34.6447 74.8701 35.4607C68.292 35.2981 65.5156 31.7433 65.2686 25.9843V25.9812Z" fill="white"/>
<path d="M91.5341 23.4048L103.749 35.4574H94.9263L85.5719 26.2249V35.4574H78.9531V0H85.5719V20.5066L93.6194 11.9682H102.483L91.5341 23.4079V23.4048Z" fill="white"/>
<path d="M67.3201 34.9787C67.195 34.7348 67.0887 34.5348 66.973 34.3347C66.726 33.9032 66.4822 33.4686 66.2383 33.034C65.6505 31.9804 65.0409 30.8893 64.3655 29.8544C63.462 28.4663 63.2087 27.2438 63.487 25.6368C64.3561 20.6313 61.6643 15.285 56.9402 12.6338C55.0236 11.5583 52.8163 10.9893 50.5528 10.9893C47.5701 10.9893 44.7062 11.971 42.4927 13.7562C41.8674 14.2596 41.5203 14.8129 41.4672 15.3976C41.4172 15.951 41.6266 16.5075 42.0925 17.0515C42.5771 17.6174 43.0867 17.8925 43.6526 17.8925C44.1247 17.8925 44.6156 17.6924 45.1533 17.2829C46.5352 16.2261 47.9984 15.6289 49.6242 15.457C49.9431 15.4226 50.2651 15.407 50.5809 15.407C53.3791 15.407 56.021 16.7764 57.6436 19.0712C59.2725 21.3754 59.6664 24.2299 58.7222 26.9062C58.394 27.841 58.4659 28.5757 58.9692 29.3604C59.4382 30.092 59.8759 30.8643 60.3386 31.6834C60.373 31.7459 60.4074 31.8053 60.4449 31.8679H58.1688C57.1809 31.8679 56.2148 31.8679 55.2456 31.8772C54.6953 31.8835 54.2389 31.9523 53.8512 32.093C52.6975 32.515 51.5657 32.7276 50.4871 32.7276C48.7363 32.7276 47.0386 32.1618 45.4378 31.0487C44.9032 30.6767 44.4123 30.4953 43.9402 30.4953C43.2868 30.4953 42.7116 30.8393 42.2332 31.5208C41.6673 32.3275 41.3171 33.5186 42.8491 34.6129C45.194 36.2856 47.7514 37.136 50.4527 37.136C51.7315 37.136 53.0664 36.9453 54.4202 36.5701C55.0486 36.395 55.6395 36.3043 56.1773 36.2981C57.7155 36.2856 59.2569 36.2825 60.7951 36.2825H68.0047L67.3169 34.9818L67.3201 34.9787Z" fill="white"/>
<path d="M53.1826 24.5236C53.2983 25.2177 53.6547 25.6804 54.4113 25.6554C55.1523 25.6335 55.5838 25.2052 55.5712 24.4704C55.5587 23.7295 55.0866 23.3136 54.3675 23.3199C53.6328 23.3261 53.2639 23.8014 53.1826 24.5236Z" fill="white"/>
<path d="M44.3405 20.0153C42.7585 20.0435 41.905 20.8751 41.8674 22.2539C41.8299 23.6358 42.646 24.5581 44.1154 24.58C45.5567 24.6019 46.4259 23.8109 46.4603 22.3664C46.4947 20.922 45.6474 20.1592 44.3405 20.0122V20.0153Z" fill="white"/>
<path d="M49.8742 25.3716C51.0154 25.3184 51.6845 24.715 51.697 23.6426C51.7095 22.5765 51.0811 21.8855 49.9649 21.8762C48.8613 21.8637 48.2172 22.4764 48.1922 23.5895C48.1703 24.7088 48.8175 25.2715 49.8742 25.3747V25.3716Z" fill="white"/>
<path d="M36.3978 29.1669C35.4567 28.8824 34.969 27.9007 34.8877 26.0623C34.8596 25.7434 34.8502 25.4245 34.8471 25.0775V25.04C34.8471 24.9087 34.8471 24.7711 34.8471 24.6304V18.1336H39.9932L38.6176 12.9061H34.8533V12.5372H34.8439V5.30566H28.2252V12.5372H24.958V18.1336H28.2252L28.2658 24.7523C28.2658 25.609 28.2658 26.4688 28.3065 27.2848C28.469 31.1648 29.8166 34.8821 34.8439 35.4543C37.1325 35.6575 39.1741 35.0041 39.9901 35.0447L38.9677 29.2451C38.3549 29.2451 37.3326 29.5296 36.3946 29.1638L36.3978 29.1669Z" fill="white"/>
<path d="M17.4958 12.5371C16.0732 12.5371 14.7507 13.3062 14.0441 14.5412L14.0223 14.5787L13.9816 14.5099C13.2594 13.2937 11.9338 12.5371 10.5206 12.5371H0L13.9972 37.1018L28.2227 12.5371H17.4989H17.4958ZM6.48744 16.3076H10.6644L14.0848 22.0822L17.3801 16.3076H21.679L14.0223 29.5295L6.48744 16.3076Z" fill="white"/>
</svg>
