<svg width="104" height="48" viewBox="0 0 104 48" fill="none" xmlns="http://www.w3.org/2000/svg">
<path d="M14.9109 41.814H15.3549L17.2994 46.4345H16.8179L16.3146 45.2059H13.8668L13.3447 46.4345H12.8945L14.9109 41.814ZM15.1141 42.2829L14.0387 44.8151H16.1614L15.1173 42.2829H15.1141Z" fill="white"/>
<path d="M17.9648 41.814H18.3963V46.4345H17.9648V41.814Z" fill="white"/>
<path d="M21.3594 41.814H22.6911C22.8506 41.814 23.0194 41.8327 23.1976 41.8702C23.3727 41.9077 23.5352 41.9703 23.679 42.0641C23.826 42.1547 23.9448 42.2798 24.0385 42.4392C24.1323 42.5986 24.1792 42.7956 24.1792 43.0363C24.1792 43.2458 24.1417 43.4271 24.0636 43.5772C23.9885 43.7303 23.8854 43.8554 23.7572 43.9523C23.629 44.0492 23.4821 44.1242 23.3133 44.1711C23.1444 44.218 22.9694 44.243 22.7881 44.243H21.7908V46.4376H21.3594V41.8171V41.814ZM21.7908 43.8491H22.7693C22.8912 43.8491 23.01 43.8366 23.1288 43.8085C23.2476 43.7804 23.3508 43.7335 23.4414 43.6709C23.5321 43.6084 23.6071 43.524 23.6634 43.4208C23.7197 43.3177 23.7478 43.1895 23.7478 43.0363C23.7478 42.8831 23.7197 42.7612 23.6603 42.658C23.6009 42.5549 23.5258 42.4673 23.4321 42.4017C23.3383 42.3329 23.232 42.286 23.1101 42.2548C22.9881 42.2235 22.8662 42.2079 22.7443 42.2079H21.7908V43.8523V43.8491Z" fill="white"/>
<path d="M24.8281 44.927C24.8281 44.6956 24.8656 44.4831 24.9469 44.2892C25.0251 44.0954 25.1345 43.9266 25.272 43.7859C25.4127 43.6452 25.5784 43.5358 25.7754 43.4577C25.9723 43.3795 26.1849 43.3389 26.4162 43.3389C26.6476 43.3389 26.8602 43.3764 27.054 43.4577C27.2478 43.5358 27.4166 43.6452 27.5573 43.7859C27.698 43.9266 27.8074 44.0954 27.8856 44.2892C27.9637 44.4831 28.0044 44.6956 28.0044 44.927C28.0044 45.1583 27.9637 45.3709 27.8856 45.5647C27.8074 45.7586 27.698 45.9242 27.5573 46.0681C27.4166 46.2087 27.2478 46.3182 27.054 46.3963C26.8602 46.4745 26.6476 46.5151 26.4162 46.5151C26.1849 46.5151 25.9723 46.4776 25.7754 46.3963C25.5784 46.3182 25.4127 46.2087 25.272 46.0681C25.1314 45.9274 25.0251 45.7586 24.9469 45.5647C24.8688 45.3709 24.8281 45.1583 24.8281 44.927ZM25.2189 44.927C25.2189 45.0958 25.247 45.2552 25.3002 45.4084C25.3533 45.5585 25.4346 45.6898 25.5378 45.7992C25.6409 45.9117 25.7691 45.9993 25.916 46.0649C26.063 46.1306 26.2287 46.1618 26.4131 46.1618C26.5976 46.1618 26.7601 46.1275 26.9102 46.0649C27.0571 45.9993 27.1853 45.9117 27.2885 45.7992C27.3916 45.6898 27.4729 45.5585 27.5261 45.4084C27.5792 45.2584 27.6073 45.0989 27.6073 44.927C27.6073 44.755 27.5792 44.5987 27.5261 44.4487C27.4729 44.2986 27.3916 44.1673 27.2885 44.0579C27.1853 43.9485 27.0571 43.8578 26.9102 43.7922C26.7633 43.7265 26.5976 43.6953 26.4131 43.6953C26.2287 43.6953 26.0661 43.7265 25.916 43.7922C25.766 43.8578 25.6409 43.9453 25.5378 44.0579C25.4346 44.1704 25.3533 44.2986 25.3002 44.4487C25.247 44.5987 25.2189 44.7582 25.2189 44.927Z" fill="white"/>
<path d="M28.4492 43.4207H28.8806L29.6122 45.9466H29.6247L30.4656 43.4207H30.8376L31.7317 45.9466H31.7443L32.457 43.4207H32.8478L31.96 46.4375H31.5567L30.6563 43.9709H30.6438L29.8029 46.4375H29.3996L28.4523 43.4207H28.4492Z" fill="white"/>
<path d="M36.13 45.8678C35.9768 46.0991 35.7892 46.2648 35.5642 46.3648C35.3391 46.4649 35.0921 46.5149 34.8232 46.5149C34.5919 46.5149 34.3825 46.4774 34.198 46.3961C34.0104 46.318 33.851 46.2085 33.7166 46.0679C33.5821 45.9272 33.479 45.7584 33.4071 45.5645C33.3352 45.3707 33.3008 45.155 33.3008 44.9205C33.3008 44.6861 33.3383 44.486 33.4102 44.2922C33.4852 44.1015 33.5884 43.9358 33.7228 43.792C33.8572 43.6513 34.0167 43.5388 34.198 43.4606C34.3793 43.3824 34.5825 43.3418 34.8045 43.3418C35.0265 43.3418 35.239 43.3824 35.4141 43.4606C35.5892 43.5419 35.7392 43.6482 35.858 43.7795C35.9768 43.9139 36.0675 44.064 36.13 44.2328C36.1894 44.4016 36.2207 44.5735 36.2207 44.7486V45.0237H33.6884C33.6884 45.105 33.7041 45.2113 33.7384 45.3395C33.7728 45.4676 33.8291 45.5927 33.9166 45.7146C34.0042 45.8365 34.1198 45.9397 34.2668 46.0272C34.4137 46.1148 34.6013 46.1585 34.8326 46.1585C35.0327 46.1585 35.2265 46.1116 35.4141 46.0147C35.6017 45.9178 35.7455 45.7896 35.8455 45.6239L36.1331 45.8647L36.13 45.8678ZM35.8299 44.6736C35.8299 44.5391 35.8018 44.4141 35.7486 44.2953C35.6955 44.1765 35.6204 44.0733 35.5266 43.9858C35.4329 43.8951 35.3234 43.8264 35.1953 43.7732C35.0671 43.7201 34.9295 43.6951 34.7857 43.6951C34.5732 43.6951 34.395 43.7388 34.2543 43.8264C34.1136 43.9139 34.0011 44.0139 33.9166 44.1265C33.8354 44.239 33.776 44.3484 33.7416 44.4547C33.7072 44.561 33.6884 44.6329 33.6884 44.6736H35.8299Z" fill="white"/>
<path d="M37.0977 44.2672C37.0977 44.2109 37.0977 44.1421 37.0914 44.0608C37.0852 43.9795 37.0852 43.8983 37.082 43.817C37.0789 43.7357 37.0758 43.6575 37.0727 43.5856C37.0695 43.5137 37.0664 43.4575 37.0664 43.42H37.4572C37.4603 43.5325 37.4634 43.6419 37.4666 43.7451C37.4697 43.8482 37.4728 43.917 37.4822 43.9483C37.5822 43.7701 37.7104 43.6232 37.8667 43.5106C38.023 43.3981 38.2137 43.3418 38.4419 43.3418C38.4795 43.3418 38.5201 43.3418 38.5576 43.3512C38.5951 43.3574 38.6326 43.3637 38.6733 43.3731L38.6264 43.7576C38.5732 43.7388 38.5232 43.7326 38.4763 43.7326C38.3075 43.7326 38.1606 43.7607 38.0355 43.8139C37.9105 43.867 37.8104 43.942 37.7292 44.0389C37.6479 44.1359 37.5885 44.2484 37.551 44.3766C37.5103 44.5047 37.4916 44.6423 37.4916 44.7924V46.4368H37.1008V44.2703L37.0977 44.2672Z" fill="white"/>
<path d="M41.8175 45.8678C41.6643 46.0991 41.4767 46.2648 41.2517 46.3648C41.0266 46.4649 40.7796 46.5149 40.5107 46.5149C40.2794 46.5149 40.07 46.4774 39.8855 46.3961C39.6979 46.318 39.5385 46.2085 39.4041 46.0679C39.2696 45.9272 39.1665 45.7584 39.0946 45.5645C39.0227 45.3707 38.9883 45.155 38.9883 44.9205C38.9883 44.6861 39.0258 44.486 39.0977 44.2922C39.1727 44.1015 39.2759 43.9358 39.4103 43.792C39.5447 43.6513 39.7042 43.5388 39.8855 43.4606C40.0668 43.3824 40.27 43.3418 40.492 43.3418C40.714 43.3418 40.9265 43.3824 41.1016 43.4606C41.2767 43.5419 41.4267 43.6482 41.5455 43.7795C41.6643 43.9139 41.755 44.064 41.8175 44.2328C41.8769 44.4016 41.9082 44.5735 41.9082 44.7486V45.0237H39.3759C39.3759 45.105 39.3916 45.2113 39.4259 45.3395C39.4603 45.4676 39.5166 45.5927 39.6041 45.7146C39.6917 45.8365 39.8073 45.9397 39.9543 46.0272C40.1012 46.1148 40.2888 46.1585 40.5201 46.1585C40.7202 46.1585 40.914 46.1116 41.1016 46.0147C41.2892 45.9178 41.433 45.7896 41.533 45.6239L41.8206 45.8647L41.8175 45.8678ZM41.5174 44.6736C41.5174 44.5391 41.4893 44.4141 41.4361 44.2953C41.383 44.1765 41.3079 44.0733 41.2141 43.9858C41.1204 43.8951 41.0109 43.8264 40.8828 43.7732C40.7546 43.7201 40.617 43.6951 40.4732 43.6951C40.2607 43.6951 40.0825 43.7388 39.9418 43.8264C39.8011 43.9139 39.6886 44.0139 39.6041 44.1265C39.5229 44.239 39.4635 44.3484 39.4291 44.4547C39.3947 44.561 39.3759 44.6329 39.3759 44.6736H41.5174Z" fill="white"/>
<path d="M45.4198 45.9056H45.4073C45.3448 46.0087 45.2698 46.0994 45.1791 46.1776C45.0885 46.2526 44.9884 46.3182 44.8821 46.3683C44.7758 46.4183 44.6633 46.4558 44.5445 46.4777C44.4257 46.4996 44.3132 46.5152 44.1975 46.5152C43.9661 46.5152 43.7536 46.4777 43.5566 46.3964C43.3597 46.3182 43.194 46.2088 43.0533 46.0681C42.9126 45.9275 42.8063 45.7586 42.7282 45.5648C42.65 45.371 42.6094 45.1584 42.6094 44.9271C42.6094 44.6957 42.6469 44.4831 42.7282 44.2893C42.8063 44.0955 42.9157 43.9267 43.0533 43.786C43.194 43.6453 43.3597 43.5359 43.5566 43.4577C43.7536 43.3796 43.9661 43.339 44.1975 43.339C44.31 43.339 44.4257 43.3515 44.5445 43.3733C44.6633 43.3983 44.7727 43.4359 44.8821 43.4859C44.9915 43.5359 45.0885 43.5984 45.1791 43.6766C45.2698 43.7516 45.3479 43.8423 45.4073 43.9486H45.4198V41.5007H45.8106V46.437H45.4198V45.9087V45.9056ZM45.4605 44.9271C45.4605 44.7583 45.4292 44.5988 45.3636 44.4488C45.2979 44.2987 45.2104 44.1674 45.0947 44.058C44.979 43.9486 44.8477 43.8579 44.6977 43.7923C44.5476 43.7266 44.3788 43.6953 44.2006 43.6953C44.0224 43.6953 43.8536 43.7266 43.7036 43.7923C43.5535 43.8579 43.4284 43.9454 43.3253 44.058C43.2221 44.1705 43.1408 44.2987 43.0877 44.4488C43.0345 44.5988 43.0064 44.7583 43.0064 44.9271C43.0064 45.0959 43.0345 45.2553 43.0877 45.4085C43.1408 45.5586 43.2221 45.6899 43.3253 45.7993C43.4284 45.9118 43.5566 45.9994 43.7036 46.065C43.8505 46.1307 44.0162 46.1619 44.2006 46.1619C44.3851 46.1619 44.5445 46.1275 44.6977 46.065C44.8509 46.0025 44.9822 45.9118 45.0947 45.7993C45.2073 45.6899 45.2979 45.5586 45.3636 45.4085C45.4292 45.2584 45.4605 45.099 45.4605 44.9271Z" fill="white"/>
<path d="M48.5352 41.5007H48.9259V46.437H48.5352V41.5007Z" fill="white"/>
<path d="M52.3799 45.1675C52.3799 45.3144 52.3799 45.4489 52.3799 45.5645C52.3799 45.6802 52.3861 45.7896 52.3893 45.8897C52.3924 45.9897 52.3986 46.0835 52.4049 46.171C52.4111 46.2586 52.4205 46.3461 52.433 46.4336H52.0673C52.0422 46.2867 52.0297 46.121 52.0297 45.9428H52.0172C51.9047 46.1398 51.764 46.2836 51.5952 46.3742C51.4264 46.4649 51.2169 46.5118 50.9574 46.5118C50.8261 46.5118 50.698 46.4962 50.5729 46.4618C50.4479 46.4274 50.3322 46.3774 50.2322 46.3055C50.1321 46.2335 50.0508 46.1398 49.9883 46.0272C49.9258 45.9147 49.8945 45.7771 49.8945 45.6146C49.8945 45.3832 49.9539 45.2019 50.0696 45.0675C50.1884 44.933 50.3322 44.833 50.5041 44.7642C50.6761 44.6986 50.8574 44.6548 51.0512 44.6329C51.2451 44.6142 51.417 44.6017 51.5639 44.6017H52.0204V44.4203C52.0204 44.1609 51.9391 43.9733 51.7796 43.8608C51.6202 43.7482 51.417 43.6919 51.1732 43.6919C50.8261 43.6919 50.5198 43.8045 50.254 44.0327L50.0258 43.7638C50.1696 43.6232 50.3478 43.52 50.5604 43.4481C50.773 43.3762 50.9793 43.3418 51.1732 43.3418C51.5389 43.3418 51.8297 43.4262 52.0485 43.5981C52.2673 43.7701 52.3736 44.0483 52.3736 44.4297V45.1675H52.3799ZM51.5952 44.9205C51.4295 44.9205 51.2701 44.9299 51.1169 44.9518C50.9637 44.9737 50.823 45.0112 50.698 45.0643C50.5729 45.1175 50.476 45.1863 50.401 45.2738C50.326 45.3613 50.2884 45.4708 50.2884 45.5989C50.2884 45.6896 50.3103 45.7709 50.351 45.8428C50.3916 45.9147 50.4447 45.9741 50.5104 46.0178C50.576 46.0616 50.6479 46.0991 50.7292 46.121C50.8105 46.146 50.8918 46.1585 50.9731 46.1585C51.1825 46.1585 51.3545 46.1273 51.4889 46.0679C51.6233 46.0085 51.7327 45.9272 51.8109 45.8303C51.8922 45.7334 51.9453 45.6208 51.9766 45.4989C52.0079 45.3738 52.0235 45.2488 52.0235 45.1237V44.9205H51.5921H51.5952Z" fill="white"/>
<path d="M53.4219 44.2672C53.4219 44.2109 53.4219 44.1421 53.4156 44.0608C53.4094 43.9795 53.4063 43.8983 53.4063 43.817C53.4063 43.7357 53.4 43.6575 53.3969 43.5856C53.3938 43.5137 53.3906 43.4575 53.3906 43.42H53.7814C53.7845 43.5325 53.7908 43.6419 53.7908 43.7451C53.7908 43.8482 53.8002 43.917 53.8064 43.9483H53.8252C53.9033 43.7826 54.0346 43.6419 54.2159 43.52C54.3973 43.4012 54.613 43.3418 54.8537 43.3418C55.0944 43.3418 55.282 43.3793 55.4289 43.4512C55.5758 43.5262 55.6947 43.6232 55.7791 43.742C55.8635 43.8607 55.9229 43.9983 55.9541 44.1577C55.9854 44.3141 56.0041 44.4766 56.0041 44.6392V46.4336H55.6134V44.6579C55.6134 44.536 55.604 44.4172 55.5821 44.3015C55.5602 44.1859 55.5227 44.0827 55.4664 43.9921C55.4133 43.9014 55.3351 43.8264 55.2382 43.7732C55.1413 43.7201 55.0131 43.6919 54.8568 43.6919C54.713 43.6919 54.5786 43.7169 54.4504 43.767C54.3222 43.817 54.2097 43.892 54.119 43.9952C54.0284 44.0983 53.9502 44.2265 53.8971 44.3797C53.8408 44.5329 53.8158 44.7142 53.8158 44.9237V46.4305H53.425V44.264L53.4219 44.2672Z" fill="white"/>
<path d="M60.0794 46.2402C60.0794 46.6153 60.0262 46.9155 59.9168 47.1468C59.8074 47.3781 59.673 47.5563 59.5073 47.6814C59.3447 47.8064 59.1696 47.8908 58.9821 47.9346C58.7945 47.9784 58.6257 48.0003 58.4725 48.0003C58.3193 48.0003 58.1724 47.9878 58.0254 47.9596C57.8785 47.9315 57.7409 47.8908 57.6096 47.8346C57.4783 47.7783 57.3596 47.7126 57.2533 47.6345C57.147 47.5563 57.0532 47.4657 56.975 47.3656L57.2814 47.078C57.4221 47.275 57.594 47.4188 57.8035 47.5094C58.0129 47.6001 58.2349 47.647 58.4694 47.647C58.6694 47.647 58.8382 47.622 58.9758 47.5688C59.1134 47.5157 59.2259 47.4469 59.3166 47.3625C59.4072 47.2781 59.476 47.1843 59.526 47.0812C59.576 46.978 59.6135 46.8779 59.6386 46.7748C59.6636 46.6716 59.6761 46.5747 59.6823 46.484C59.6855 46.3934 59.6886 46.3184 59.6886 46.2621V45.8432H59.6761C59.5635 46.0245 59.4104 46.1683 59.2165 46.2746C59.0227 46.3809 58.7945 46.4309 58.535 46.4309C58.313 46.4309 58.1036 46.3903 57.9098 46.309C57.7159 46.2277 57.544 46.1183 57.3971 45.9776C57.2501 45.8369 57.1345 45.6712 57.0501 45.4837C56.9656 45.2961 56.9219 45.096 56.9219 44.8834C56.9219 44.6708 56.9625 44.4708 57.0501 44.2832C57.1345 44.0956 57.2501 43.933 57.3971 43.7924C57.5409 43.6517 57.7128 43.5423 57.9098 43.461C58.1067 43.3766 58.313 43.3359 58.535 43.3359C58.7976 43.3359 59.0227 43.3891 59.2165 43.4922C59.4104 43.5954 59.5635 43.7392 59.6761 43.9237H59.6886V43.4141H60.0794V46.2339V46.2402ZM59.7011 44.8897C59.7011 44.724 59.6698 44.5677 59.6073 44.4239C59.5448 44.2769 59.4604 44.1519 59.3541 44.0456C59.2478 43.9393 59.1196 43.8549 58.9758 43.7924C58.8289 43.7298 58.6757 43.6986 58.51 43.6986C58.3443 43.6986 58.188 43.7298 58.0442 43.7924C57.9004 43.8549 57.7722 43.9393 57.6659 44.0456C57.5596 44.1519 57.4752 44.2769 57.4127 44.4239C57.3502 44.5708 57.3189 44.724 57.3189 44.8897C57.3189 45.0554 57.3502 45.2117 57.4127 45.3555C57.4752 45.5024 57.5596 45.6275 57.6659 45.7337C57.7722 45.84 57.8973 45.9244 58.0442 45.987C58.1911 46.0495 58.3443 46.0808 58.51 46.0808C58.6757 46.0808 58.832 46.0495 58.9758 45.987C59.1196 45.9244 59.2478 45.84 59.3541 45.7337C59.4604 45.6275 59.5448 45.4993 59.6073 45.3555C59.6698 45.2117 59.7011 45.0554 59.7011 44.8897Z" fill="white"/>
<path d="M63.594 45.5873C63.594 45.6436 63.594 45.7124 63.6002 45.7936C63.6034 45.8749 63.6065 45.9562 63.6096 46.0375C63.6096 46.1188 63.6159 46.1969 63.619 46.2688C63.6221 46.3407 63.6252 46.397 63.6252 46.4345H63.2345C63.2313 46.322 63.2251 46.2126 63.2251 46.1094C63.2251 46.0062 63.2157 45.9375 63.2094 45.9062H63.1907C63.1125 46.0719 62.9812 46.2126 62.7999 46.3345C62.6155 46.4533 62.4029 46.5127 62.159 46.5127C61.9152 46.5127 61.7308 46.4752 61.5807 46.4001C61.4306 46.3251 61.3118 46.2313 61.2274 46.1094C61.143 45.9875 61.0836 45.8499 61.0555 45.6936C61.0242 45.5373 61.0117 45.3747 61.0117 45.2122V43.4177H61.4025V45.1934C61.4025 45.3153 61.415 45.4341 61.4338 45.5498C61.4556 45.6655 61.4932 45.7686 61.5494 45.8593C61.6057 45.95 61.6807 46.025 61.7776 46.0781C61.8746 46.1313 62.0027 46.1594 62.159 46.1594C62.3029 46.1594 62.4373 46.1344 62.5654 46.0844C62.6936 46.0344 62.8062 45.9593 62.8968 45.8562C62.9906 45.753 63.0657 45.6248 63.1188 45.4716C63.1719 45.3185 63.2001 45.134 63.2001 44.9277V43.4208H63.5908V45.5873H63.594Z" fill="white"/>
<path d="M67.0127 45.1675C67.0127 45.3144 67.0127 45.4489 67.0127 45.5645C67.0127 45.6802 67.0189 45.7896 67.0221 45.8897C67.0252 45.9897 67.0314 46.0835 67.0377 46.171C67.0439 46.2586 67.0533 46.3461 67.0658 46.4336H66.7001C66.6751 46.2867 66.6626 46.121 66.6626 45.9428H66.65C66.5375 46.1398 66.3968 46.2836 66.228 46.3742C66.0592 46.4649 65.8497 46.5118 65.5903 46.5118C65.459 46.5118 65.3308 46.4962 65.2057 46.4618C65.0807 46.4274 64.965 46.3774 64.865 46.3055C64.7649 46.2335 64.6837 46.1398 64.6211 46.0272C64.5586 45.9147 64.5273 45.7771 64.5273 45.6146C64.5273 45.3832 64.5867 45.2019 64.7024 45.0675C64.8212 44.933 64.965 44.833 65.137 44.7642C65.3089 44.6986 65.4902 44.6548 65.684 44.6329C65.8779 44.6142 66.0498 44.6017 66.1967 44.6017H66.6532V44.4203C66.6532 44.1609 66.5719 43.9733 66.4125 43.8608C66.253 43.7482 66.0498 43.6919 65.806 43.6919C65.459 43.6919 65.1495 43.8045 64.8837 44.0327L64.6555 43.7638C64.7993 43.6232 64.9775 43.52 65.1901 43.4481C65.4027 43.3762 65.609 43.3418 65.8028 43.3418C66.1686 43.3418 66.4593 43.4262 66.6782 43.5981C66.897 43.7701 67.0033 44.0483 67.0033 44.4297V45.1675H67.0127ZM66.228 44.9205C66.0623 44.9205 65.9029 44.9299 65.7466 44.9518C65.5903 44.9737 65.4527 45.0112 65.3277 45.0643C65.2026 45.1175 65.1057 45.1863 65.0307 45.2738C64.9556 45.3613 64.9181 45.4708 64.9181 45.5989C64.9181 45.6896 64.94 45.7709 64.9806 45.8428C65.0213 45.9147 65.0744 45.9741 65.1401 46.0178C65.2057 46.0647 65.2776 46.0991 65.3589 46.121C65.4402 46.146 65.5215 46.1585 65.6028 46.1585C65.8122 46.1585 65.9842 46.1273 66.1186 46.0679C66.253 46.0085 66.3624 45.9272 66.4406 45.8303C66.5219 45.7334 66.5781 45.6208 66.6063 45.4989C66.6375 45.3738 66.6532 45.2488 66.6532 45.1237V44.9205H66.2218H66.228Z" fill="white"/>
<path d="M71.0864 46.2402C71.0864 46.6153 71.0333 46.9155 70.9238 47.1468C70.8144 47.3781 70.68 47.5563 70.5174 47.6814C70.3549 47.8064 70.1798 47.8908 69.9922 47.9346C69.8046 47.9784 69.6358 48.0003 69.4826 48.0003C69.3295 48.0003 69.1825 47.9878 69.0356 47.9596C68.8887 47.9315 68.7511 47.8908 68.6198 47.8346C68.4885 47.7814 68.3697 47.7126 68.2634 47.6345C68.1571 47.5563 68.0633 47.4657 67.9852 47.3656L68.2916 47.078C68.4322 47.275 68.6042 47.4188 68.8136 47.5094C69.0231 47.6001 69.245 47.647 69.4795 47.647C69.6796 47.647 69.8484 47.622 69.986 47.5688C70.1235 47.5157 70.2361 47.4469 70.3267 47.3625C70.4174 47.2781 70.4862 47.1843 70.5362 47.0812C70.5862 46.978 70.6237 46.8779 70.6487 46.7748C70.6737 46.6716 70.6862 46.5747 70.6894 46.484C70.6925 46.3934 70.6956 46.3184 70.6956 46.2621V45.8432H70.6831C70.5706 46.0245 70.4174 46.1683 70.2236 46.2746C70.0297 46.3809 69.8015 46.4309 69.542 46.4309C69.3201 46.4309 69.1106 46.3903 68.9137 46.309C68.7198 46.2277 68.5479 46.1183 68.401 45.9776C68.254 45.8369 68.1415 45.6712 68.054 45.4837C67.9695 45.2961 67.9258 45.096 67.9258 44.8834C67.9258 44.6708 67.9695 44.4708 68.054 44.2832C68.1384 44.0956 68.254 43.933 68.401 43.7924C68.5479 43.6517 68.7167 43.5423 68.9137 43.461C69.1106 43.3766 69.317 43.3359 69.542 43.3359C69.8015 43.3359 70.0297 43.3891 70.2236 43.4922C70.4174 43.5954 70.5706 43.7392 70.6831 43.9237H70.6956V43.4141H71.0864V46.2339V46.2402ZM70.7081 44.8897C70.7081 44.724 70.6769 44.5677 70.6143 44.4239C70.5518 44.2801 70.4674 44.1519 70.3611 44.0456C70.2548 43.9393 70.1298 43.8549 69.9828 43.7924C69.8359 43.7298 69.6827 43.6986 69.517 43.6986C69.3513 43.6986 69.195 43.7298 69.0512 43.7924C68.9043 43.8549 68.7792 43.9393 68.673 44.0456C68.5667 44.1519 68.4823 44.2769 68.4197 44.4239C68.3572 44.5708 68.3259 44.724 68.3259 44.8897C68.3259 45.0554 68.3572 45.2117 68.4197 45.3555C68.4823 45.5024 68.5667 45.6275 68.673 45.7337C68.7792 45.84 68.9043 45.9244 69.0512 45.987C69.195 46.0495 69.3513 46.0808 69.517 46.0808C69.6827 46.0808 69.839 46.0495 69.9828 45.987C70.1298 45.9244 70.2548 45.84 70.3611 45.7337C70.4674 45.6275 70.5518 45.4993 70.6143 45.3555C70.6769 45.2117 70.7081 45.0554 70.7081 44.8897Z" fill="white"/>
<path d="M74.7074 45.8678C74.5542 46.0991 74.3666 46.2648 74.1415 46.3648C73.9164 46.4649 73.6695 46.5149 73.4006 46.5149C73.1693 46.5149 72.9598 46.4774 72.7722 46.3961C72.5846 46.318 72.4252 46.2085 72.2908 46.0679C72.1564 45.9272 72.0532 45.7584 71.9813 45.5645C71.9094 45.3707 71.875 45.155 71.875 44.9205C71.875 44.6861 71.9125 44.486 71.9875 44.2922C72.0626 44.1015 72.1657 43.9358 72.3002 43.792C72.4346 43.6513 72.594 43.5388 72.7754 43.4606C72.9598 43.3793 73.1599 43.3418 73.3818 43.3418C73.6038 43.3418 73.8164 43.3824 73.9914 43.4606C74.1665 43.5388 74.3166 43.6482 74.4354 43.7795C74.5542 43.9139 74.6448 44.064 74.7074 44.2328C74.7668 44.4016 74.798 44.5735 74.798 44.7486V45.0237H72.2658C72.2658 45.105 72.2814 45.2113 72.3158 45.3395C72.3471 45.4676 72.4065 45.5927 72.494 45.7146C72.5815 45.8365 72.6972 45.9397 72.8441 46.0272C72.9879 46.1148 73.1786 46.1585 73.4068 46.1585C73.6069 46.1585 73.8008 46.1116 73.9883 46.0147C74.1759 45.9178 74.3197 45.7896 74.4197 45.6239L74.7074 45.8647V45.8678ZM74.4072 44.6736C74.4072 44.5391 74.3791 44.4141 74.326 44.2953C74.2728 44.1765 74.1978 44.0733 74.104 43.9858C74.0102 43.8951 73.9008 43.8264 73.7726 43.7732C73.6444 43.7201 73.5069 43.6951 73.3631 43.6951C73.1505 43.6951 72.9723 43.7388 72.8316 43.8264C72.6909 43.9139 72.5784 44.0139 72.4971 44.1265C72.4127 44.239 72.3564 44.3484 72.322 44.4547C72.2877 44.561 72.2689 44.6329 72.2689 44.6736H74.4104H74.4072Z" fill="white"/>
<path d="M78.8484 43.7712H77.9856V45.7376C77.9856 45.872 78.0231 45.9783 78.0981 46.0502C78.1731 46.1253 78.2732 46.1628 78.4045 46.1628C78.4795 46.1628 78.5545 46.1534 78.6296 46.1347C78.7046 46.1159 78.7796 46.0909 78.8484 46.0596L78.8797 46.4129C78.8046 46.4379 78.7202 46.4629 78.6264 46.4848C78.5295 46.5067 78.4451 46.516 78.3732 46.516C78.2325 46.516 78.1137 46.4942 78.0137 46.4535C77.9137 46.4129 77.8324 46.3566 77.773 46.2878C77.7136 46.2191 77.6667 46.1378 77.6385 46.044C77.6104 45.9502 77.5948 45.8502 77.5948 45.7407V43.7744H76.9414V43.4211H77.5948V42.552H77.9856V43.4211H78.8484V43.7744V43.7712Z" fill="white"/>
<path d="M82.0979 45.5873C82.0979 45.6436 82.0979 45.7124 82.1041 45.7936C82.1073 45.8749 82.1104 45.9562 82.1135 46.0375C82.1135 46.1188 82.1198 46.1969 82.1229 46.2688C82.126 46.3407 82.1291 46.397 82.1291 46.4345H81.7384C81.7352 46.322 81.729 46.2126 81.729 46.1094C81.729 46.0062 81.7196 45.9375 81.7134 45.9062H81.6946C81.6164 46.0719 81.4851 46.2126 81.3038 46.3345C81.1194 46.4533 80.9068 46.5127 80.663 46.5127C80.4191 46.5127 80.2347 46.4752 80.0846 46.4001C79.9345 46.3251 79.8157 46.2313 79.7313 46.1094C79.6469 45.9875 79.5875 45.8499 79.5594 45.6936C79.5281 45.5373 79.5156 45.3747 79.5156 45.2122V43.4177H79.9064V45.1934C79.9064 45.3153 79.9189 45.4341 79.9377 45.5498C79.9595 45.6655 79.9971 45.7686 80.0533 45.8593C80.1096 45.95 80.1846 46.025 80.2816 46.0781C80.3785 46.1313 80.5066 46.1594 80.663 46.1594C80.8068 46.1594 80.9412 46.1344 81.0694 46.0844C81.1975 46.0344 81.3101 45.9593 81.4007 45.8562C81.4945 45.753 81.5695 45.6248 81.6227 45.4716C81.6758 45.3185 81.704 45.134 81.704 44.9277V43.4208H82.0948V45.5873H82.0979Z" fill="white"/>
<path d="M84.6492 43.7712H83.7863V45.7376C83.7863 45.872 83.8239 45.9783 83.8989 46.0502C83.9739 46.1253 84.074 46.1628 84.2053 46.1628C84.2803 46.1628 84.3553 46.1534 84.4303 46.1347C84.5054 46.1159 84.5804 46.0909 84.6492 46.0596L84.6804 46.4129C84.6054 46.4379 84.521 46.4629 84.4272 46.4848C84.3303 46.5067 84.2459 46.516 84.174 46.516C84.0333 46.516 83.9145 46.4942 83.8145 46.4535C83.7144 46.4129 83.6332 46.3566 83.5738 46.2878C83.5144 46.2191 83.4675 46.1378 83.4393 46.044C83.4112 45.9502 83.3956 45.8502 83.3956 45.7407V43.7744H82.7422V43.4211H83.3956V42.552H83.7863V43.4211H84.6492V43.7744V43.7712Z" fill="white"/>
<path d="M85.1797 44.927C85.1797 44.6956 85.2172 44.4831 85.2985 44.2892C85.3798 44.0954 85.4861 43.9266 85.6236 43.7859C85.7643 43.6452 85.93 43.5358 86.1269 43.4577C86.3208 43.3795 86.5365 43.3389 86.7647 43.3389C86.9929 43.3389 87.2086 43.3764 87.4024 43.4577C87.5963 43.5358 87.7619 43.6452 87.9058 43.7859C88.0496 43.9266 88.1559 44.0954 88.234 44.2892C88.3122 44.4831 88.3528 44.6956 88.3528 44.927C88.3528 45.1583 88.3153 45.3709 88.234 45.5647C88.1559 45.7586 88.0464 45.9242 87.9058 46.0681C87.7651 46.2087 87.5963 46.3182 87.4024 46.3963C87.2086 46.4745 86.996 46.5151 86.7647 46.5151C86.5333 46.5151 86.3208 46.4776 86.1269 46.3963C85.93 46.3182 85.7643 46.2087 85.6236 46.0681C85.4829 45.9274 85.3766 45.7586 85.2985 45.5647C85.2203 45.3709 85.1797 45.1583 85.1797 44.927ZM85.5705 44.927C85.5705 45.0958 85.5986 45.2552 85.6517 45.4084C85.7049 45.5585 85.7862 45.6898 85.8893 45.7992C85.9925 45.9117 86.1207 45.9993 86.2676 46.0649C86.4145 46.1306 86.5802 46.1618 86.7647 46.1618C86.9491 46.1618 87.1117 46.1275 87.2618 46.0649C87.4087 45.9993 87.5369 45.9117 87.64 45.7992C87.7432 45.6898 87.8245 45.5585 87.8776 45.4084C87.9308 45.2584 87.9589 45.0989 87.9589 44.927C87.9589 44.755 87.9308 44.5987 87.8776 44.4487C87.8245 44.2986 87.7432 44.1673 87.64 44.0579C87.5369 43.9485 87.4087 43.8578 87.2618 43.7922C87.1148 43.7265 86.9491 43.6953 86.7647 43.6953C86.5802 43.6953 86.4177 43.7265 86.2676 43.7922C86.1207 43.8578 85.9925 43.9453 85.8893 44.0579C85.7862 44.1704 85.7049 44.2986 85.6517 44.4487C85.5955 44.5987 85.5705 44.7582 85.5705 44.927Z" fill="white"/>
<path d="M89.2227 44.2672C89.2227 44.2109 89.2227 44.1421 89.2164 44.0608C89.2102 43.9795 89.207 43.8983 89.207 43.817C89.207 43.7357 89.2008 43.6575 89.1977 43.5856C89.1945 43.5137 89.1914 43.4575 89.1914 43.42H89.5822C89.5853 43.5325 89.5916 43.6419 89.5916 43.7451C89.5916 43.8482 89.6009 43.917 89.6072 43.9483C89.7072 43.7701 89.8354 43.6232 89.9917 43.5106C90.148 43.3981 90.3387 43.3418 90.5669 43.3418C90.6045 43.3418 90.6451 43.3418 90.6826 43.3512C90.7201 43.3574 90.7576 43.3637 90.7983 43.3731L90.7514 43.7576C90.6982 43.7388 90.6482 43.7326 90.6013 43.7326C90.4325 43.7326 90.2856 43.7607 90.1605 43.8139C90.0355 43.867 89.9355 43.942 89.8542 44.0389C89.7729 44.1359 89.7135 44.2484 89.676 44.3766C89.6385 44.5047 89.6166 44.6423 89.6166 44.7924V46.4368H89.2258V44.2703L89.2227 44.2672Z" fill="white"/>
<path d="M65.2586 25.9787C65.2586 25.2846 65.218 24.5906 65.218 23.856L65.1367 0.818848H71.7143L71.8362 23.6934C71.8362 25.0001 72.0394 26.0224 72.327 26.7977C72.8178 28.9204 75.2281 29.1674 76.2066 29.208C76.9413 30.0646 75.5939 34.6414 74.8592 35.4573C68.2817 35.2948 65.5056 31.7403 65.2586 25.9818V25.9787Z" fill="white"/>
<path d="M91.5291 23.406L103.743 35.4576H94.9211L85.5674 26.2258V35.4576H78.9492V0H85.5674V20.5049L93.6143 11.9672H102.477L91.5291 23.406Z" fill="white"/>
<path d="M67.3111 34.977C67.186 34.7331 67.0797 34.5331 66.9641 34.333C66.7171 33.9016 66.4732 33.467 66.2294 33.0325C65.6417 31.9789 65.0321 30.8879 64.3568 29.8531C63.4533 28.4651 63.2001 27.2427 63.4783 25.6358C64.3474 20.6308 61.6557 15.2849 56.932 12.6339C55.0156 11.5585 52.8085 10.9895 50.5452 10.9895C47.5627 10.9895 44.6991 11.9711 42.4858 13.7562C41.8605 14.2595 41.5135 14.8129 41.4604 15.3975C41.4103 15.9508 41.6198 16.5073 42.0856 17.0512C42.5702 17.6171 43.0797 17.8922 43.6456 17.8922C44.1176 17.8922 44.6085 17.6921 45.1462 17.2826C46.528 16.2259 47.991 15.6288 49.6167 15.4569C49.9355 15.4225 50.2575 15.4068 50.5733 15.4068C53.3713 15.4068 56.0129 16.7761 57.6354 19.0708C59.2642 21.3748 59.6581 24.229 58.714 26.9051C58.3857 27.8398 58.4576 28.5745 58.9609 29.3592C59.4299 30.0907 59.8675 30.8629 60.3302 31.6819C60.3646 31.7445 60.399 31.8039 60.4365 31.8664H58.1606C57.1727 31.8664 56.2067 31.8664 55.2376 31.8758C54.6874 31.882 54.231 31.9508 53.8433 32.0915C52.6897 32.5135 51.558 32.7261 50.4795 32.7261C48.7288 32.7261 47.0313 32.1603 45.4307 31.0473C44.8961 30.6753 44.4053 30.494 43.9332 30.494C43.2798 30.494 42.7046 30.8379 42.2263 31.5194C41.6604 32.3259 41.3103 33.517 42.8422 34.6112C45.1868 36.2837 47.7441 37.1341 50.4451 37.1341C51.7237 37.1341 53.0586 36.9434 54.4123 36.5682C55.0406 36.3932 55.6315 36.3025 56.1692 36.2962C57.7073 36.2837 59.2485 36.2806 60.7866 36.2806H67.9957L67.3079 34.9801L67.3111 34.977Z" fill="white"/>
<path d="M53.1758 24.5232C53.2915 25.2173 53.6478 25.6799 54.4044 25.6549C55.1453 25.6331 55.5767 25.2048 55.5642 24.4701C55.5517 23.7292 55.0797 23.3134 54.3606 23.3196C53.626 23.3259 53.2571 23.8011 53.1758 24.5232Z" fill="white"/>
<path d="M44.3335 20.0156C42.7516 20.0437 41.8981 20.8753 41.8606 22.2539C41.8231 23.6357 42.639 24.558 44.1084 24.5799C45.5496 24.6017 46.4186 23.8108 46.453 22.3665C46.4874 20.9222 45.6402 20.1594 44.3335 20.0125V20.0156Z" fill="white"/>
<path d="M49.866 25.3727C51.0071 25.3196 51.6761 24.7162 51.6886 23.6439C51.7011 22.5779 51.0728 21.887 49.9567 21.8776C48.8531 21.8651 48.2091 22.4779 48.1841 23.5908C48.1622 24.71 48.8094 25.2727 49.866 25.3759V25.3727Z" fill="white"/>
<path d="M36.392 29.1642C35.451 28.8797 34.9633 27.8981 34.882 26.0599C34.8539 25.741 34.8445 25.4221 34.8414 25.0751V25.0376C34.8414 24.9063 34.8414 24.7688 34.8414 24.6281V18.1318H39.9871L38.6116 12.9048H34.8476V12.5359H34.8382V5.30493H28.22V12.5359H24.9531V18.1318H28.22L28.2607 24.75C28.2607 25.6066 28.2607 26.4663 28.3013 27.2822C28.4639 31.1619 29.8113 34.879 34.8382 35.4511C37.1266 35.6543 39.168 35.0009 39.984 35.0415L38.9617 29.2424C38.349 29.2424 37.3267 29.5269 36.3888 29.1611L36.392 29.1642Z" fill="white"/>
<path d="M17.4943 12.5391C16.0719 12.5391 14.7495 13.3081 14.043 14.543L14.0211 14.5805L13.9804 14.5117C13.2583 13.2956 11.9328 12.5391 10.5197 12.5391H0L13.9961 37.1018L28.2204 12.5391H17.4974H17.4943Z" fill="#E40520"/>
<path d="M6.48438 16.3081L14.0186 29.5289L21.6747 16.3081H17.3761L14.0811 22.0791L10.661 16.3081H6.48438Z" fill="white"/>
</svg>
