<svg width="311" height="91" viewBox="0 0 311 91" fill="none" xmlns="http://www.w3.org/2000/svg">
<g filter="url(#filter0_dd_3415_138714)">
<path d="M267.372 79.5219L43.3582 79.5219C23.209 79.5219 6.875 63.1878 6.875 43.0386V39.1673C6.875 19.0181 23.209 2.68408 43.3582 2.68408L267.372 2.68408C287.521 2.68408 303.855 19.0181 303.855 39.1673V43.0386C303.856 63.1866 287.522 79.5219 267.372 79.5219Z" fill="#FCFCFD"/>
<path d="M267.374 80.1324L43.3599 80.1324C22.9058 80.1324 6.26563 63.491 6.26563 43.0381V39.1668C6.26563 18.7127 22.9058 2.07251 43.3599 2.07251L267.374 2.07251C287.828 2.07251 304.468 18.7127 304.468 39.1668V43.0381C304.468 63.491 287.828 80.1324 267.374 80.1324ZM43.3599 3.2922C23.5791 3.2922 7.48531 19.386 7.48531 39.1668V43.0381C7.48531 62.8202 23.5778 78.9128 43.3599 78.9128L267.374 78.9128C287.156 78.9128 303.248 62.8202 303.248 43.0381V39.1668C303.248 19.386 287.156 3.2922 267.374 3.2922L43.3599 3.2922Z" fill="#F63D68"/>
<path d="M54.3229 64.5418C67.3521 58.7124 73.1886 43.4244 67.3592 30.3952C61.5297 17.366 46.2418 11.5294 33.2126 17.3589C20.1834 23.1884 14.3468 38.4763 20.1763 51.5055C26.0057 64.5347 41.2937 70.3713 54.3229 64.5418Z" fill="#F63D68"/>
<path d="M36.9297 41.7342V34.2039C36.9297 32.2426 39.0519 31.018 40.7497 31.9975L47.2714 35.7626L53.7918 39.5278C55.4896 40.5084 55.4896 42.9588 53.7918 43.9394L47.2714 47.7046L40.7497 51.4698C39.0519 52.4504 36.9297 51.2246 36.9297 49.2633V41.7342Z" fill="white"/>
<path d="M97.9506 58.1862C96.9395 58.1862 96.1211 57.3665 96.1211 56.3566V27.1135C96.1211 26.1036 96.9395 25.2839 97.9506 25.2839C98.9617 25.2839 99.7802 26.1036 99.7802 27.1135V56.3566C99.7802 57.3665 98.9605 58.1862 97.9506 58.1862Z" fill="#F63D68"/>
<path d="M88.3412 53.6113C87.3301 53.6113 86.5117 52.7917 86.5117 51.7818V31.6862C86.5117 30.6763 87.3301 29.8567 88.3412 29.8567C89.3524 29.8567 90.1708 30.6763 90.1708 31.6862V51.7818C90.1708 52.7917 89.3524 53.6113 88.3412 53.6113Z" fill="#F63D68"/>
<path d="M213.228 58.1867C212.218 58.1867 211.398 57.367 211.398 56.3571V27.114C211.398 26.1041 212.218 25.2844 213.228 25.2844C214.238 25.2844 215.057 26.1041 215.057 27.114V56.3571C215.057 57.367 214.238 58.1867 213.228 58.1867Z" fill="#F63D68"/>
<path d="M203.626 53.613C202.617 53.613 201.797 52.7934 201.797 51.7835V31.6879C201.797 30.678 202.617 29.8584 203.626 29.8584C204.636 29.8584 205.456 30.678 205.456 31.6879V51.7835C205.456 52.7934 204.636 53.613 203.626 53.613Z" fill="#F63D68"/>
<path d="M222.837 53.6125C221.827 53.6125 221.008 52.7929 221.008 51.783V31.6874C221.008 30.6775 221.827 29.8579 222.837 29.8579C223.847 29.8579 224.667 30.6775 224.667 31.6874V51.783C224.667 52.7929 223.847 53.6125 222.837 53.6125Z" fill="#F63D68"/>
<path d="M232.447 49.5081C231.437 49.5081 230.617 48.6884 230.617 47.6785V35.7951C230.617 34.7852 231.437 33.9656 232.447 33.9656C233.457 33.9656 234.276 34.7852 234.276 35.7951V47.6785C234.276 48.6884 233.457 49.5081 232.447 49.5081Z" fill="#F63D68"/>
<path d="M251.396 58.1879C250.386 58.1879 249.566 57.3683 249.566 56.3584V27.1152C249.566 26.1053 250.386 25.2856 251.396 25.2856C252.406 25.2856 253.225 26.1053 253.225 27.1152V56.3584C253.225 57.3683 252.407 58.1879 251.396 58.1879Z" fill="#F63D68"/>
<path d="M241.787 53.6127C240.777 53.6127 239.957 52.7931 239.957 51.7832V31.6877C239.957 30.6778 240.777 29.8582 241.787 29.8582C242.796 29.8582 243.616 30.6778 243.616 31.6877V51.7832C243.616 52.7931 242.798 53.6127 241.787 53.6127Z" fill="#F63D68"/>
<path d="M261.001 53.6132C259.992 53.6132 259.172 52.7936 259.172 51.7837V31.6882C259.172 30.6783 259.992 29.8586 261.001 29.8586C262.011 29.8586 262.831 30.6783 262.831 31.6882V51.7837C262.831 52.7936 262.013 53.6132 261.001 53.6132Z" fill="#F63D68"/>
<path d="M270.599 49.5066C269.589 49.5066 268.77 48.687 268.77 47.6771V35.7936C268.77 34.7837 269.589 33.9641 270.599 33.9641C271.609 33.9641 272.429 34.7837 272.429 35.7936V47.6771C272.429 48.687 271.609 49.5066 270.599 49.5066Z" fill="#F63D68"/>
<path d="M279.267 47.8396C278.257 47.8396 277.438 47.02 277.438 46.0101V39.4348C277.438 38.4249 278.257 37.6052 279.267 37.6052C280.277 37.6052 281.097 38.4249 281.097 39.4348V46.0101C281.097 47.02 280.277 47.8396 279.267 47.8396Z" fill="#F63D68"/>
<path d="M136.38 57.9888C135.37 57.9888 134.551 57.1691 134.551 56.1592V27.3124C134.551 26.3025 135.37 25.4829 136.38 25.4829C137.39 25.4829 138.21 26.3025 138.21 27.3124V56.1592C138.21 57.1691 137.39 57.9888 136.38 57.9888Z" fill="#F63D68"/>
<path d="M107.56 62.5261C106.55 62.5261 105.73 61.7065 105.73 60.6966V22.7753C105.73 21.7654 106.55 20.9458 107.56 20.9458C108.57 20.9458 109.39 21.7654 109.39 22.7753V60.6966C109.39 61.7065 108.57 62.5261 107.56 62.5261Z" fill="#F63D68"/>
<path d="M117.165 70.1972C116.156 70.1972 115.336 69.3776 115.336 68.3677L115.336 15.1039C115.336 14.0928 116.156 13.2744 117.165 13.2744C118.175 13.2744 118.995 14.0928 118.995 15.1039V68.3677C118.995 69.3788 118.175 70.1972 117.165 70.1972Z" fill="#F63D68"/>
<path d="M126.775 62.5252C125.765 62.5252 124.945 61.7055 124.945 60.6956V22.7744C124.945 21.7645 125.765 20.9448 126.775 20.9448C127.785 20.9448 128.604 21.7645 128.604 22.7744V60.6956C128.604 61.7055 127.785 62.5252 126.775 62.5252Z" fill="#F63D68"/>
<path d="M155.591 58.1864C154.581 58.1864 153.762 57.3668 153.762 56.3569V27.1137C153.762 26.1038 154.581 25.2842 155.591 25.2842C156.601 25.2842 157.421 26.1038 157.421 27.1137V56.3569C157.421 57.3668 156.602 58.1864 155.591 58.1864Z" fill="#F63D68"/>
<path d="M145.99 53.614C144.98 53.614 144.16 52.7943 144.16 51.7844V31.6889C144.16 30.679 144.98 29.8594 145.99 29.8594C147 29.8594 147.819 30.679 147.819 31.6889V51.7844C147.819 52.7943 147 53.614 145.99 53.614Z" fill="#F63D68"/>
<path d="M194.021 57.9895C193.011 57.9895 192.191 57.1699 192.191 56.16V27.3132C192.191 26.3033 193.011 25.4836 194.021 25.4836C195.031 25.4836 195.85 26.3033 195.85 27.3132V56.16C195.85 57.1699 195.031 57.9895 194.021 57.9895Z" fill="#F63D68"/>
<path d="M165.197 62.5252C164.187 62.5252 163.367 61.7055 163.367 60.6956V22.7744C163.367 21.7645 164.187 20.9448 165.197 20.9448C166.207 20.9448 167.026 21.7645 167.026 22.7744V60.6956C167.026 61.7055 166.207 62.5252 165.197 62.5252Z" fill="#F63D68"/>
<path d="M174.802 70.1965C173.792 70.1965 172.973 69.3768 172.973 68.3669V15.1032C172.973 14.0921 173.792 13.2737 174.802 13.2737C175.812 13.2737 176.632 14.0921 176.632 15.1032V68.3669C176.632 69.3781 175.813 70.1965 174.802 70.1965Z" fill="#F63D68"/>
<path d="M184.408 62.5244C183.398 62.5244 182.578 61.7048 182.578 60.6949V22.7736C182.578 21.7637 183.398 20.9441 184.408 20.9441C185.418 20.9441 186.237 21.7637 186.237 22.7736V60.6949C186.237 61.7048 185.419 62.5244 184.408 62.5244Z" fill="#F63D68"/>
<path d="M78.7358 50.6948C77.7247 50.6948 76.9062 49.8751 76.9062 48.8652V34.6047C76.9062 33.5948 77.7247 32.7751 78.7358 32.7751C79.7469 32.7751 80.5653 33.5948 80.5653 34.6047V48.8652C80.5653 49.8751 79.7457 50.6948 78.7358 50.6948Z" fill="#F63D68"/>
</g>
<defs>
<filter id="filter0_dd_3415_138714" x="0.265625" y="0.0725098" width="310.203" height="90.0598" filterUnits="userSpaceOnUse" color-interpolation-filters="sRGB">
<feFlood flood-opacity="0" result="BackgroundImageFix"/>
<feColorMatrix in="SourceAlpha" type="matrix" values="0 0 0 0 0 0 0 0 0 0 0 0 0 0 0 0 0 0 127 0" result="hardAlpha"/>
<feMorphology radius="2" operator="erode" in="SourceAlpha" result="effect1_dropShadow_3415_138714"/>
<feOffset dy="2"/>
<feGaussianBlur stdDeviation="2"/>
<feComposite in2="hardAlpha" operator="out"/>
<feColorMatrix type="matrix" values="0 0 0 0 0 0 0 0 0 0 0 0 0 0 0 0 0 0 0.06 0"/>
<feBlend mode="normal" in2="BackgroundImageFix" result="effect1_dropShadow_3415_138714"/>
<feColorMatrix in="SourceAlpha" type="matrix" values="0 0 0 0 0 0 0 0 0 0 0 0 0 0 0 0 0 0 127 0" result="hardAlpha"/>
<feMorphology radius="2" operator="erode" in="SourceAlpha" result="effect2_dropShadow_3415_138714"/>
<feOffset dy="4"/>
<feGaussianBlur stdDeviation="4"/>
<feComposite in2="hardAlpha" operator="out"/>
<feColorMatrix type="matrix" values="0 0 0 0 0 0 0 0 0 0 0 0 0 0 0 0 0 0 0.1 0"/>
<feBlend mode="normal" in2="effect1_dropShadow_3415_138714" result="effect2_dropShadow_3415_138714"/>
<feBlend mode="normal" in="SourceGraphic" in2="effect2_dropShadow_3415_138714" result="shape"/>
</filter>
</defs>
</svg>
