<svg width="42" height="42" viewBox="0 0 42 42" fill="none" xmlns="http://www.w3.org/2000/svg">
<rect x="0.5" y="0.5" width="41" height="41" rx="2.5" fill="white"/>
<rect x="0.5" y="0.5" width="41" height="41" rx="2.5" stroke="#F63D68"/>
<path d="M23.1661 12.1886C21.7369 11.8958 20.2632 11.8958 18.8341 12.1886C18.3903 12.2796 18.0485 12.6348 17.9749 13.0818L17.9206 13.4108C17.4744 16.1187 17.4744 18.8813 17.9206 21.5892L17.9749 21.9182C18.0485 22.3652 18.3903 22.7204 18.8341 22.8114C20.2632 23.1042 21.7369 23.1042 23.1661 22.8114C23.6099 22.7204 23.9517 22.3652 24.0253 21.9182L24.0795 21.5892C24.5258 18.8813 24.5258 16.1187 24.0795 13.4108L24.0253 13.0818C23.9517 12.6348 23.6099 12.2796 23.1661 12.1886Z" fill="#F63D68"/>
<path d="M13.8949 19.2574C14.305 19.1993 14.6846 19.4847 14.7427 19.8948L15.1932 23.0741C15.3149 23.9331 15.9958 24.6047 16.8564 24.7146C19.6077 25.0661 22.3925 25.0661 25.1438 24.7146C26.0044 24.6047 26.6853 23.9331 26.807 23.0741L27.2575 19.8948C27.3156 19.4847 27.6952 19.1993 28.1053 19.2574C28.5154 19.3155 28.8008 19.6951 28.7427 20.1052L28.2922 23.2845C28.0757 24.8124 26.8645 26.007 25.3338 26.2025C24.1436 26.3546 22.9474 26.4437 21.7501 26.47V30.5C21.7501 30.9142 21.4143 31.25 21.0001 31.25C20.5859 31.25 20.2501 30.9142 20.2501 30.5V26.47C19.0528 26.4437 17.8566 26.3546 16.6664 26.2025C15.1357 26.007 13.9245 24.8124 13.708 23.2845L13.2575 20.1052C13.1994 19.6951 13.4848 19.3155 13.8949 19.2574Z" fill="#F63D68"/>
</svg>
