<svg width="50" height="50" viewBox="0 0 50 50" fill="none" xmlns="http://www.w3.org/2000/svg">
<rect x="0.5" y="0.5" width="49" height="49" rx="6.5" fill="white"/>
<rect x="0.5" y="0.5" width="49" height="49" rx="6.5" stroke="#F63D68"/>
<path fill-rule="evenodd" clip-rule="evenodd" d="M22.7337 15.6986C24.2291 15.3921 25.7711 15.3921 27.2664 15.6986C27.9133 15.8311 28.4113 16.3488 28.5187 17.0003L28.5729 17.3293C29.028 20.091 29.028 22.9085 28.5729 25.6702L28.5187 25.9992C28.4113 26.6507 27.9133 27.1684 27.2665 27.301C25.7711 27.6074 24.2291 27.6074 22.7337 27.301C22.0869 27.1684 21.5889 26.6507 21.4815 25.9992L21.4273 25.6702C20.9722 22.9085 20.9722 20.091 21.4273 17.3293L21.4815 17.0003C21.5889 16.3488 22.0869 15.8311 22.7337 15.6986ZM26.9654 17.168C25.6686 16.9023 24.3315 16.9023 23.0348 17.168C22.997 17.1758 22.9678 17.2061 22.9615 17.2442L22.9073 17.5732C22.4788 20.1734 22.4788 22.8261 22.9073 25.4263L22.9615 25.7553C22.9678 25.7934 22.997 25.8237 23.0348 25.8315C24.3315 26.0972 25.6686 26.0972 26.9654 25.8315C27.0032 25.8237 27.0324 25.7934 27.0386 25.7553L27.0929 25.4263C27.5214 22.8261 27.5214 20.1734 27.0929 17.5732L27.0386 17.2442C27.0324 17.2061 27.0032 17.1758 26.9654 17.168Z" fill="#293056"/>
<path d="M17.8949 24.2572C18.305 24.1991 18.6846 24.4844 18.7427 24.8945L19.1932 28.0738C19.3149 28.9328 19.9958 29.6045 20.8564 29.7144C23.6077 30.0658 26.3925 30.0658 29.1438 29.7144C30.0044 29.6045 30.6853 28.9328 30.807 28.0738L31.2575 24.8945C31.3156 24.4844 31.6952 24.1991 32.1053 24.2572C32.5154 24.3153 32.8008 24.6949 32.7427 25.105L32.2922 28.2843C32.0757 29.8122 30.8645 31.0068 29.3338 31.2023C28.1436 31.3543 26.9474 31.4435 25.7501 31.4697V35.4998C25.7501 35.914 25.4143 36.2498 25.0001 36.2498C24.5859 36.2498 24.2501 35.914 24.2501 35.4998V31.4697C23.0528 31.4435 21.8566 31.3543 20.6664 31.2023C19.1357 31.0068 17.9245 29.8122 17.708 28.2843L17.2575 25.105C17.1994 24.6949 17.4848 24.3153 17.8949 24.2572Z" fill="#293056"/>
</svg>
