<svg width="40" height="40" viewBox="0 0 40 40" fill="none" xmlns="http://www.w3.org/2000/svg">
<rect width="40" height="40" rx="20" fill="#FFE4E8"/>
<path d="M22.8894 8.25145C20.9839 7.86101 19.019 7.86101 17.1134 8.25145C16.5217 8.37271 16.066 8.84639 15.9678 9.44241L15.8955 9.88106C15.3005 13.4915 15.3005 17.1751 15.8955 20.7855L15.9678 21.2242C16.066 21.8202 16.5217 22.2939 17.1134 22.4151C19.019 22.8056 20.9839 22.8056 22.8894 22.4151C23.4812 22.2939 23.9368 21.8202 24.0351 21.2242L24.1074 20.7855C24.7024 17.1751 24.7024 13.4915 24.1074 9.88106L24.0351 9.44241C23.9368 8.84639 23.4812 8.37271 22.8894 8.25145Z" fill="#F63D68"/>
<path d="M10.5278 17.6765C11.0746 17.599 11.5807 17.9795 11.6582 18.5263L12.2589 22.7654C12.4212 23.9107 13.3291 24.8062 14.4765 24.9528C18.1449 25.4214 21.858 25.4214 25.5263 24.9528C26.6738 24.8062 27.5817 23.9107 27.744 22.7654L28.3447 18.5263C28.4221 17.9795 28.9282 17.599 29.4751 17.6765C30.0219 17.754 30.4024 18.2601 30.3249 18.8069L29.7242 23.046C29.4355 25.0832 27.8207 26.676 25.7798 26.9367C24.1928 27.1394 22.5978 27.2582 21.0015 27.2933V32.6666C21.0015 33.2189 20.5537 33.6666 20.0015 33.6666C19.4492 33.6666 19.0015 33.2189 19.0015 32.6666V27.2933C17.4051 27.2583 15.8101 27.1394 14.2231 26.9367C12.1822 26.676 10.5673 25.0832 10.2787 23.046L9.67799 18.8069C9.6005 18.2601 9.98097 17.754 10.5278 17.6765Z" fill="#F63D68"/>
</svg>
