<svg width="26" height="34" viewBox="0 0 26 34" fill="none" xmlns="http://www.w3.org/2000/svg">
<path d="M16.6108 1.31447C14.2289 0.826411 11.7727 0.826411 9.39082 1.31447C8.65111 1.46604 8.08153 2.05814 7.95875 2.80316L7.86838 3.35148C7.1246 7.86456 7.1246 12.469 7.86838 16.9821L7.95875 17.5304C8.08153 18.2754 8.65112 18.8675 9.39082 19.0191C11.7727 19.5071 14.2289 19.5071 16.6108 19.0191C17.3505 18.8675 17.9201 18.2754 18.0429 17.5304L18.1332 16.9821C18.877 12.469 18.877 7.86456 18.1332 3.35148L18.0429 2.80316C17.9201 2.05814 17.3505 1.46604 16.6108 1.31447Z" fill="white"/>
<path d="M1.15877 13.0958C1.8423 12.9989 2.47492 13.4745 2.57178 14.1581L3.32262 19.4569C3.52549 20.8886 4.66035 22.0079 6.09466 22.1912C10.6801 22.7769 15.3215 22.7769 19.907 22.1912C21.3413 22.0079 22.4761 20.8886 22.679 19.4569L23.4298 14.1581C23.5267 13.4745 24.1593 12.9989 24.8428 13.0958C25.5264 13.1927 26.002 13.8253 25.9051 14.5088L25.1543 19.8076C24.7934 22.3541 22.7749 24.3451 20.2237 24.671C18.24 24.9244 16.2463 25.073 14.2509 25.1167V31.8334C14.2509 32.5238 13.6912 33.0834 13.0009 33.0834C12.3105 33.0834 11.7509 32.5238 11.7509 31.8334V25.1167C9.75539 25.073 7.76164 24.9244 5.7779 24.671C3.22674 24.3451 1.20819 22.3541 0.847352 19.8076L0.0965053 14.5088C-0.000350863 13.8253 0.47524 13.1927 1.15877 13.0958Z" fill="white"/>
</svg>
