<svg width="43" height="53" viewBox="0 0 43 53" fill="none" xmlns="http://www.w3.org/2000/svg">
<path d="M27.2749 1.50315C23.4639 0.722257 19.534 0.722257 15.723 1.50315C14.5394 1.74566 13.6281 2.69302 13.4317 3.88506L13.2871 4.76237C12.097 11.9833 12.097 19.3504 13.2871 26.5713L13.4317 27.4486C13.6281 28.6406 14.5394 29.588 15.723 29.8305C19.534 30.6114 23.4639 30.6114 27.2749 29.8305C28.4584 29.588 29.3698 28.6406 29.5662 27.4486L29.7108 26.5713C30.9009 19.3504 30.9009 11.9833 29.7108 4.76237L29.5662 3.88506C29.3698 2.69302 28.4584 1.74566 27.2749 1.50315Z" fill="white"/>
<path d="M2.55169 20.3533C3.64533 20.1983 4.65753 20.9593 4.8125 22.0529L6.01386 30.531C6.33844 32.8217 8.15422 34.6127 10.4491 34.9058C17.7859 35.843 25.212 35.843 32.5488 34.9058C34.8437 34.6127 36.6595 32.8217 36.984 30.531L38.1854 22.0529C38.3404 20.9593 39.3526 20.1983 40.4462 20.3533C41.5399 20.5083 42.3008 21.5205 42.1458 22.6141L40.9445 31.0922C40.3671 35.1666 37.1375 38.3522 33.0556 38.8736C29.8817 39.279 26.6917 39.5167 23.499 39.5868V50.3335C23.499 51.4381 22.6036 52.3335 21.499 52.3335C20.3945 52.3335 19.499 51.4381 19.499 50.3335V39.5868C16.3063 39.5167 13.1163 39.279 9.9423 38.8736C5.86044 38.3522 2.63075 35.1666 2.05342 31.0922L0.852065 22.6141C0.697095 21.5205 1.45804 20.5083 2.55169 20.3533Z" fill="white"/>
</svg>
