<svg width="50" height="50" viewBox="0 0 50 50" fill="none" xmlns="http://www.w3.org/2000/svg">
<rect x="0.5" y="0.5" width="49" height="49" rx="6.5" fill="white"/>
<rect x="0.5" y="0.5" width="49" height="49" rx="6.5" stroke="#F63D68"/>
<path d="M23 16.0176C22.5858 16.0176 22.25 15.6818 22.25 15.2676C22.25 14.8534 22.5858 14.5176 23 14.5176H26.5355C26.9497 14.5176 27.2855 14.8534 27.2855 15.2676C27.2855 15.6818 26.9497 16.0176 26.5355 16.0176H23Z" fill="#293056"/>
<path d="M19.5303 16.4695C19.8232 16.7624 19.8232 17.2372 19.5303 17.5301L17.0303 20.0301C16.7374 20.323 16.2626 20.323 15.9697 20.0301C15.6768 19.7372 15.6768 19.2624 15.9697 18.9695L18.4697 16.4695C18.7626 16.1766 19.2374 16.1766 19.5303 16.4695Z" fill="#293056"/>
<path d="M25 18.7498C20.9959 18.7498 17.75 21.9957 17.75 25.9998C17.75 30.0039 20.9959 33.2498 25 33.2498C29.0041 33.2498 32.25 30.0039 32.25 25.9998C32.25 25.5856 32.5858 25.2498 33 25.2498C33.4142 25.2498 33.75 25.5856 33.75 25.9998C33.75 30.8323 29.8325 34.7498 25 34.7498C20.1675 34.7498 16.25 30.8323 16.25 25.9998C16.25 21.1673 20.1675 17.2498 25 17.2498C25.4142 17.2498 25.75 17.5856 25.75 17.9998C25.75 18.414 25.4142 18.7498 25 18.7498Z" fill="#293056"/>
<path d="M30.1882 21.3641C30.4204 21.0655 30.394 20.6407 30.1265 20.3733C29.8591 20.1058 29.4343 20.0794 29.1357 20.3116L25.9658 22.7771L23.8944 24.2567C23.4519 24.5727 23.1893 25.083 23.1893 25.6268C23.1893 26.5566 23.9432 27.3105 24.873 27.3105C25.4168 27.3105 25.9271 27.0479 26.2431 26.6054L27.7227 24.534L30.1882 21.3641Z" fill="#293056"/>
</svg>
