<svg width="24" height="24" viewBox="0 0 24 24" fill="none" xmlns="http://www.w3.org/2000/svg">
<path fill-rule="evenodd" clip-rule="evenodd" d="M11.9993 3.07897L9.78648 5.36847C9.55096 5.61216 9.22658 5.74977 8.88767 5.74977H5.74928V8.88816C5.74928 9.22707 5.61167 9.55145 5.36798 9.78697L3.07848 11.9998L5.36798 14.2126C5.61167 14.4481 5.74928 14.7725 5.74928 15.1114V18.2498H8.88767C9.22658 18.2498 9.55096 18.3874 9.78648 18.6311L11.9993 20.9206L14.2121 18.6311C14.4476 18.3874 14.772 18.2498 15.1109 18.2498H18.2493V15.1114C18.2493 14.7725 18.3869 14.4481 18.6306 14.2126L20.9201 11.9998L18.6306 9.78698C18.3869 9.55145 18.2493 9.22707 18.2493 8.88817V5.74977H15.1109C14.772 5.74977 14.4476 5.61216 14.2121 5.36847L11.9993 3.07897ZM11.1005 1.85054C11.5918 1.34214 12.4067 1.34214 12.8981 1.85054L15.2169 4.24977H18.4993C19.1896 4.24977 19.7493 4.80942 19.7493 5.49977V8.78211L22.1485 11.101C22.6569 11.5923 22.6569 12.4072 22.1485 12.8986L19.7493 15.2174V18.4998C19.7493 19.1901 19.1896 19.7498 18.4993 19.7498H15.2169L12.8981 22.149C12.4067 22.6574 11.5918 22.6574 11.1005 22.149L8.78161 19.7498H5.49928C4.80893 19.7498 4.24928 19.1901 4.24928 18.4998V15.2174L1.85005 12.8986C1.34165 12.4072 1.34165 11.5923 1.85005 11.101L4.24928 8.7821V5.49977C4.24928 4.80942 4.80893 4.24977 5.49928 4.24977H8.78162L11.1005 1.85054Z" fill="#293056"/>
<path fill-rule="evenodd" clip-rule="evenodd" d="M7.24928 11.9998C7.24928 9.37642 9.37593 7.24977 11.9993 7.24977C14.6226 7.24977 16.7493 9.37642 16.7493 11.9998C16.7493 14.6231 14.6226 16.7498 11.9993 16.7498C9.37593 16.7498 7.24928 14.6231 7.24928 11.9998ZM11.9993 8.74977C10.2044 8.74977 8.74928 10.2048 8.74928 11.9998C8.74928 13.7947 10.2044 15.2498 11.9993 15.2498C13.7942 15.2498 15.2493 13.7947 15.2493 11.9998C15.2493 10.2048 13.7942 8.74977 11.9993 8.74977Z" fill="#293056"/>
</svg>
