<svg width="40" height="40" viewBox="0 0 40 40" fill="none" xmlns="http://www.w3.org/2000/svg">
<rect width="40" height="40" rx="20" fill="#FFE4E8"/>
<path d="M10 29.22C10 25.2175 13.2447 21.9728 17.2472 21.9728C21.2498 21.9728 24.4944 25.2175 24.4944 29.22H10ZM17.2472 21.0669C14.2441 21.0669 11.8118 18.6345 11.8118 15.6315C11.8118 12.6284 14.2441 10.1961 17.2472 10.1961C20.2503 10.1961 22.6826 12.6284 22.6826 15.6315C22.6826 18.6345 20.2503 21.0669 17.2472 21.0669ZM25.6235 12.175C26.0634 13.2401 26.3062 14.4075 26.3062 15.6315C26.3062 16.8555 26.0634 18.0228 25.6235 19.0879L24.1043 17.9832C24.3572 17.2457 24.4944 16.4546 24.4944 15.6315C24.4944 14.8083 24.3572 14.0172 24.1043 13.2798L25.6235 12.175ZM28.6141 10C29.4563 11.6967 29.9298 13.6088 29.9298 15.6315C29.9298 17.6542 29.4563 19.5663 28.6141 21.263L27.124 20.1792C27.7621 18.7956 28.118 17.2551 28.118 15.6315C28.118 14.0078 27.7621 12.4673 27.124 11.0838L28.6141 10Z" fill="#F63D68"/>
</svg>
