<svg width="20" height="20" viewBox="0 0 20 20" fill="none" xmlns="http://www.w3.org/2000/svg">
<path d="M10 0C15.5228 0 20 4.47715 20 10C20 15.5228 15.5228 20 10 20C4.47715 20 0 15.5228 0 10C0 4.47715 4.47715 0 10 0ZM10 9C8 9 6.33333 9.3333 5 10C5 12.7614 7.23858 15 10 15C12.7614 15 15 12.7614 15 10C13.6667 9.3333 12 9 10 9ZM6.5 5C5.34792 5 4.37786 5.77929 4.08818 6.8395L4.04989 7.00057H8.9501C8.7187 5.85917 7.70968 5 6.5 5ZM13.5 5C12.3479 5 11.3779 5.77929 11.0882 6.8395L11.0499 7.00057H15.9501C15.7187 5.85917 14.7097 5 13.5 5Z" fill="#F63D68"/>
</svg>
