<svg width="50" height="50" viewBox="0 0 50 50" fill="none" xmlns="http://www.w3.org/2000/svg">
<rect x="0.5" y="0.5" width="49" height="49" rx="6.5" fill="white"/>
<rect x="0.5" y="0.5" width="49" height="49" rx="6.5" stroke="#F63D68"/>
<path d="M26.5 22.7502C26.5 22.336 26.1642 22.0002 25.75 22.0002H19.75C19.3358 22.0002 19 22.336 19 22.7502C19 23.1644 19.3358 23.5002 19.75 23.5002H25.75C26.1642 23.5002 26.5 23.1644 26.5 22.7502Z" fill="#293056"/>
<path d="M25.5 25.7502C25.5 25.336 25.1642 25.0002 24.75 25.0002H19.75C19.3358 25.0002 19 25.336 19 25.7502C19 26.1644 19.3358 26.5002 19.75 26.5002H24.75C25.1642 26.5002 25.5 26.1644 25.5 25.7502Z" fill="#293056"/>
<path d="M25.75 28.0002C26.1642 28.0002 26.5 28.336 26.5 28.7502C26.5 29.1644 26.1642 29.5002 25.75 29.5002H19.75C19.3358 29.5002 19 29.1644 19 28.7502C19 28.336 19.3358 28.0002 19.75 28.0002H25.75Z" fill="#293056"/>
<path fill-rule="evenodd" clip-rule="evenodd" d="M19 34.7502H32C33.5188 34.7502 34.75 33.519 34.75 32.0002V26.5002C34.75 26.086 34.4142 25.7502 34 25.7502H30.75V17.9434C30.75 16.52 29.1411 15.692 27.9828 16.5194L27.8078 16.6444C27.0273 17.2019 25.9701 17.2 25.1859 16.6399C23.8821 15.7086 22.1179 15.7086 20.8141 16.6399C20.0299 17.2 18.9727 17.2019 18.1922 16.6444L18.0172 16.5194C16.8589 15.692 15.25 16.52 15.25 17.9434V31.0002C15.25 33.0713 16.9289 34.7502 19 34.7502ZM21.6859 17.8605C22.4682 17.3017 23.5318 17.3017 24.3141 17.8605C25.6161 18.7905 27.3739 18.7976 28.6796 17.865L28.8547 17.74C29.0202 17.6218 29.25 17.7401 29.25 17.9434V32.0002C29.25 32.4503 29.3581 32.8752 29.5499 33.2502H19C17.7574 33.2502 16.75 32.2428 16.75 31.0002V17.9434C16.75 17.7401 16.9798 17.6218 17.1453 17.74L17.3204 17.865C18.6261 18.7976 20.3839 18.7905 21.6859 17.8605ZM30.75 32.0002V27.2502H33.25V32.0002C33.25 32.6906 32.6904 33.2502 32 33.2502C31.3096 33.2502 30.75 32.6906 30.75 32.0002Z" fill="#293056"/>
</svg>
