<svg width="18" height="18" viewBox="0 0 18 18" fill="none" xmlns="http://www.w3.org/2000/svg">
<path fill-rule="evenodd" clip-rule="evenodd" d="M4.31649 0.768575C7.40404 0.423496 10.5954 0.423496 13.683 0.768575C15.5094 0.9727 16.9843 2.41134 17.1991 4.2483C17.5683 7.40523 17.5683 10.5944 17.1991 13.7513C16.9843 15.5883 15.5094 17.0269 13.683 17.2311C10.5954 17.5761 7.40404 17.5761 4.31649 17.2311C2.49011 17.0269 1.01521 15.5883 0.80036 13.7513C0.43113 10.5944 0.43113 7.40523 0.80036 4.2483C1.01521 2.41134 2.49011 0.9727 4.31649 0.768575ZM13.5164 2.25929C10.5396 1.92659 7.45992 1.92659 4.4831 2.25929C3.33867 2.3872 2.42262 3.29045 2.29021 4.42255C1.93451 7.4637 1.93451 10.5359 2.29021 13.5771C2.42262 14.7092 3.33867 15.6124 4.4831 15.7404C7.45993 16.0731 10.5396 16.0731 13.5164 15.7404C14.6608 15.6124 15.5769 14.7092 15.7093 13.5771C16.065 10.5359 16.065 7.4637 15.7093 4.42256C15.5769 3.29045 14.6608 2.3872 13.5164 2.25929Z" fill="#F63D68"/>
</svg>
