<svg width="18" height="18" viewBox="0 0 18 18" fill="none" xmlns="http://www.w3.org/2000/svg">
<path d="M4.31649 0.768575C7.40404 0.423496 10.5954 0.423496 13.683 0.768575C14.8422 0.898133 15.8598 1.52501 16.5035 2.4354L8.49976 10.4392L6.03009 7.96949C5.73719 7.6766 5.26232 7.6766 4.96943 7.96949C4.67653 8.26239 4.67653 8.73726 4.96943 9.03016L7.96943 12.0302C8.26232 12.323 8.73719 12.323 9.03009 12.0302L17.1455 3.91472C17.168 4.02429 17.1859 4.13554 17.1991 4.2483C17.5683 7.40523 17.5683 10.5944 17.1991 13.7513C16.9843 15.5883 15.5094 17.0269 13.683 17.2311C10.5954 17.5761 7.40404 17.5761 4.31649 17.2311C2.49011 17.0269 1.01521 15.5883 0.80036 13.7513C0.43113 10.5944 0.43113 7.40523 0.80036 4.2483C1.01521 2.41134 2.49011 0.9727 4.31649 0.768575Z" fill="#F63D68"/>
</svg>
