<svg width="10" height="10" viewBox="0 0 10 10" fill="none" xmlns="http://www.w3.org/2000/svg">
<path d="M9.06624 1.99469C9.35913 1.70179 9.35913 1.22692 9.06624 0.934025C8.77335 0.641132 8.29847 0.641132 8.00558 0.934025L5.00038 3.93922L1.99518 0.934026C1.70229 0.641133 1.22742 0.641132 0.934523 0.934026C0.64163 1.22692 0.64163 1.70179 0.934523 1.99469L3.93972 4.99989L0.934514 8.00509C0.641621 8.29799 0.64162 8.77286 0.934514 9.06575C1.22741 9.35865 1.70228 9.35865 1.99517 9.06575L5.00038 6.06054L8.00559 9.06575C8.29848 9.35865 8.77336 9.35865 9.06625 9.06575C9.35914 8.77286 9.35914 8.29799 9.06625 8.00509L6.06104 4.99989L9.06624 1.99469Z" fill="#F63D68"/>
</svg>
