<svg width="20" height="21" viewBox="0 0 20 21" fill="none" xmlns="http://www.w3.org/2000/svg">
<g clip-path="url(#clip0_3415_138652)">
<path d="M10.0058 20.7581C15.5296 20.7581 20.0076 16.2801 20.0076 10.7563C20.0076 5.23238 15.5296 0.754395 10.0058 0.754395C4.48189 0.754395 0.00390625 5.23238 0.00390625 10.7563C0.00390625 16.2801 4.48189 20.7581 10.0058 20.7581Z" fill="#F0F0F0"/>
<path d="M9.57031 10.7562H20.007C20.007 9.85342 19.8867 8.97888 19.6625 8.14697H9.57031V10.7562Z" fill="#D80027"/>
<path d="M9.57031 5.53742H18.539C17.9267 4.53833 17.1439 3.65523 16.2312 2.92822H9.57031V5.53742Z" fill="#D80027"/>
<path d="M10.0033 20.7583C12.3573 20.7583 14.5208 19.9447 16.2293 18.584H3.77734C5.48586 19.9447 7.64943 20.7583 10.0033 20.7583Z" fill="#D80027"/>
<path d="M1.47111 15.9739H18.5388C19.0303 15.1719 19.4116 14.2952 19.6623 13.3647H0.347656C0.598367 14.2952 0.979571 15.1719 1.47111 15.9739Z" fill="#D80027"/>
<path d="M4.63696 2.31633H5.54841L4.7006 2.93226L5.02445 3.92889L4.17667 3.31296L3.3289 3.92889L3.60864 3.06791C2.86217 3.68971 2.20791 4.4182 1.66875 5.22991H1.96079L1.42112 5.62198C1.33704 5.76224 1.2564 5.90473 1.17912 6.04932L1.43683 6.84248L0.956036 6.49316C0.836522 6.74637 0.727205 7.00528 0.628944 7.26959L0.912864 8.1435H1.96079L1.11298 8.75944L1.43683 9.75607L0.589054 9.14013L0.0812253 9.50911C0.0303955 9.9177 0.00390625 10.3339 0.00390625 10.7563H10.0058C10.0058 5.23241 10.0058 4.5812 10.0058 0.754395C8.02993 0.754395 6.18806 1.32755 4.63696 2.31633ZM5.02445 9.75607L4.17667 9.14013L3.3289 9.75607L3.65275 8.75944L2.80493 8.1435H3.85286L4.17667 7.14687L4.50048 8.1435H5.54841L4.7006 8.75944L5.02445 9.75607ZM4.7006 5.84585L5.02445 6.84248L4.17667 6.22654L3.3289 6.84248L3.65275 5.84585L2.80493 5.22991H3.85286L4.17667 4.23328L4.50048 5.22991H5.54841L4.7006 5.84585ZM8.61207 9.75607L7.76429 9.14013L6.91652 9.75607L7.24037 8.75944L6.39255 8.1435H7.44048L7.76429 7.14687L8.0881 8.1435H9.13603L8.28822 8.75944L8.61207 9.75607ZM8.28822 5.84585L8.61207 6.84248L7.76429 6.22654L6.91652 6.84248L7.24037 5.84585L6.39255 5.22991H7.44048L7.76429 4.23328L8.0881 5.22991H9.13603L8.28822 5.84585ZM8.28822 2.93226L8.61207 3.92889L7.76429 3.31296L6.91652 3.92889L7.24037 2.93226L6.39255 2.31633H7.44048L7.76429 1.31969L8.0881 2.31633H9.13603L8.28822 2.93226Z" fill="#0052B4"/>
</g>
<defs>
<clipPath id="clip0_3415_138652">
<rect width="20.0037" height="20.0037" fill="white" transform="translate(0.00390625 0.754395)"/>
</clipPath>
</defs>
</svg>
