<svg width="38" height="38" viewBox="0 0 38 38" fill="none" xmlns="http://www.w3.org/2000/svg">
<rect x="0.5" y="0.5" width="37" height="37" rx="4.5" stroke="#F63D68"/>
<path d="M12.75 17.1384C12.75 13.7811 15.5617 11.0835 19 11.0835C22.4383 11.0835 25.25 13.7811 25.25 17.1384C25.25 19.1001 24.4391 20.8699 22.9209 21.9861C22.8161 22.0631 22.7527 22.1587 22.7306 22.2525C22.6859 22.4425 22.6368 22.66 22.5862 22.8933C22.5613 23.0088 22.4593 23.0915 22.3412 23.0915H15.6588C15.5407 23.0915 15.4387 23.0088 15.4138 22.8933C15.3632 22.66 15.3141 22.4425 15.2694 22.2525C15.2473 22.1587 15.1839 22.0631 15.0791 21.9861C13.5609 20.8699 12.75 19.1001 12.75 17.1384Z" fill="white"/>
<path d="M16.0004 24.3415C15.8447 24.3415 15.727 24.4823 15.7529 24.6359C15.8312 25.0997 15.8884 25.5139 15.9057 25.8001C15.9582 26.6678 16.5973 27.3825 17.4519 27.5671L17.6152 27.6024C18.5272 27.7994 19.4728 27.7994 20.3848 27.6024L20.5481 27.5671C21.4027 27.3825 22.0418 26.6678 22.0943 25.8001C22.1116 25.5139 22.1688 25.0997 22.2471 24.6359C22.273 24.4823 22.1553 24.3415 21.9996 24.3415H16.0004Z" fill="white"/>
</svg>
