<svg width="40" height="40" viewBox="0 0 40 40" fill="none" xmlns="http://www.w3.org/2000/svg">
<path d="M24.3487 8.07619C24.1852 6.76848 22.6404 6.15885 21.6279 7.00254L13.2628 13.9735C13.113 14.0983 12.9242 14.1667 12.7293 14.1667H6.24935C5.09876 14.1667 4.16602 15.0994 4.16602 16.25V23.75C4.16602 24.9006 5.09876 25.8333 6.24935 25.8333H12.7293C12.9242 25.8333 13.113 25.9017 13.2628 26.0265L21.6279 32.9975C22.6404 33.8411 24.1852 33.2315 24.3487 31.9238L24.5084 30.6463C25.3921 23.5763 25.3921 16.4237 24.5084 9.35368L24.3487 8.07619Z" fill="#F63D68"/>
<path d="M33.1796 9.90962C33.8351 9.69284 34.5421 10.0484 34.7589 10.7039C35.7263 13.6288 36.2494 16.7546 36.2494 20C36.2494 23.2454 35.7263 26.3712 34.7589 29.2961C34.5421 29.9516 33.8351 30.3072 33.1796 30.0904C32.5242 29.8736 32.1686 29.1666 32.3853 28.5111C33.27 25.8363 33.7494 22.9754 33.7494 20C33.7494 17.0247 33.27 14.1638 32.3853 11.4889C32.1686 10.8335 32.5242 10.1264 33.1796 9.90962Z" fill="#F63D68"/>
<path d="M30.0532 13.2462C29.8151 12.5982 29.0968 12.2659 28.4487 12.504C27.8007 12.742 27.4684 13.4604 27.7065 14.1084C28.3807 15.9433 28.7493 17.9272 28.7493 20C28.7493 21.7194 28.4957 23.3772 28.0247 24.9394C27.9985 25.0265 27.9715 25.1132 27.944 25.1997C27.8696 25.4326 27.7905 25.6633 27.7065 25.8917C27.4684 26.5397 27.8007 27.258 28.4487 27.4961C29.0968 27.7342 29.8151 27.4019 30.0532 26.7539C30.1495 26.4917 30.2403 26.227 30.3256 25.9598C30.3573 25.8605 30.3882 25.761 30.4183 25.6611C30.9591 23.8674 31.2493 21.9665 31.2493 20C31.2493 17.6287 30.8273 15.3531 30.0532 13.2462Z" fill="#F63D68"/>
</svg>
