<svg width="24" height="24" viewBox="0 0 24 24" fill="none" xmlns="http://www.w3.org/2000/svg">
<path d="M23.0306 13.7194C23.1714 13.8602 23.2504 14.051 23.2504 14.2501C23.2504 14.4491 23.1714 14.64 23.0306 14.7807C22.8899 14.9214 22.699 15.0005 22.5 15.0005C22.301 15.0005 22.1101 14.9214 21.9694 14.7807L20.25 13.0604L18.5306 14.7807C18.3899 14.9214 18.199 15.0005 18 15.0005C17.801 15.0005 17.6101 14.9214 17.4694 14.7807C17.3286 14.64 17.2496 14.4491 17.2496 14.2501C17.2496 14.051 17.3286 13.8602 17.4694 13.7194L19.1897 12.0001L17.4694 10.2807C17.3286 10.14 17.2496 9.94908 17.2496 9.75006C17.2496 9.55104 17.3286 9.36017 17.4694 9.21943C17.6101 9.0787 17.801 8.99964 18 8.99964C18.199 8.99964 18.3899 9.0787 18.5306 9.21943L20.25 10.9397L21.9694 9.21943C22.1101 9.0787 22.301 8.99964 22.5 8.99964C22.699 8.99964 22.8899 9.07871 23.0306 9.21944C23.1714 9.36017 23.2504 9.55104 23.2504 9.75006C23.2504 9.94908 23.1714 10.14 23.0306 10.2807L21.3103 12.0001L23.0306 13.7194ZM5.625 7.50006H3C2.60218 7.50006 2.22064 7.6581 1.93934 7.9394C1.65804 8.22071 1.5 8.60224 1.5 9.00006V15.0001C1.5 15.3979 1.65804 15.7794 1.93934 16.0607C2.22064 16.342 2.60218 16.5001 3 16.5001H5.625C5.72446 16.5001 5.81984 16.4606 5.89016 16.3902C5.96049 16.3199 6 16.2245 6 16.1251V7.87506C6 7.7756 5.96049 7.68022 5.89016 7.6099C5.81984 7.53957 5.72446 7.50006 5.625 7.50006ZM14.7328 2.4235C14.6015 2.31485 14.4371 2.25417 14.2667 2.25144C14.0963 2.24871 13.93 2.30411 13.7953 2.4085L7.64813 7.18975C7.60252 7.22439 7.56546 7.26902 7.53979 7.32021C7.51411 7.3714 7.5005 7.42779 7.5 7.48506V16.5151C7.50017 16.5721 7.51335 16.6283 7.53853 16.6795C7.56371 16.7307 7.60023 16.7754 7.64531 16.8104L13.7925 21.5916C13.9116 21.6842 14.0558 21.7387 14.2063 21.7481C14.3568 21.7574 14.5066 21.7212 14.6362 21.6441C14.7503 21.5732 14.844 21.4739 14.9083 21.3559C14.9725 21.2379 15.0051 21.1053 15.0028 20.971V3.0235C15.0042 2.90959 14.9805 2.79677 14.9333 2.69306C14.8862 2.58936 14.8168 2.49732 14.73 2.4235H14.7328Z" fill="#293056"/>
</svg>
