<svg width="24" height="24" viewBox="0 0 24 24" fill="none" xmlns="http://www.w3.org/2000/svg">
<path d="M14.6096 4.84591C14.5115 4.06128 13.5846 3.6955 12.9771 4.20172L7.95804 8.38431C7.86818 8.45919 7.75492 8.5002 7.63795 8.5002H3.75C3.05964 8.5002 2.5 9.05984 2.5 9.7502V14.2502C2.5 14.9406 3.05964 15.5002 3.75 15.5002H7.63795C7.75492 15.5002 7.86818 15.5412 7.95804 15.6161L12.9771 19.7987C13.5846 20.3049 14.5115 19.9391 14.6096 19.1545L14.7054 18.388C15.2357 14.146 15.2357 9.85443 14.7054 5.61241L14.6096 4.84591Z" fill="#F63D68"/>
<path d="M19.9082 5.94597C20.3014 5.8159 20.7257 6.02926 20.8557 6.42253C21.4362 8.17749 21.75 10.053 21.75 12.0002C21.75 13.9475 21.4362 15.8229 20.8557 17.5779C20.7257 17.9711 20.3014 18.1845 19.9082 18.0544C19.5149 17.9244 19.3015 17.5001 19.4316 17.1069C19.9624 15.5019 20.25 13.7854 20.25 12.0002C20.25 10.215 19.9624 8.49847 19.4316 6.89354C19.3015 6.50028 19.5149 6.07603 19.9082 5.94597Z" fill="#F63D68"/>
<path d="M18.0323 7.9479C17.8894 7.5591 17.4584 7.35972 17.0696 7.50257C16.6808 7.64542 16.4815 8.07641 16.6243 8.46521C17.0288 9.56615 17.25 10.7565 17.25 12.0002C17.25 13.0318 17.0978 14.0265 16.8152 14.9639C16.7995 15.0161 16.7833 15.0681 16.7668 15.12C16.7222 15.2597 16.6747 15.3981 16.6243 15.5352C16.4815 15.924 16.6808 16.355 17.0696 16.4978C17.4584 16.6407 17.8894 16.4413 18.0323 16.0525C18.0901 15.8952 18.1446 15.7364 18.1958 15.5761C18.2148 15.5165 18.2333 15.4568 18.2514 15.3969C18.5758 14.3206 18.75 13.1801 18.75 12.0002C18.75 10.5774 18.4968 9.21207 18.0323 7.9479Z" fill="#F63D68"/>
</svg>
