<svg width="104" height="48" viewBox="0 0 104 48" fill="none" xmlns="http://www.w3.org/2000/svg">
<path d="M14.909 41.8137H15.3529L17.2974 46.4343H16.816L16.3127 45.2057H13.8648L13.3428 46.4343H12.8926L14.909 41.8137ZM15.1122 42.2827L14.0368 44.8149H16.1595L15.1153 42.2827H15.1122Z" fill="#1D1D1B"/>
<path d="M17.9622 41.8137H18.3936V46.4343H17.9622V41.8137Z" fill="#1D1D1B"/>
<path d="M21.3579 41.8137H22.6897C22.8491 41.8137 23.0179 41.8325 23.1961 41.87C23.3712 41.9075 23.5338 41.97 23.6776 42.0638C23.8245 42.1545 23.9433 42.2795 24.0371 42.439C24.1309 42.5984 24.1778 42.7954 24.1778 43.0361C24.1778 43.2455 24.1402 43.4268 24.0621 43.5769C23.9871 43.7301 23.8839 43.8551 23.7557 43.9521C23.6275 44.049 23.4806 44.124 23.3118 44.1709C23.143 44.2178 22.9679 44.2428 22.7866 44.2428H21.7893V46.4374H21.3579V41.8168V41.8137ZM21.7893 43.8489H22.7678C22.8898 43.8489 23.0085 43.8364 23.1273 43.8082C23.2461 43.7801 23.3493 43.7332 23.44 43.6707C23.5306 43.6082 23.6057 43.5238 23.6619 43.4206C23.7182 43.3174 23.7463 43.1893 23.7463 43.0361C23.7463 42.8829 23.7182 42.761 23.6588 42.6578C23.5994 42.5546 23.5244 42.4671 23.4306 42.4015C23.3368 42.3327 23.2305 42.2858 23.1086 42.2545C22.9867 42.2233 22.8647 42.2076 22.7428 42.2076H21.7893V43.852V43.8489Z" fill="#1D1D1B"/>
<path d="M24.8247 44.9267C24.8247 44.6954 24.8622 44.4828 24.9435 44.289C25.0217 44.0952 25.1311 43.9263 25.2686 43.7857C25.4093 43.645 25.575 43.5356 25.772 43.4574C25.9689 43.3793 26.1815 43.3386 26.4128 43.3386C26.6442 43.3386 26.8567 43.3761 27.0506 43.4574C27.2444 43.5356 27.4132 43.645 27.5539 43.7857C27.6946 43.9263 27.804 44.0952 27.8821 44.289C27.9603 44.4828 28.0009 44.6954 28.0009 44.9267C28.0009 45.1581 27.9603 45.3707 27.8821 45.5645C27.804 45.7583 27.6946 45.924 27.5539 46.0678C27.4132 46.2085 27.2444 46.3179 27.0506 46.3961C26.8567 46.4742 26.6442 46.5149 26.4128 46.5149C26.1815 46.5149 25.9689 46.4773 25.772 46.3961C25.575 46.3179 25.4093 46.2085 25.2686 46.0678C25.1279 45.9271 25.0217 45.7583 24.9435 45.5645C24.8653 45.3707 24.8247 45.1581 24.8247 44.9267ZM25.2155 44.9267C25.2155 45.0956 25.2436 45.255 25.2968 45.4082C25.3499 45.5582 25.4312 45.6895 25.5344 45.799C25.6375 45.9115 25.7657 45.999 25.9126 46.0647C26.0596 46.1303 26.2253 46.1616 26.4097 46.1616C26.5941 46.1616 26.7567 46.1272 26.9068 46.0647C27.0537 45.999 27.1819 45.9115 27.285 45.799C27.3882 45.6895 27.4695 45.5582 27.5226 45.4082C27.5758 45.2581 27.6039 45.0987 27.6039 44.9267C27.6039 44.7548 27.5758 44.5985 27.5226 44.4484C27.4695 44.2984 27.3882 44.1671 27.285 44.0576C27.1819 43.9482 27.0537 43.8576 26.9068 43.7919C26.7598 43.7263 26.5941 43.695 26.4097 43.695C26.2253 43.695 26.0627 43.7263 25.9126 43.7919C25.7626 43.8576 25.6375 43.9451 25.5344 44.0576C25.4312 44.1702 25.3499 44.2984 25.2968 44.4484C25.2436 44.5985 25.2155 44.7579 25.2155 44.9267Z" fill="#1D1D1B"/>
<path d="M28.448 43.4204H28.8794L29.611 45.9464H29.6235L30.4644 43.4204H30.8364L31.7305 45.9464H31.743L32.4558 43.4204H32.8466L31.9587 46.4372H31.5555L30.6551 43.9706H30.6426L29.8017 46.4372H29.3984L28.4511 43.4204H28.448Z" fill="#1D1D1B"/>
<path d="M36.1293 45.8676C35.9761 46.0989 35.7885 46.2646 35.5634 46.3647C35.3383 46.4647 35.0914 46.5147 34.8225 46.5147C34.5912 46.5147 34.3817 46.4772 34.1973 46.3959C34.0097 46.3178 33.8503 46.2084 33.7158 46.0677C33.5814 45.927 33.4782 45.7582 33.4063 45.5644C33.3344 45.3705 33.3 45.1548 33.3 44.9204C33.3 44.6859 33.3376 44.4858 33.4095 44.292C33.4845 44.1013 33.5877 43.9356 33.7221 43.7918C33.8565 43.6511 34.016 43.5386 34.1973 43.4604C34.3786 43.3823 34.5818 43.3416 34.8038 43.3416C35.0257 43.3416 35.2383 43.3823 35.4134 43.4604C35.5884 43.5417 35.7385 43.648 35.8573 43.7793C35.9761 43.9137 36.0668 44.0638 36.1293 44.2326C36.1887 44.4014 36.2199 44.5733 36.2199 44.7484V45.0235H33.6877C33.6877 45.1048 33.7033 45.2111 33.7377 45.3393C33.7721 45.4674 33.8284 45.5925 33.9159 45.7144C34.0034 45.8363 34.1191 45.9395 34.266 46.027C34.413 46.1146 34.6006 46.1583 34.8319 46.1583C35.032 46.1583 35.2258 46.1114 35.4134 46.0145C35.6009 45.9176 35.7448 45.7894 35.8448 45.6238L36.1324 45.8645L36.1293 45.8676ZM35.8292 44.6734C35.8292 44.539 35.801 44.4139 35.7479 44.2951C35.6947 44.1763 35.6197 44.0731 35.5259 43.9856C35.4321 43.895 35.3227 43.8262 35.1945 43.773C35.0664 43.7199 34.9288 43.6949 34.785 43.6949C34.5724 43.6949 34.3942 43.7386 34.2535 43.8262C34.1129 43.9137 34.0003 44.0137 33.9159 44.1263C33.8346 44.2388 33.7752 44.3483 33.7408 44.4545C33.7065 44.5608 33.6877 44.6327 33.6877 44.6734H35.8292Z" fill="#1D1D1B"/>
<path d="M37.0955 44.267C37.0955 44.2107 37.0955 44.1419 37.0892 44.0606C37.083 43.9794 37.083 43.8981 37.0798 43.8168C37.0767 43.7355 37.0736 43.6574 37.0705 43.5855C37.0673 43.5136 37.0642 43.4573 37.0642 43.4198H37.455C37.4581 43.5323 37.4612 43.6417 37.4644 43.7449C37.4675 43.8481 37.4706 43.9168 37.48 43.9481C37.58 43.7699 37.7082 43.623 37.8645 43.5104C38.0208 43.3979 38.2115 43.3416 38.4397 43.3416C38.4773 43.3416 38.5179 43.3416 38.5554 43.351C38.5929 43.3572 38.6304 43.3635 38.6711 43.3729L38.6242 43.7574C38.571 43.7386 38.521 43.7324 38.4741 43.7324C38.3053 43.7324 38.1584 43.7605 38.0333 43.8137C37.9083 43.8668 37.8083 43.9418 37.727 44.0388C37.6457 44.1357 37.5863 44.2482 37.5488 44.3764C37.5081 44.5046 37.4894 44.6421 37.4894 44.7922V46.4366H37.0986V44.2701L37.0955 44.267Z" fill="#1D1D1B"/>
<path d="M41.8163 45.8676C41.6631 46.0989 41.4755 46.2646 41.2504 46.3647C41.0254 46.4647 40.7784 46.5147 40.5095 46.5147C40.2782 46.5147 40.0687 46.4772 39.8843 46.3959C39.6967 46.3178 39.5373 46.2084 39.4028 46.0677C39.2684 45.927 39.1653 45.7582 39.0934 45.5644C39.0214 45.3705 38.9871 45.1548 38.9871 44.9204C38.9871 44.6859 39.0246 44.4858 39.0965 44.292C39.1715 44.1013 39.2747 43.9356 39.4091 43.7918C39.5435 43.6511 39.703 43.5386 39.8843 43.4604C40.0656 43.3823 40.2688 43.3416 40.4908 43.3416C40.7127 43.3416 40.9253 43.3823 41.1004 43.4604C41.2755 43.5417 41.4255 43.648 41.5443 43.7793C41.6631 43.9137 41.7538 44.0638 41.8163 44.2326C41.8757 44.4014 41.9069 44.5733 41.9069 44.7484V45.0235H39.3747C39.3747 45.1048 39.3903 45.2111 39.4247 45.3393C39.4591 45.4674 39.5154 45.5925 39.6029 45.7144C39.6905 45.8363 39.8061 45.9395 39.9531 46.027C40.1 46.1146 40.2876 46.1583 40.5189 46.1583C40.719 46.1583 40.9128 46.1114 41.1004 46.0145C41.288 45.9176 41.4318 45.7894 41.5318 45.6238L41.8194 45.8645L41.8163 45.8676ZM41.5162 44.6734C41.5162 44.539 41.488 44.4139 41.4349 44.2951C41.3817 44.1763 41.3067 44.0731 41.2129 43.9856C41.1191 43.895 41.0097 43.8262 40.8815 43.773C40.7534 43.7199 40.6158 43.6949 40.472 43.6949C40.2594 43.6949 40.0812 43.7386 39.9406 43.8262C39.7999 43.9137 39.6873 44.0137 39.6029 44.1263C39.5216 44.2388 39.4622 44.3483 39.4279 44.4545C39.3935 44.5608 39.3747 44.6327 39.3747 44.6734H41.5162Z" fill="#1D1D1B"/>
<path d="M45.4169 45.9054H45.4044C45.3419 46.0086 45.2669 46.0992 45.1762 46.1774C45.0855 46.2524 44.9855 46.3181 44.8792 46.3681C44.7729 46.4181 44.6604 46.4556 44.5416 46.4775C44.4228 46.4994 44.3102 46.515 44.1946 46.515C43.9632 46.515 43.7506 46.4775 43.5537 46.3962C43.3567 46.3181 43.191 46.2086 43.0504 46.068C42.9097 45.9273 42.8034 45.7585 42.7252 45.5646C42.6471 45.3708 42.6064 45.1582 42.6064 44.9269C42.6064 44.6955 42.644 44.483 42.7252 44.2891C42.8034 44.0953 42.9128 43.9265 43.0504 43.7858C43.191 43.6451 43.3567 43.5357 43.5537 43.4576C43.7506 43.3794 43.9632 43.3388 44.1946 43.3388C44.3071 43.3388 44.4228 43.3513 44.5416 43.3732C44.6604 43.3982 44.7698 43.4357 44.8792 43.4857C44.9886 43.5357 45.0855 43.5982 45.1762 43.6764C45.2669 43.7514 45.345 43.8421 45.4044 43.9484H45.4169V41.5005H45.8077V46.4368H45.4169V45.9085V45.9054ZM45.4576 44.9269C45.4576 44.7581 45.4263 44.5986 45.3606 44.4486C45.295 44.2985 45.2075 44.1672 45.0918 44.0578C44.9761 43.9484 44.8448 43.8577 44.6948 43.7921C44.5447 43.7264 44.3759 43.6952 44.1977 43.6952C44.0195 43.6952 43.8507 43.7264 43.7006 43.7921C43.5506 43.8577 43.4255 43.9452 43.3223 44.0578C43.2192 44.1703 43.1379 44.2985 43.0848 44.4486C43.0316 44.5986 43.0035 44.7581 43.0035 44.9269C43.0035 45.0957 43.0316 45.2551 43.0848 45.4083C43.1379 45.5584 43.2192 45.6897 43.3223 45.7991C43.4255 45.9116 43.5537 45.9992 43.7006 46.0648C43.8476 46.1305 44.0132 46.1617 44.1977 46.1617C44.3821 46.1617 44.5416 46.1274 44.6948 46.0648C44.8479 46.0023 44.9792 45.9116 45.0918 45.7991C45.2043 45.6897 45.295 45.5584 45.3606 45.4083C45.4263 45.2583 45.4576 45.0988 45.4576 44.9269Z" fill="#1D1D1B"/>
<path d="M48.5315 41.5005H48.9223V46.4368H48.5315V41.5005Z" fill="#1D1D1B"/>
<path d="M52.3762 45.1673C52.3762 45.3143 52.3762 45.4487 52.3762 45.5644C52.3762 45.68 52.3825 45.7894 52.3856 45.8895C52.3887 45.9895 52.395 46.0833 52.4012 46.1708C52.4075 46.2584 52.4169 46.3459 52.4294 46.4334H52.0636C52.0386 46.2865 52.0261 46.1208 52.0261 45.9426H52.0136C51.901 46.1396 51.7603 46.2834 51.5915 46.374C51.4227 46.4647 51.2133 46.5116 50.9538 46.5116C50.8225 46.5116 50.6943 46.496 50.5693 46.4616C50.4442 46.4272 50.3285 46.3772 50.2285 46.3053C50.1285 46.2334 50.0472 46.1396 49.9847 46.027C49.9221 45.9145 49.8909 45.7769 49.8909 45.6144C49.8909 45.383 49.9503 45.2017 50.0659 45.0673C50.1847 44.9329 50.3285 44.8328 50.5005 44.764C50.6724 44.6984 50.8537 44.6546 51.0476 44.6327C51.2414 44.614 51.4133 44.6015 51.5603 44.6015H52.0167V44.4202C52.0167 44.1607 51.9354 43.9731 51.776 43.8606C51.6165 43.748 51.4133 43.6917 51.1695 43.6917C50.8225 43.6917 50.5161 43.8043 50.2504 44.0325L50.0222 43.7637C50.166 43.623 50.3442 43.5198 50.5568 43.4479C50.7693 43.376 50.9757 43.3416 51.1695 43.3416C51.5353 43.3416 51.826 43.426 52.0448 43.598C52.2637 43.7699 52.37 44.0481 52.37 44.4295V45.1673H52.3762ZM51.5915 44.9204C51.4258 44.9204 51.2664 44.9297 51.1132 44.9516C50.96 44.9735 50.8194 45.011 50.6943 45.0642C50.5693 45.1173 50.4723 45.1861 50.3973 45.2736C50.3223 45.3612 50.2848 45.4706 50.2848 45.5987C50.2848 45.6894 50.3067 45.7707 50.3473 45.8426C50.3879 45.9145 50.4411 45.9739 50.5067 46.0177C50.5724 46.0614 50.6443 46.0989 50.7256 46.1208C50.8069 46.1458 50.8881 46.1583 50.9694 46.1583C51.1789 46.1583 51.3508 46.1271 51.4852 46.0677C51.6197 46.0083 51.7291 45.927 51.8072 45.8301C51.8885 45.7332 51.9417 45.6206 51.9729 45.4987C52.0042 45.3737 52.0198 45.2486 52.0198 45.1236V44.9204H51.5884H51.5915Z" fill="#1D1D1B"/>
<path d="M53.4219 44.267C53.4219 44.2107 53.4219 44.1419 53.4156 44.0606C53.4094 43.9794 53.4063 43.8981 53.4063 43.8168C53.4063 43.7355 53.4 43.6574 53.3969 43.5855C53.3938 43.5136 53.3906 43.4573 53.3906 43.4198H53.7814C53.7845 43.5323 53.7908 43.6417 53.7908 43.7449C53.7908 43.8481 53.8002 43.9168 53.8064 43.9481H53.8252C53.9033 43.7824 54.0346 43.6417 54.2159 43.5198C54.3973 43.401 54.613 43.3416 54.8537 43.3416C55.0944 43.3416 55.282 43.3791 55.4289 43.451C55.5758 43.5261 55.6947 43.623 55.7791 43.7418C55.8635 43.8606 55.9229 43.9981 55.9541 44.1576C55.9854 44.3139 56.0041 44.4764 56.0041 44.639V46.4334H55.6134V44.6578C55.6134 44.5358 55.604 44.417 55.5821 44.3014C55.5602 44.1857 55.5227 44.0825 55.4664 43.9919C55.4133 43.9012 55.3351 43.8262 55.2382 43.773C55.1413 43.7199 55.0131 43.6917 54.8568 43.6917C54.713 43.6917 54.5786 43.7168 54.4504 43.7668C54.3222 43.8168 54.2097 43.8918 54.119 43.995C54.0284 44.0982 53.9502 44.2263 53.8971 44.3795C53.8408 44.5327 53.8158 44.714 53.8158 44.9235V46.4303H53.425V44.2638L53.4219 44.267Z" fill="#1D1D1B"/>
<path d="M60.0786 46.2399C60.0786 46.615 60.0255 46.9152 59.9161 47.1465C59.8066 47.3778 59.6722 47.556 59.5065 47.6811C59.344 47.8061 59.1689 47.8905 58.9813 47.9343C58.7938 47.9781 58.6249 47.9999 58.4718 47.9999C58.3186 47.9999 58.1716 47.9874 58.0247 47.9593C57.8778 47.9312 57.7402 47.8905 57.6089 47.8343C57.4776 47.778 57.3588 47.7123 57.2525 47.6342C57.1462 47.556 57.0524 47.4654 56.9743 47.3653L57.2807 47.0777C57.4213 47.2747 57.5933 47.4185 57.8027 47.5091C58.0122 47.5998 58.2342 47.6467 58.4686 47.6467C58.6687 47.6467 58.8375 47.6217 58.9751 47.5685C59.1126 47.5154 59.2252 47.4466 59.3158 47.3622C59.4065 47.2778 59.4753 47.184 59.5253 47.0808C59.5753 46.9777 59.6128 46.8776 59.6378 46.7745C59.6628 46.6713 59.6753 46.5744 59.6816 46.4837C59.6847 46.3931 59.6878 46.318 59.6878 46.2618V45.8429H59.6753C59.5628 46.0242 59.4096 46.168 59.2158 46.2743C59.022 46.3806 58.7937 46.4306 58.5343 46.4306C58.3123 46.4306 58.1029 46.39 57.909 46.3087C57.7152 46.2274 57.5433 46.118 57.3963 45.9773C57.2494 45.8366 57.1337 45.6709 57.0493 45.4833C56.9649 45.2958 56.9211 45.0957 56.9211 44.8831C56.9211 44.6705 56.9618 44.4704 57.0493 44.2829C57.1337 44.0953 57.2494 43.9327 57.3963 43.7921C57.5401 43.6514 57.7121 43.542 57.909 43.4607C58.106 43.3763 58.3123 43.3356 58.5343 43.3356C58.7969 43.3356 59.022 43.3888 59.2158 43.4919C59.4096 43.5951 59.5628 43.7389 59.6753 43.9234H59.6878V43.4138H60.0786V46.2336V46.2399ZM59.7004 44.8894C59.7004 44.7237 59.6691 44.5674 59.6066 44.4236C59.544 44.2766 59.4596 44.1516 59.3533 44.0453C59.2471 43.939 59.1189 43.8546 58.9751 43.7921C58.8281 43.7295 58.675 43.6983 58.5093 43.6983C58.3436 43.6983 58.1873 43.7295 58.0435 43.7921C57.8997 43.8546 57.7715 43.939 57.6652 44.0453C57.5589 44.1516 57.4745 44.2766 57.412 44.4236C57.3494 44.5705 57.3182 44.7237 57.3182 44.8894C57.3182 45.0551 57.3494 45.2114 57.412 45.3552C57.4745 45.5021 57.5589 45.6271 57.6652 45.7334C57.7715 45.8397 57.8965 45.9241 58.0435 45.9867C58.1904 46.0492 58.3436 46.0805 58.5093 46.0805C58.675 46.0805 58.8313 46.0492 58.9751 45.9867C59.1189 45.9241 59.2471 45.8397 59.3533 45.7334C59.4596 45.6271 59.544 45.499 59.6066 45.3552C59.6691 45.2114 59.7004 45.0551 59.7004 44.8894Z" fill="#1D1D1B"/>
<path d="M63.5906 45.587C63.5906 45.6433 63.5906 45.7121 63.5968 45.7933C63.5999 45.8746 63.6031 45.9559 63.6062 46.0372C63.6062 46.1185 63.6124 46.1966 63.6156 46.2685C63.6187 46.3404 63.6218 46.3967 63.6218 46.4342H63.231C63.2279 46.3217 63.2217 46.2123 63.2217 46.1091C63.2217 46.0059 63.2123 45.9371 63.206 45.9059H63.1873C63.1091 46.0716 62.9778 46.2123 62.7965 46.3342C62.6121 46.453 62.3995 46.5124 62.1556 46.5124C61.9118 46.5124 61.7273 46.4749 61.5773 46.3998C61.4272 46.3248 61.3084 46.231 61.224 46.1091C61.1396 45.9872 61.0802 45.8496 61.0521 45.6933C61.0208 45.537 61.0083 45.3744 61.0083 45.2119V43.4174H61.3991V45.1931C61.3991 45.315 61.4116 45.4338 61.4303 45.5495C61.4522 45.6652 61.4897 45.7683 61.546 45.859C61.6023 45.9497 61.6773 46.0247 61.7742 46.0778C61.8711 46.131 61.9993 46.1591 62.1556 46.1591C62.2994 46.1591 62.4339 46.1341 62.562 46.0841C62.6902 46.0341 62.8027 45.959 62.8934 45.8559C62.9872 45.7527 63.0622 45.6245 63.1154 45.4713C63.1685 45.3182 63.1967 45.1337 63.1967 44.9274V43.4205H63.5874V45.587H63.5906Z" fill="#1D1D1B"/>
<path d="M67.0112 45.1673C67.0112 45.3143 67.0112 45.4487 67.0112 45.5644C67.0112 45.68 67.0175 45.7894 67.0206 45.8895C67.0237 45.9895 67.03 46.0833 67.0362 46.1708C67.0425 46.2584 67.0519 46.3459 67.0644 46.4334H66.6986C66.6736 46.2865 66.6611 46.1208 66.6611 45.9426H66.6486C66.536 46.1396 66.3954 46.2834 66.2265 46.374C66.0577 46.4647 65.8483 46.5116 65.5888 46.5116C65.4575 46.5116 65.3293 46.496 65.2043 46.4616C65.0792 46.4272 64.9636 46.3772 64.8635 46.3053C64.7635 46.2334 64.6822 46.1396 64.6197 46.027C64.5571 45.9145 64.5259 45.7769 64.5259 45.6144C64.5259 45.383 64.5853 45.2017 64.7009 45.0673C64.8197 44.9329 64.9636 44.8328 65.1355 44.764C65.3074 44.6984 65.4888 44.6546 65.6826 44.6327C65.8764 44.614 66.0483 44.6015 66.1953 44.6015H66.6517V44.4202C66.6517 44.1607 66.5704 43.9731 66.411 43.8606C66.2516 43.748 66.0483 43.6917 65.8045 43.6917C65.4575 43.6917 65.148 43.8043 64.8823 44.0325L64.6541 43.7637C64.7979 43.623 64.9761 43.5198 65.1886 43.4479C65.4012 43.376 65.6076 43.3416 65.8014 43.3416C66.1671 43.3416 66.4579 43.426 66.6767 43.598C66.8956 43.7699 67.0018 44.0481 67.0018 44.4295V45.1673H67.0112ZM66.2265 44.9204C66.0609 44.9204 65.9014 44.9297 65.7451 44.9516C65.5888 44.9735 65.4512 45.011 65.3262 45.0642C65.2011 45.1173 65.1042 45.1861 65.0292 45.2736C64.9542 45.3612 64.9167 45.4706 64.9167 45.5987C64.9167 45.6894 64.9385 45.7707 64.9792 45.8426C65.0198 45.9145 65.073 45.9739 65.1386 46.0177C65.2043 46.0645 65.2762 46.0989 65.3575 46.1208C65.4387 46.1458 65.52 46.1583 65.6013 46.1583C65.8108 46.1583 65.9827 46.1271 66.1171 46.0677C66.2516 46.0083 66.361 45.927 66.4391 45.8301C66.5204 45.7332 66.5767 45.6206 66.6048 45.4987C66.6361 45.3737 66.6517 45.2486 66.6517 45.1236V44.9204H66.2203H66.2265Z" fill="#1D1D1B"/>
<path d="M71.0844 46.2399C71.0844 46.615 71.0313 46.9152 70.9219 47.1465C70.8125 47.3778 70.678 47.556 70.5155 47.6811C70.3529 47.8061 70.1778 47.8905 69.9903 47.9343C69.8027 47.9781 69.6339 47.9999 69.4807 47.9999C69.3275 47.9999 69.1806 47.9874 69.0336 47.9593C68.8867 47.9312 68.7492 47.8905 68.6178 47.8343C68.4865 47.7811 68.3678 47.7123 68.2615 47.6342C68.1552 47.556 68.0614 47.4654 67.9832 47.3653L68.2896 47.0777C68.4303 47.2747 68.6022 47.4185 68.8117 47.5091C69.0211 47.5998 69.2431 47.6467 69.4776 47.6467C69.6776 47.6467 69.8465 47.6217 69.984 47.5685C70.1216 47.5154 70.2341 47.4466 70.3248 47.3622C70.4154 47.2778 70.4842 47.184 70.5342 47.0808C70.5842 46.9777 70.6218 46.8776 70.6468 46.7745C70.6718 46.6713 70.6843 46.5744 70.6874 46.4837C70.6905 46.3931 70.6937 46.318 70.6937 46.2618V45.8429H70.6812C70.5686 46.0242 70.4154 46.168 70.2216 46.2743C70.0278 46.3806 69.7996 46.4306 69.5401 46.4306C69.3181 46.4306 69.1087 46.39 68.9117 46.3087C68.7179 46.2274 68.546 46.118 68.399 45.9773C68.2521 45.8366 68.1395 45.6709 68.052 45.4833C67.9676 45.2958 67.9238 45.0957 67.9238 44.8831C67.9238 44.6705 67.9676 44.4704 68.052 44.2829C68.1364 44.0953 68.2521 43.9327 68.399 43.7921C68.546 43.6514 68.7148 43.542 68.9117 43.4607C69.1087 43.3763 69.315 43.3356 69.5401 43.3356C69.7996 43.3356 70.0278 43.3888 70.2216 43.4919C70.4154 43.5951 70.5686 43.7389 70.6812 43.9234H70.6937V43.4138H71.0844V46.2336V46.2399ZM70.7062 44.8894C70.7062 44.7237 70.6749 44.5674 70.6124 44.4236C70.5499 44.2798 70.4654 44.1516 70.3592 44.0453C70.2529 43.939 70.1278 43.8546 69.9809 43.7921C69.834 43.7295 69.6808 43.6983 69.5151 43.6983C69.3494 43.6983 69.1931 43.7295 69.0493 43.7921C68.9023 43.8546 68.7773 43.939 68.671 44.0453C68.5647 44.1516 68.4803 44.2766 68.4178 44.4236C68.3553 44.5705 68.324 44.7237 68.324 44.8894C68.324 45.0551 68.3553 45.2114 68.4178 45.3552C68.4803 45.5021 68.5647 45.6271 68.671 45.7334C68.7773 45.8397 68.9023 45.9241 69.0493 45.9867C69.1931 46.0492 69.3494 46.0805 69.5151 46.0805C69.6808 46.0805 69.8371 46.0492 69.9809 45.9867C70.1278 45.9241 70.2529 45.8397 70.3592 45.7334C70.4654 45.6271 70.5499 45.499 70.6124 45.3552C70.6749 45.2114 70.7062 45.0551 70.7062 44.8894Z" fill="#1D1D1B"/>
<path d="M74.7066 45.8676C74.5534 46.0989 74.3659 46.2646 74.1408 46.3647C73.9157 46.4647 73.6687 46.5147 73.3999 46.5147C73.1685 46.5147 72.9591 46.4772 72.7715 46.3959C72.5839 46.3178 72.4245 46.2084 72.2901 46.0677C72.1556 45.927 72.0525 45.7582 71.9806 45.5644C71.9087 45.3705 71.8743 45.1548 71.8743 44.9204C71.8743 44.6859 71.9118 44.4858 71.9868 44.292C72.0618 44.1013 72.165 43.9356 72.2994 43.7918C72.4339 43.6511 72.5933 43.5386 72.7746 43.4604C72.9591 43.3791 73.1591 43.3416 73.3811 43.3416C73.6031 43.3416 73.8156 43.3823 73.9907 43.4604C74.1658 43.5386 74.3158 43.648 74.4346 43.7793C74.5534 43.9137 74.6441 44.0638 74.7066 44.2326C74.766 44.4014 74.7973 44.5733 74.7973 44.7484V45.0235H72.265C72.265 45.1048 72.2807 45.2111 72.3151 45.3393C72.3463 45.4674 72.4057 45.5925 72.4933 45.7144C72.5808 45.8363 72.6965 45.9395 72.8434 46.027C72.9872 46.1146 73.1779 46.1583 73.4061 46.1583C73.6062 46.1583 73.8 46.1114 73.9876 46.0145C74.1752 45.9176 74.319 45.7894 74.419 45.6238L74.7066 45.8645V45.8676ZM74.4065 44.6734C74.4065 44.539 74.3784 44.4139 74.3252 44.2951C74.2721 44.1763 74.197 44.0731 74.1033 43.9856C74.0095 43.895 73.9001 43.8262 73.7719 43.773C73.6437 43.7199 73.5062 43.6949 73.3624 43.6949C73.1498 43.6949 72.9716 43.7386 72.8309 43.8262C72.6902 43.9137 72.5777 44.0137 72.4964 44.1263C72.412 44.2388 72.3557 44.3483 72.3213 44.4545C72.2869 44.5608 72.2682 44.6327 72.2682 44.6734H74.4096H74.4065Z" fill="#1D1D1B"/>
<path d="M78.8467 43.771H77.9839V45.7374C77.9839 45.8718 78.0214 45.9781 78.0964 46.05C78.1714 46.125 78.2715 46.1625 78.4028 46.1625C78.4778 46.1625 78.5528 46.1532 78.6279 46.1344C78.7029 46.1156 78.7779 46.0906 78.8467 46.0594L78.8779 46.4126C78.8029 46.4376 78.7185 46.4627 78.6247 46.4845C78.5278 46.5064 78.4434 46.5158 78.3715 46.5158C78.2308 46.5158 78.112 46.4939 78.012 46.4533C77.9119 46.4126 77.8307 46.3564 77.7713 46.2876C77.7119 46.2188 77.665 46.1375 77.6368 46.0437C77.6087 45.95 77.5931 45.8499 77.5931 45.7405V43.7741H76.9397V43.4208H77.5931V42.5518H77.9839V43.4208H78.8467V43.7741V43.771Z" fill="#1D1D1B"/>
<path d="M82.0942 45.587C82.0942 45.6433 82.0942 45.7121 82.1005 45.7933C82.1036 45.8746 82.1067 45.9559 82.1098 46.0372C82.1098 46.1185 82.1161 46.1966 82.1192 46.2685C82.1224 46.3404 82.1255 46.3967 82.1255 46.4342H81.7347C81.7316 46.3217 81.7253 46.2123 81.7253 46.1091C81.7253 46.0059 81.7159 45.9371 81.7097 45.9059H81.6909C81.6128 46.0716 81.4815 46.2123 81.3002 46.3342C81.1157 46.453 80.9031 46.5124 80.6593 46.5124C80.4154 46.5124 80.231 46.4749 80.0809 46.3998C79.9309 46.3248 79.8121 46.231 79.7277 46.1091C79.6433 45.9872 79.5839 45.8496 79.5557 45.6933C79.5245 45.537 79.512 45.3744 79.512 45.2119V43.4174H79.9027V45.1931C79.9027 45.315 79.9152 45.4338 79.934 45.5495C79.9559 45.6652 79.9934 45.7683 80.0497 45.859C80.1059 45.9497 80.181 46.0247 80.2779 46.0778C80.3748 46.131 80.503 46.1591 80.6593 46.1591C80.8031 46.1591 80.9375 46.1341 81.0657 46.0841C81.1939 46.0341 81.3064 45.959 81.3971 45.8559C81.4909 45.7527 81.5659 45.6245 81.619 45.4713C81.6722 45.3182 81.7003 45.1337 81.7003 44.9274V43.4205H82.0911V45.587H82.0942Z" fill="#1D1D1B"/>
<path d="M84.6482 43.771H83.7854V45.7374C83.7854 45.8718 83.8229 45.9781 83.8979 46.05C83.9729 46.125 84.073 46.1625 84.2043 46.1625C84.2793 46.1625 84.3543 46.1532 84.4294 46.1344C84.5044 46.1156 84.5794 46.0906 84.6482 46.0594L84.6795 46.4126C84.6044 46.4376 84.52 46.4627 84.4262 46.4845C84.3293 46.5064 84.2449 46.5158 84.173 46.5158C84.0323 46.5158 83.9135 46.4939 83.8135 46.4533C83.7135 46.4126 83.6322 46.3564 83.5728 46.2876C83.5134 46.2188 83.4665 46.1375 83.4384 46.0437C83.4102 45.95 83.3946 45.8499 83.3946 45.7405V43.7741H82.7412V43.4208H83.3946V42.5518H83.7854V43.4208H84.6482V43.7741V43.771Z" fill="#1D1D1B"/>
<path d="M85.1768 44.9267C85.1768 44.6954 85.2143 44.4828 85.2956 44.289C85.3768 44.0952 85.4831 43.9263 85.6207 43.7857C85.7614 43.645 85.927 43.5356 86.124 43.4574C86.3178 43.3793 86.5335 43.3386 86.7618 43.3386C86.99 43.3386 87.2057 43.3761 87.3995 43.4574C87.5933 43.5356 87.759 43.645 87.9028 43.7857C88.0466 43.9263 88.1529 44.0952 88.2311 44.289C88.3092 44.4828 88.3499 44.6954 88.3499 44.9267C88.3499 45.1581 88.3124 45.3707 88.2311 45.5645C88.1529 45.7583 88.0435 45.924 87.9028 46.0678C87.7621 46.2085 87.5933 46.3179 87.3995 46.3961C87.2057 46.4742 86.9931 46.5149 86.7618 46.5149C86.5304 46.5149 86.3178 46.4773 86.124 46.3961C85.927 46.3179 85.7614 46.2085 85.6207 46.0678C85.48 45.9271 85.3737 45.7583 85.2956 45.5645C85.2174 45.3707 85.1768 45.1581 85.1768 44.9267ZM85.5675 44.9267C85.5675 45.0956 85.5957 45.255 85.6488 45.4082C85.702 45.5582 85.7833 45.6895 85.8864 45.799C85.9896 45.9115 86.1178 45.999 86.2647 46.0647C86.4116 46.1303 86.5773 46.1616 86.7618 46.1616C86.9462 46.1616 87.1088 46.1272 87.2588 46.0647C87.4058 45.999 87.5339 45.9115 87.6371 45.799C87.7403 45.6895 87.8215 45.5582 87.8747 45.4082C87.9278 45.2581 87.956 45.0987 87.956 44.9267C87.956 44.7548 87.9278 44.5985 87.8747 44.4484C87.8215 44.2984 87.7403 44.1671 87.6371 44.0576C87.5339 43.9482 87.4058 43.8576 87.2588 43.7919C87.1119 43.7263 86.9462 43.695 86.7618 43.695C86.5773 43.695 86.4147 43.7263 86.2647 43.7919C86.1178 43.8576 85.9896 43.9451 85.8864 44.0576C85.7833 44.1702 85.702 44.2984 85.6488 44.4484C85.5925 44.5985 85.5675 44.7579 85.5675 44.9267Z" fill="#1D1D1B"/>
<path d="M89.2214 44.267C89.2214 44.2107 89.2215 44.1419 89.2152 44.0606C89.2089 43.9794 89.2058 43.8981 89.2058 43.8168C89.2058 43.7355 89.1996 43.6574 89.1964 43.5855C89.1933 43.5136 89.1902 43.4573 89.1902 43.4198H89.581C89.5841 43.5323 89.5903 43.6417 89.5903 43.7449C89.5903 43.8481 89.5997 43.9168 89.606 43.9481C89.706 43.7699 89.8342 43.623 89.9905 43.5104C90.1468 43.3979 90.3375 43.3416 90.5657 43.3416C90.6032 43.3416 90.6439 43.3416 90.6814 43.351C90.7189 43.3572 90.7564 43.3635 90.7971 43.3729L90.7502 43.7574C90.697 43.7386 90.647 43.7324 90.6001 43.7324C90.4313 43.7324 90.2844 43.7605 90.1593 43.8137C90.0343 43.8668 89.9342 43.9418 89.853 44.0388C89.7717 44.1357 89.7123 44.2482 89.6748 44.3764C89.6372 44.5046 89.6154 44.6421 89.6154 44.7922V46.4366H89.2246V44.2701L89.2214 44.267Z" fill="#1D1D1B"/>
<path d="M65.2584 25.9785C65.2584 25.2845 65.2177 24.5904 65.2177 23.8558L65.1365 0.818665H71.714L71.836 23.6932C71.836 25 72.0392 26.0222 72.3268 26.7975C72.8176 28.9202 75.2279 29.1672 76.2064 29.2079C76.9411 30.0644 75.5937 34.6412 74.859 35.4572C68.2814 35.2946 65.5054 31.7401 65.2584 25.9816V25.9785Z" fill="#1D1D1B"/>
<path d="M91.5255 23.4059L103.74 35.4574H94.9174L85.5638 26.2257V35.4574H78.9456V-0.00012207H85.5638V20.5047L93.6106 11.967H102.473L91.5255 23.4059Z" fill="#1D1D1B"/>
<path d="M67.3091 34.9769C67.1841 34.733 67.0778 34.5329 66.9621 34.3329C66.7151 33.9014 66.4713 33.4669 66.2274 33.0323C65.6397 31.9788 65.0301 30.8878 64.3548 29.853C63.4514 28.4649 63.1981 27.2426 63.4764 25.6357C64.3454 20.6306 61.6538 15.2848 56.9301 12.6338C55.0137 11.5584 52.8066 10.9894 50.5432 10.9894C47.5608 10.9894 44.6972 11.971 42.4838 13.7561C41.8586 14.2594 41.5116 14.8127 41.4584 15.3973C41.4084 15.9507 41.6178 16.5072 42.0837 17.0511C42.5682 17.617 43.0778 17.8921 43.6436 17.8921C44.1157 17.8921 44.6065 17.692 45.1442 17.2825C46.526 16.2258 47.9891 15.6287 49.6147 15.4567C49.9336 15.4224 50.2556 15.4067 50.5713 15.4067C53.3693 15.4067 56.011 16.776 57.6335 19.0707C59.2622 21.3747 59.6561 24.2289 58.712 26.905C58.3838 27.8397 58.4557 28.5744 58.959 29.359C59.4279 30.0906 59.8656 30.8627 60.3283 31.6818C60.3627 31.7443 60.397 31.8037 60.4346 31.8663H58.1587C57.1708 31.8663 56.2048 31.8663 55.2357 31.8756C54.6854 31.8819 54.229 31.9507 53.8414 32.0914C52.6878 32.5134 51.5561 32.726 50.4775 32.726C48.7269 32.726 47.0293 32.1601 45.4287 31.0472C44.8941 30.6752 44.4033 30.4939 43.9312 30.4939C43.2779 30.4939 42.7026 30.8377 42.2243 31.5193C41.6585 32.3258 41.3084 33.5169 42.8402 34.6111C45.1849 36.2836 47.7421 37.1339 50.4432 37.1339C51.7218 37.1339 53.0567 36.9432 54.4103 36.5681C55.0387 36.393 55.6296 36.3024 56.1673 36.2961C57.7054 36.2836 59.2466 36.2805 60.7847 36.2805H67.9937L67.306 34.98L67.3091 34.9769Z" fill="black"/>
<path d="M53.1719 24.5232C53.2875 25.2172 53.6439 25.6799 54.4005 25.6549C55.1414 25.633 55.5728 25.2047 55.5603 24.47C55.5478 23.7291 55.0757 23.3133 54.3567 23.3196C53.6221 23.3258 53.2532 23.801 53.1719 24.5232Z" fill="black"/>
<path d="M44.3322 20.0155C42.7504 20.0436 41.8969 20.8752 41.8594 22.2538C41.8219 23.6356 42.6378 24.5579 44.1071 24.5797C45.5483 24.6016 46.4174 23.8107 46.4518 22.3664C46.4862 20.9221 45.639 20.1593 44.3322 20.0123V20.0155Z" fill="black"/>
<path d="M49.8655 25.3726C51.0066 25.3195 51.6756 24.7161 51.6881 23.6438C51.7006 22.5778 51.0723 21.8869 49.9562 21.8775C48.8527 21.865 48.2087 22.4777 48.1836 23.5907C48.1618 24.7099 48.8089 25.2726 49.8655 25.3757V25.3726Z" fill="black"/>
<path d="M36.3917 29.164C35.4507 28.8796 34.963 27.8979 34.8817 26.0597C34.8536 25.7408 34.8442 25.422 34.8411 25.075V25.0374C34.8411 24.9061 34.8411 24.7686 34.8411 24.6279V18.1316H39.9869L38.6113 12.9046H34.8474V12.5357H34.838V5.30475H28.2198V12.5357H24.9529V18.1316H28.2198L28.2604 24.7498C28.2604 25.6064 28.2604 26.4661 28.3011 27.2821C28.4636 31.1617 29.811 34.8788 34.838 35.4509C37.1264 35.6541 39.1678 35.0007 39.9837 35.0413L38.9615 29.2422C38.3487 29.2422 37.3264 29.5267 36.3886 29.1609L36.3917 29.164Z" fill="#1D1D1B"/>
<path d="M17.4943 12.5389C16.0719 12.5389 14.7495 13.308 14.043 14.5428L14.0211 14.5804L13.9804 14.5116C13.2583 13.2955 11.9328 12.5389 10.5197 12.5389H0L13.9961 37.1016L28.2204 12.5389H17.4974H17.4943Z" fill="#E40520"/>
<path d="M6.48462 16.3079L14.0188 29.5286L21.6749 16.3079H17.3764L14.0813 22.0789L10.6612 16.3079H6.48462Z" fill="white"/>
</svg>
